<?xml version="1.0" encoding="UTF-8" standalone="no"?>
<!-- Created with Inkscape (http://www.inkscape.org/) -->

<svg
   xmlns:osb="http://www.openswatchbook.org/uri/2009/osb"
   xmlns:dc="http://purl.org/dc/elements/1.1/"
   xmlns:cc="http://creativecommons.org/ns#"
   xmlns:rdf="http://www.w3.org/1999/02/22-rdf-syntax-ns#"
   xmlns:svg="http://www.w3.org/2000/svg"
   xmlns="http://www.w3.org/2000/svg"
   xmlns:xlink="http://www.w3.org/1999/xlink"
   xmlns:sodipodi="http://sodipodi.sourceforge.net/DTD/sodipodi-0.dtd"
   xmlns:inkscape="http://www.inkscape.org/namespaces/inkscape"
   width="210mm"
   height="297mm"
   viewBox="0 0 210 297"
   version="1.1"
   id="svg6214"
   inkscape:version="0.92.4 (5da689c313, 2019-01-14)"
   sodipodi:docname="1.svg">
  <defs
     id="defs6208">
    <linearGradient
       id="linearGradient6859"
       osb:paint="solid">
      <stop
         style="stop-color:#000000;stop-opacity:1;"
         offset="0"
         id="stop6857" />
    </linearGradient>
    <linearGradient
       id="linearGradient3541"
       osb:paint="solid">
      <stop
         style="stop-color:#000000;stop-opacity:1;"
         offset="0"
         id="stop3539" />
    </linearGradient>
    <linearGradient
       inkscape:collect="always"
       xlink:href="#linearGradient6859"
       id="linearGradient6861"
       x1="-10628.645"
       y1="-1638.4974"
       x2="-9726.645"
       y2="-1638.4974"
       gradientUnits="userSpaceOnUse" />
    <linearGradient
       inkscape:collect="always"
       xlink:href="#linearGradient6859"
       id="linearGradient6863"
       gradientUnits="userSpaceOnUse"
       x1="-10628.645"
       y1="-1638.4974"
       x2="-9726.645"
       y2="-1638.4974" />
    <linearGradient
       inkscape:collect="always"
       xlink:href="#linearGradient6859"
       id="linearGradient6865"
       gradientUnits="userSpaceOnUse"
       x1="-10628.645"
       y1="-1638.4974"
       x2="-9726.645"
       y2="-1638.4974" />
    <linearGradient
       inkscape:collect="always"
       xlink:href="#linearGradient6859"
       id="linearGradient6867"
       gradientUnits="userSpaceOnUse"
       x1="-10628.645"
       y1="-1638.4974"
       x2="-9726.645"
       y2="-1638.4974" />
    <linearGradient
       inkscape:collect="always"
       xlink:href="#linearGradient6859"
       id="linearGradient6869"
       gradientUnits="userSpaceOnUse"
       x1="-10628.645"
       y1="-1638.4974"
       x2="-9726.645"
       y2="-1638.4974" />
    <linearGradient
       inkscape:collect="always"
       xlink:href="#linearGradient6859"
       id="linearGradient6871"
       gradientUnits="userSpaceOnUse"
       x1="-10628.645"
       y1="-1638.4974"
       x2="-9726.645"
       y2="-1638.4974" />
    <linearGradient
       inkscape:collect="always"
       xlink:href="#linearGradient6859"
       id="linearGradient6873"
       gradientUnits="userSpaceOnUse"
       x1="-10628.645"
       y1="-1638.4974"
       x2="-9726.645"
       y2="-1638.4974" />
    <linearGradient
       inkscape:collect="always"
       xlink:href="#linearGradient6859"
       id="linearGradient6875"
       gradientUnits="userSpaceOnUse"
       x1="-10628.645"
       y1="-1638.4974"
       x2="-9726.645"
       y2="-1638.4974" />
    <linearGradient
       inkscape:collect="always"
       xlink:href="#linearGradient6859"
       id="linearGradient6877"
       gradientUnits="userSpaceOnUse"
       x1="-10628.645"
       y1="-1638.4974"
       x2="-9726.645"
       y2="-1638.4974" />
    <linearGradient
       inkscape:collect="always"
       xlink:href="#linearGradient6859"
       id="linearGradient6879"
       gradientUnits="userSpaceOnUse"
       x1="-10628.645"
       y1="-1638.4974"
       x2="-9726.645"
       y2="-1638.4974" />
    <linearGradient
       inkscape:collect="always"
       xlink:href="#linearGradient6859"
       id="linearGradient6881"
       gradientUnits="userSpaceOnUse"
       x1="-10628.645"
       y1="-1638.4974"
       x2="-9726.645"
       y2="-1638.4974" />
    <linearGradient
       inkscape:collect="always"
       xlink:href="#linearGradient6859"
       id="linearGradient6883"
       gradientUnits="userSpaceOnUse"
       x1="-10628.645"
       y1="-1638.4974"
       x2="-9726.645"
       y2="-1638.4974" />
    <linearGradient
       inkscape:collect="always"
       xlink:href="#linearGradient6859"
       id="linearGradient6885"
       gradientUnits="userSpaceOnUse"
       x1="-10628.645"
       y1="-1638.4974"
       x2="-9726.645"
       y2="-1638.4974" />
    <linearGradient
       inkscape:collect="always"
       xlink:href="#linearGradient6859"
       id="linearGradient6887"
       gradientUnits="userSpaceOnUse"
       x1="-10628.645"
       y1="-1638.4974"
       x2="-9726.645"
       y2="-1638.4974" />
  </defs>
  <sodipodi:namedview
     id="base"
     pagecolor="#ffffff"
     bordercolor="#666666"
     borderopacity="1.0"
     inkscape:pageopacity="0.0"
     inkscape:pageshadow="2"
     inkscape:zoom="0.98994949"
     inkscape:cx="154.95346"
     inkscape:cy="553.46542"
     inkscape:document-units="mm"
     inkscape:current-layer="layer1"
     showgrid="false"
     inkscape:window-width="2400"
     inkscape:window-height="1271"
     inkscape:window-x="2391"
     inkscape:window-y="-9"
     inkscape:window-maximized="1" />
  <metadata
     id="metadata6211">
    <rdf:RDF>
      <cc:Work
         rdf:about="">
        <dc:format>image/svg+xml</dc:format>
        <dc:type
           rdf:resource="http://purl.org/dc/dcmitype/StillImage" />
        <dc:title></dc:title>
      </cc:Work>
    </rdf:RDF>
  </metadata>
  <g
     inkscape:label="Capa 1"
     inkscape:groupmode="layer"
     id="layer1">
    <g
       style="clip-rule:evenodd;fill:url(#linearGradient6861);fill-opacity:1;fill-rule:evenodd;image-rendering:optimizeQuality;shape-rendering:geometricPrecision;text-rendering:geometricPrecision"
       id="g5540"
       transform="matrix(0.23148078,0,0,0.23148078,2461.0794,490.14351)">
      <path
         class="fil0"
         d="m -10145.645,-1769.2317 h -16 c 0,3 -3,6 -6,6 v 0 0 l -199,-1 c -3,0 -6,-3 -6,-6 h -14 13 v 0 h -14 13 v 0 -47 0 c 0,-3 3,-6 6,-6 v -7 7 0 -7 7 0 l 199,1 c 3,0 6,3 6,6 v 0 h 16 -16 v 47 0 h 16 16 v -47 0 h -7 7 v 0 h -7 7 v 0 c 0,-20 -17,-37 -37,-37 l -199,-1 v 0 0 c -21,0 -37,17 -37,37 v 0 47 h 16 -16 v 1 c 0,20 17,37 37,37 l 199,1 v 0 c 21,0 37,-17 37,-37 v 0 h -16 z"
         id="path829"
         style="fill:url(#linearGradient6863);fill-opacity:1;fill-rule:nonzero"
         inkscape:connector-curvature="0" />
      <path
         class="fil0"
         d="m -10146.645,-1484.2317 h -16 c 0,3 -3,6 -6,6 v 0 0 l -199,-1 c -3,0 -6,-3 -6,-6 h -2 2 v 0 h -2 2 -14 14 v 0 h -14 14 v 0 -47 0 c 0,-3 3,-6 6,-6 v 0 -11 11 0 -11 11 0 l 199,1 c 3,0 6,3 6,6 v 0 h 16 -16 v 47 h 16 16 v -47 0 c 0,-20 -17,-37 -37,-37 l -199,-1 v 16 -16 0 c -20,0 -37,17 -37,37 v 0 47 h 16 l -16,-1 v 1 c 0,20 17,37 37,37 l 199,1 v 0 c 21,0 37,-17 37,-37 z"
         id="path831"
         style="fill:url(#linearGradient6865);fill-opacity:1;fill-rule:nonzero"
         inkscape:connector-curvature="0" />
      <path
         class="fil0"
         d="m -10168.645,-1545.2317 c 22,-29 36,-65 36,-105 v 0 -1 c 0,-38 -12,-74 -33,-103 -5,-7 -15,-9 -22,-3 -7,5 -9,15 -3,22 17,24 27,53 27,84 v 1 0 c 0,32 -11,62 -29,86 -5,7 -4,17 3,22 7,5 17,4 22,-3 z"
         id="path833"
         style="fill:url(#linearGradient6867);fill-opacity:1;fill-rule:nonzero"
         inkscape:connector-curvature="0" />
      <path
         class="fil0"
         d="m -10365.645,-1757.2317 c -22,29 -36,66 -36,105 v 0 1 c 0,40 13,76 35,105 5,7 15,8 22,3 7,-5 8,-15 3,-22 -18,-24 -29,-54 -29,-86 v -1 c 0,-33 11,-62 30,-86 5,-7 4,-17 -3,-22 -7,-5 -17,-4 -22,3 z"
         id="path835"
         style="fill:url(#linearGradient6869);fill-opacity:1;fill-rule:nonzero"
         inkscape:connector-curvature="0" />
      <path
         class="fil0"
         d="m -10150.645,-1612.2317 c 125,13 262,26 372,28 9,0 16,-7 16,-15 0,-9 -7,-16 -15,-16 -108,-2 -245,-15 -369,-28 -9,-1 -16,5 -17,14 -1,9 5,16 14,17 z"
         id="path837"
         style="fill:url(#linearGradient6871);fill-opacity:1;fill-rule:nonzero"
         inkscape:connector-curvature="0" />
      <path
         class="fil0"
         d="m -10145.645,-1657.2317 c 138,-13 291,-28 403,-28 9,0 16,-7 16,-16 0,-9 -7,-16 -16,-16 -115,0 -268,16 -406,28 -9,1 -15,8 -14,17 1,9 8,15 17,14 z"
         id="path839"
         style="fill:url(#linearGradient6873);fill-opacity:1;fill-rule:nonzero"
         inkscape:connector-curvature="0" />
      <path
         class="fil0"
         d="m -10281.645,-2109.2317 v 0 c -1,1 -30,34 -86,67 -56,32 -138,65 -245,65 -4,0 -8,2 -11,5 -3,3 -5,7 -5,11 0,194 21,467 21,467 l 1,3 c 0,0 7,26 21,58 7,16 16,33 27,49 11,16 23,31 39,42 14,10 36,23 61,38 37,22 82,47 116,71 17,12 32,24 42,34 5,5 8,10 11,14 2,4 3,7 3,8 0,9 7,16 16,16 9,0 16,-7 16,-16 0,-6 -1,-11 -3,-16 -4,-9 -10,-18 -17,-26 -13,-14 -31,-28 -51,-42 -30,-21 -66,-42 -98,-61 -16,-9 -31,-18 -44,-26 -13,-8 -24,-15 -31,-20 -11,-8 -22,-20 -31,-34 -14,-21 -25,-45 -33,-65 -4,-10 -7,-18 -8,-24 -1,-3 -2,-5 -2,-7 l -1,-2 v -1 l -15,4 16,-1 c 0,0 0,-4 -1,-12 -4,-55 -20,-285 -20,-452 h -16 v 16 c 115,0 204,-35 264,-70 60,-35 91,-71 91,-71 6,-7 5,-17 -2,-22 -7,-6 -17,-5 -22,2 v 0 z"
         id="path841"
         style="fill:url(#linearGradient6875);fill-opacity:1;fill-rule:nonzero"
         inkscape:connector-curvature="0" />
      <path
         class="fil0"
         d="m -9952.645,-1606.2317 c -2,32 -4,59 -5,78 -1,19 -2,30 -2,30 l 16,1 -15,-4 v 0 c -1,2 -8,27 -21,56 -7,14 -14,29 -24,43 -9,13 -19,25 -30,33 -12,9 -33,21 -59,36 -38,21 -84,47 -121,72 -19,13 -35,26 -48,39 -6,7 -12,13 -16,20 -4,7 -7,15 -7,23 0,9 7,16 16,16 9,0 16,-7 16,-16 0,-1 0,-2 1,-4 1,-4 5,-10 11,-16 10,-11 27,-24 47,-38 29,-20 65,-40 98,-59 16,-9 32,-18 46,-26 14,-8 25,-15 34,-22 15,-11 28,-26 39,-42 16,-24 28,-50 36,-71 8,-21 12,-35 12,-36 l 1,-3 c 0,0 3,-44 7,-108 1,-9 -6,-16 -15,-17 -9,-1 -16,6 -17,15 z"
         id="path843"
         style="fill:url(#linearGradient6877);fill-opacity:1;fill-rule:nonzero"
         inkscape:connector-curvature="0" />
      <path
         class="fil0"
         d="m -10278.645,-2089.2317 c 1,1 32,36 91,71 60,35 148,70 264,70 v -16 h -16 c 0,84 -4,183 -9,269 0,9 6,16 15,17 9,0 16,-6 17,-15 5,-86 9,-186 9,-270 0,-4 -2,-8 -5,-11 -3,-3 -7,-5 -11,-5 -109,0 -192,-33 -248,-66 -28,-16 -49,-33 -63,-45 -7,-6 -12,-11 -16,-15 -2,-2 -3,-3 -4,-4 l -1,-1 v 0 0 c -6,-7 -16,-7 -22,-2 -7,6 -7,16 -2,22 z"
         id="path845"
         style="fill:url(#linearGradient6879);fill-opacity:1;fill-rule:nonzero"
         inkscape:connector-curvature="0" />
      <path
         class="fil0"
         d="m -10275.645,-2013.2317 v 0 c -2,3 -27,30 -72,55 -45,26 -111,51 -197,51 -2,0 -4,1 -6,2 -1,1 -2,4 -2,6 0,155 17,374 17,375 v 1 c 0,0 6,21 17,46 11,25 28,54 51,71 11,8 29,18 49,30 30,18 67,39 96,59 14,10 27,20 35,29 4,4 7,9 9,12 2,4 3,7 3,9 0,4 4,8 8,8 4,0 8,-4 8,-8 0,-8 -3,-15 -8,-22 -8,-12 -22,-24 -39,-36 -25,-18 -56,-37 -84,-53 -28,-17 -54,-31 -67,-41 -19,-14 -35,-41 -46,-65 -5,-12 -9,-23 -12,-31 -1,-4 -2,-7 -3,-9 l -1,-3 v -1 l -8,2 8,-1 c 0,0 -1,-14 -3,-37 -5,-69 -14,-221 -14,-337 h -8 v 8 c 92,0 162,-28 209,-56 47,-28 72,-56 72,-56 3,-3 3,-8 -1,-11 -3,-3 -8,-3 -11,1 z"
         id="path847"
         style="fill:url(#linearGradient6881);fill-opacity:1;fill-rule:nonzero"
         inkscape:connector-curvature="0" />
      <path
         class="fil0"
         d="m -10009.645,-1612.2317 c -2,26 -3,48 -4,63 -1,15 -2,24 -2,24 l 8,1 -8,-2 v 1 c -1,4 -7,25 -18,47 -11,23 -26,47 -44,60 -10,7 -27,18 -47,29 -30,18 -66,38 -96,59 -15,10 -27,21 -37,31 -5,5 -9,10 -12,15 -3,5 -5,11 -5,16 0,4 4,8 8,8 4,0 8,-4 8,-8 0,-3 1,-7 5,-13 6,-9 19,-21 35,-32 23,-17 54,-36 82,-52 28,-16 53,-31 68,-41 23,-17 39,-46 51,-71 11,-25 17,-46 17,-46 v -1 c 0,0 3,-35 6,-87 0,-4 -3,-8 -7,-8 -4,0 -8,3 -8,7 z"
         id="path849"
         style="fill:url(#linearGradient6883);fill-opacity:1;fill-rule:nonzero"
         inkscape:connector-curvature="0" />
      <path
         class="fil0"
         d="m -10003.645,-1723.2317 c -1,15 -1,30 -2,44 0,4 3,8 7,8 4,0 8,-3 8,-7 1,-14 2,-29 2,-44 0,-4 -3,-8 -8,-8 -4,0 -8,3 -8,7 z"
         id="path851"
         style="fill:url(#linearGradient6885);fill-opacity:1;fill-rule:nonzero"
         inkscape:connector-curvature="0" />
      <path
         class="fil0"
         d="m -10272.645,-2003.2317 c 0,0 25,28 72,56 47,28 118,56 209,56 v -8 h -8 c 0,41 -1,86 -3,130 0,4 3,8 8,8 4,0 8,-3 8,-8 2,-45 3,-90 3,-131 0,-2 -1,-4 -2,-6 -1,-1 -3,-2 -6,-2 -88,0 -156,-27 -201,-54 -23,-13 -40,-27 -51,-37 -6,-5 -10,-9 -13,-12 -1,-1 -2,-3 -3,-3 l -1,-1 v 0 c -3,-3 -8,-4 -11,-1 -3,3 -4,8 -1,11 z"
         id="path853"
         style="fill:url(#linearGradient6887);fill-opacity:1;fill-rule:nonzero"
         inkscape:connector-curvature="0" />
    </g>
  </g>
</svg>
