<?xml version="1.0" encoding="UTF-8" standalone="no"?>
<!-- Created with Inkscape (http://www.inkscape.org/) -->

<svg
   xmlns:osb="http://www.openswatchbook.org/uri/2009/osb"
   xmlns:dc="http://purl.org/dc/elements/1.1/"
   xmlns:cc="http://creativecommons.org/ns#"
   xmlns:rdf="http://www.w3.org/1999/02/22-rdf-syntax-ns#"
   xmlns:svg="http://www.w3.org/2000/svg"
   xmlns="http://www.w3.org/2000/svg"
   xmlns:xlink="http://www.w3.org/1999/xlink"
   xmlns:sodipodi="http://sodipodi.sourceforge.net/DTD/sodipodi-0.dtd"
   xmlns:inkscape="http://www.inkscape.org/namespaces/inkscape"
   width="210mm"
   height="297mm"
   viewBox="0 0 210 297"
   version="1.1"
   id="svg8"
   inkscape:version="0.92.4 (5da689c313, 2019-01-14)"
   sodipodi:docname="10.svg">
  <defs
     id="defs2">
    <linearGradient
       id="linearGradient3541"
       osb:paint="solid">
      <stop
         style="stop-color:#000000;stop-opacity:1;"
         offset="0"
         id="stop3539" />
    </linearGradient>
    <linearGradient
       inkscape:collect="always"
       xlink:href="#linearGradient3541"
       id="linearGradient4559"
       gradientUnits="userSpaceOnUse"
       x1="-1"
       y1="5917.5"
       x2="11984"
       y2="5917.5"
       gradientTransform="translate(-12612.645,-2196.2317)" />
    <linearGradient
       inkscape:collect="always"
       xlink:href="#linearGradient3541"
       id="linearGradient5794"
       gradientUnits="userSpaceOnUse"
       gradientTransform="translate(-12612.645,-2196.2317)"
       x1="-1"
       y1="5917.5"
       x2="11984"
       y2="5917.5" />
    <linearGradient
       inkscape:collect="always"
       xlink:href="#linearGradient3541"
       id="linearGradient5796"
       gradientUnits="userSpaceOnUse"
       gradientTransform="translate(-12612.645,-2196.2317)"
       x1="-1"
       y1="5917.5"
       x2="11984"
       y2="5917.5" />
    <linearGradient
       inkscape:collect="always"
       xlink:href="#linearGradient3541"
       id="linearGradient5798"
       gradientUnits="userSpaceOnUse"
       gradientTransform="translate(-12612.645,-2196.2317)"
       x1="-1"
       y1="5917.5"
       x2="11984"
       y2="5917.5" />
    <linearGradient
       inkscape:collect="always"
       xlink:href="#linearGradient3541"
       id="linearGradient5800"
       gradientUnits="userSpaceOnUse"
       gradientTransform="translate(-12612.645,-2196.2317)"
       x1="-1"
       y1="5917.5"
       x2="11984"
       y2="5917.5" />
    <linearGradient
       inkscape:collect="always"
       xlink:href="#linearGradient3541"
       id="linearGradient5802"
       gradientUnits="userSpaceOnUse"
       gradientTransform="translate(-12612.645,-2196.2317)"
       x1="-1"
       y1="5917.5"
       x2="11984"
       y2="5917.5" />
    <linearGradient
       inkscape:collect="always"
       xlink:href="#linearGradient3541"
       id="linearGradient5804"
       gradientUnits="userSpaceOnUse"
       gradientTransform="translate(-12612.645,-2196.2317)"
       x1="-1"
       y1="5917.5"
       x2="11984"
       y2="5917.5" />
    <linearGradient
       inkscape:collect="always"
       xlink:href="#linearGradient3541"
       id="linearGradient5806"
       gradientUnits="userSpaceOnUse"
       gradientTransform="translate(-12612.645,-2196.2317)"
       x1="-1"
       y1="5917.5"
       x2="11984"
       y2="5917.5" />
    <linearGradient
       inkscape:collect="always"
       xlink:href="#linearGradient3541"
       id="linearGradient5808"
       gradientUnits="userSpaceOnUse"
       gradientTransform="translate(-12612.645,-2196.2317)"
       x1="-1"
       y1="5917.5"
       x2="11984"
       y2="5917.5" />
    <linearGradient
       inkscape:collect="always"
       xlink:href="#linearGradient3541"
       id="linearGradient5810"
       gradientUnits="userSpaceOnUse"
       gradientTransform="translate(-12612.645,-2196.2317)"
       x1="-1"
       y1="5917.5"
       x2="11984"
       y2="5917.5" />
    <linearGradient
       inkscape:collect="always"
       xlink:href="#linearGradient3541"
       id="linearGradient5812"
       gradientUnits="userSpaceOnUse"
       gradientTransform="translate(-12612.645,-2196.2317)"
       x1="-1"
       y1="5917.5"
       x2="11984"
       y2="5917.5" />
    <linearGradient
       inkscape:collect="always"
       xlink:href="#linearGradient3541"
       id="linearGradient5814"
       gradientUnits="userSpaceOnUse"
       gradientTransform="translate(-12612.645,-2196.2317)"
       x1="-1"
       y1="5917.5"
       x2="11984"
       y2="5917.5" />
    <linearGradient
       inkscape:collect="always"
       xlink:href="#linearGradient3541"
       id="linearGradient5816"
       gradientUnits="userSpaceOnUse"
       gradientTransform="translate(-12612.645,-2196.2317)"
       x1="-1"
       y1="5917.5"
       x2="11984"
       y2="5917.5" />
    <linearGradient
       inkscape:collect="always"
       xlink:href="#linearGradient3541"
       id="linearGradient5818"
       gradientUnits="userSpaceOnUse"
       gradientTransform="translate(-12612.645,-2196.2317)"
       x1="-1"
       y1="5917.5"
       x2="11984"
       y2="5917.5" />
    <linearGradient
       inkscape:collect="always"
       xlink:href="#linearGradient3541"
       id="linearGradient5820"
       gradientUnits="userSpaceOnUse"
       gradientTransform="translate(-12612.645,-2196.2317)"
       x1="-1"
       y1="5917.5"
       x2="11984"
       y2="5917.5" />
    <linearGradient
       inkscape:collect="always"
       xlink:href="#linearGradient3541"
       id="linearGradient5822"
       gradientUnits="userSpaceOnUse"
       gradientTransform="translate(-12612.645,-2196.2317)"
       x1="-1"
       y1="5917.5"
       x2="11984"
       y2="5917.5" />
    <linearGradient
       inkscape:collect="always"
       xlink:href="#linearGradient3541"
       id="linearGradient5824"
       gradientUnits="userSpaceOnUse"
       gradientTransform="translate(-12612.645,-2196.2317)"
       x1="-1"
       y1="5917.5"
       x2="11984"
       y2="5917.5" />
    <linearGradient
       inkscape:collect="always"
       xlink:href="#linearGradient3541"
       id="linearGradient5826"
       gradientUnits="userSpaceOnUse"
       gradientTransform="translate(-12612.645,-2196.2317)"
       x1="-1"
       y1="5917.5"
       x2="11984"
       y2="5917.5" />
    <linearGradient
       inkscape:collect="always"
       xlink:href="#linearGradient3541"
       id="linearGradient5828"
       gradientUnits="userSpaceOnUse"
       gradientTransform="translate(-12612.645,-2196.2317)"
       x1="-1"
       y1="5917.5"
       x2="11984"
       y2="5917.5" />
    <linearGradient
       inkscape:collect="always"
       xlink:href="#linearGradient3541"
       id="linearGradient5830"
       gradientUnits="userSpaceOnUse"
       gradientTransform="translate(-12612.645,-2196.2317)"
       x1="-1"
       y1="5917.5"
       x2="11984"
       y2="5917.5" />
    <linearGradient
       inkscape:collect="always"
       xlink:href="#linearGradient3541"
       id="linearGradient5832"
       gradientUnits="userSpaceOnUse"
       gradientTransform="translate(-12612.645,-2196.2317)"
       x1="-1"
       y1="5917.5"
       x2="11984"
       y2="5917.5" />
    <linearGradient
       inkscape:collect="always"
       xlink:href="#linearGradient3541"
       id="linearGradient5834"
       gradientUnits="userSpaceOnUse"
       gradientTransform="translate(-12612.645,-2196.2317)"
       x1="-1"
       y1="5917.5"
       x2="11984"
       y2="5917.5" />
    <linearGradient
       inkscape:collect="always"
       xlink:href="#linearGradient3541"
       id="linearGradient5836"
       gradientUnits="userSpaceOnUse"
       gradientTransform="translate(-12612.645,-2196.2317)"
       x1="-1"
       y1="5917.5"
       x2="11984"
       y2="5917.5" />
    <linearGradient
       inkscape:collect="always"
       xlink:href="#linearGradient3541"
       id="linearGradient5838"
       gradientUnits="userSpaceOnUse"
       gradientTransform="translate(-12612.645,-2196.2317)"
       x1="-1"
       y1="5917.5"
       x2="11984"
       y2="5917.5" />
    <linearGradient
       inkscape:collect="always"
       xlink:href="#linearGradient3541"
       id="linearGradient5840"
       gradientUnits="userSpaceOnUse"
       gradientTransform="translate(-12612.645,-2196.2317)"
       x1="-1"
       y1="5917.5"
       x2="11984"
       y2="5917.5" />
    <linearGradient
       inkscape:collect="always"
       xlink:href="#linearGradient3541"
       id="linearGradient5842"
       gradientUnits="userSpaceOnUse"
       gradientTransform="translate(-12612.645,-2196.2317)"
       x1="-1"
       y1="5917.5"
       x2="11984"
       y2="5917.5" />
    <linearGradient
       inkscape:collect="always"
       xlink:href="#linearGradient3541"
       id="linearGradient5844"
       gradientUnits="userSpaceOnUse"
       gradientTransform="translate(-12612.645,-2196.2317)"
       x1="-1"
       y1="5917.5"
       x2="11984"
       y2="5917.5" />
    <linearGradient
       inkscape:collect="always"
       xlink:href="#linearGradient3541"
       id="linearGradient5846"
       gradientUnits="userSpaceOnUse"
       gradientTransform="translate(-12612.645,-2196.2317)"
       x1="-1"
       y1="5917.5"
       x2="11984"
       y2="5917.5" />
    <linearGradient
       inkscape:collect="always"
       xlink:href="#linearGradient3541"
       id="linearGradient5848"
       gradientUnits="userSpaceOnUse"
       gradientTransform="translate(-12612.645,-2196.2317)"
       x1="-1"
       y1="5917.5"
       x2="11984"
       y2="5917.5" />
    <linearGradient
       inkscape:collect="always"
       xlink:href="#linearGradient3541"
       id="linearGradient5850"
       gradientUnits="userSpaceOnUse"
       gradientTransform="translate(-12612.645,-2196.2317)"
       x1="-1"
       y1="5917.5"
       x2="11984"
       y2="5917.5" />
    <linearGradient
       inkscape:collect="always"
       xlink:href="#linearGradient3541"
       id="linearGradient5852"
       gradientUnits="userSpaceOnUse"
       gradientTransform="translate(-12612.645,-2196.2317)"
       x1="-1"
       y1="5917.5"
       x2="11984"
       y2="5917.5" />
    <linearGradient
       inkscape:collect="always"
       xlink:href="#linearGradient3541"
       id="linearGradient5854"
       gradientUnits="userSpaceOnUse"
       gradientTransform="translate(-12612.645,-2196.2317)"
       x1="-1"
       y1="5917.5"
       x2="11984"
       y2="5917.5" />
    <linearGradient
       inkscape:collect="always"
       xlink:href="#linearGradient3541"
       id="linearGradient5856"
       gradientUnits="userSpaceOnUse"
       gradientTransform="translate(-12612.645,-2196.2317)"
       x1="-1"
       y1="5917.5"
       x2="11984"
       y2="5917.5" />
    <linearGradient
       inkscape:collect="always"
       xlink:href="#linearGradient3541"
       id="linearGradient5858"
       gradientUnits="userSpaceOnUse"
       gradientTransform="translate(-12612.645,-2196.2317)"
       x1="-1"
       y1="5917.5"
       x2="11984"
       y2="5917.5" />
    <linearGradient
       inkscape:collect="always"
       xlink:href="#linearGradient3541"
       id="linearGradient5860"
       gradientUnits="userSpaceOnUse"
       gradientTransform="translate(-12612.645,-2196.2317)"
       x1="-1"
       y1="5917.5"
       x2="11984"
       y2="5917.5" />
    <linearGradient
       inkscape:collect="always"
       xlink:href="#linearGradient3541"
       id="linearGradient5862"
       gradientUnits="userSpaceOnUse"
       gradientTransform="translate(-12612.645,-2196.2317)"
       x1="-1"
       y1="5917.5"
       x2="11984"
       y2="5917.5" />
    <linearGradient
       inkscape:collect="always"
       xlink:href="#linearGradient3541"
       id="linearGradient5864"
       gradientUnits="userSpaceOnUse"
       gradientTransform="translate(-12612.645,-2196.2317)"
       x1="-1"
       y1="5917.5"
       x2="11984"
       y2="5917.5" />
    <linearGradient
       inkscape:collect="always"
       xlink:href="#linearGradient3541"
       id="linearGradient5866"
       gradientUnits="userSpaceOnUse"
       gradientTransform="translate(-12612.645,-2196.2317)"
       x1="-1"
       y1="5917.5"
       x2="11984"
       y2="5917.5" />
    <linearGradient
       inkscape:collect="always"
       xlink:href="#linearGradient3541"
       id="linearGradient5868"
       gradientUnits="userSpaceOnUse"
       gradientTransform="translate(-12612.645,-2196.2317)"
       x1="-1"
       y1="5917.5"
       x2="11984"
       y2="5917.5" />
    <linearGradient
       inkscape:collect="always"
       xlink:href="#linearGradient3541"
       id="linearGradient5870"
       gradientUnits="userSpaceOnUse"
       gradientTransform="translate(-12612.645,-2196.2317)"
       x1="-1"
       y1="5917.5"
       x2="11984"
       y2="5917.5" />
    <linearGradient
       inkscape:collect="always"
       xlink:href="#linearGradient3541"
       id="linearGradient5872"
       gradientUnits="userSpaceOnUse"
       gradientTransform="translate(-12612.645,-2196.2317)"
       x1="-1"
       y1="5917.5"
       x2="11984"
       y2="5917.5" />
    <linearGradient
       inkscape:collect="always"
       xlink:href="#linearGradient3541"
       id="linearGradient5874"
       gradientUnits="userSpaceOnUse"
       gradientTransform="translate(-12612.645,-2196.2317)"
       x1="-1"
       y1="5917.5"
       x2="11984"
       y2="5917.5" />
    <linearGradient
       inkscape:collect="always"
       xlink:href="#linearGradient3541"
       id="linearGradient5876"
       gradientUnits="userSpaceOnUse"
       gradientTransform="translate(-12612.645,-2196.2317)"
       x1="-1"
       y1="5917.5"
       x2="11984"
       y2="5917.5" />
    <linearGradient
       inkscape:collect="always"
       xlink:href="#linearGradient3541"
       id="linearGradient5878"
       gradientUnits="userSpaceOnUse"
       gradientTransform="translate(-12612.645,-2196.2317)"
       x1="-1"
       y1="5917.5"
       x2="11984"
       y2="5917.5" />
    <linearGradient
       inkscape:collect="always"
       xlink:href="#linearGradient3541"
       id="linearGradient5880"
       gradientUnits="userSpaceOnUse"
       gradientTransform="translate(-12612.645,-2196.2317)"
       x1="-1"
       y1="5917.5"
       x2="11984"
       y2="5917.5" />
    <linearGradient
       inkscape:collect="always"
       xlink:href="#linearGradient3541"
       id="linearGradient5882"
       gradientUnits="userSpaceOnUse"
       gradientTransform="translate(-12612.645,-2196.2317)"
       x1="-1"
       y1="5917.5"
       x2="11984"
       y2="5917.5" />
    <linearGradient
       inkscape:collect="always"
       xlink:href="#linearGradient3541"
       id="linearGradient5884"
       gradientUnits="userSpaceOnUse"
       gradientTransform="translate(-12612.645,-2196.2317)"
       x1="-1"
       y1="5917.5"
       x2="11984"
       y2="5917.5" />
  </defs>
  <sodipodi:namedview
     id="base"
     pagecolor="#ffffff"
     bordercolor="#666666"
     borderopacity="1.0"
     inkscape:pageopacity="0.0"
     inkscape:pageshadow="2"
     inkscape:zoom="0.35"
     inkscape:cx="400"
     inkscape:cy="560"
     inkscape:document-units="mm"
     inkscape:current-layer="layer1"
     showgrid="false"
     inkscape:window-width="958"
     inkscape:window-height="991"
     inkscape:window-x="952"
     inkscape:window-y="0"
     inkscape:window-maximized="0" />
  <metadata
     id="metadata5">
    <rdf:RDF>
      <cc:Work
         rdf:about="">
        <dc:format>image/svg+xml</dc:format>
        <dc:type
           rdf:resource="http://purl.org/dc/dcmitype/StillImage" />
        <dc:title></dc:title>
      </cc:Work>
    </rdf:RDF>
  </metadata>
  <g
     inkscape:label="Capa 1"
     inkscape:groupmode="layer"
     id="layer1">
    <g
       transform="matrix(0.18154367,0,0,0.18154367,640.23344,-1545.2329)"
       style="clip-rule:evenodd;fill-rule:evenodd;image-rendering:optimizeQuality;shape-rendering:geometricPrecision;text-rendering:geometricPrecision"
       id="g6191">
      <path
         class="fil0"
         d="m -2649.645,8596.7683 c 0,-19 -7,-36 -19,-50 -12,-13 -29,-23 -48,-23 -7,0 -13,6 -13,13 0,7 6,13 13,13 11,0 21,5 28,14 8,9 13,21 13,32 0,7 6,13 13,13 7,0 13,-6 13,-13 z"
         id="path997"
         style="fill:url(#linearGradient5794);fill-opacity:1;fill-rule:nonzero"
         inkscape:connector-curvature="0" />
      <path
         class="fil0"
         d="m -3204.645,8596.7683 c 0,-19 -7,-36 -19,-50 -12,-13 -29,-23 -48,-23 -19,0 -37,9 -48,23 -12,13 -19,31 -19,50 0,4 1,7 4,9 3,3 6,4 10,4 h 74 c 7,0 13,-6 13,-13 0,-7 -6,-13 -13,-13 h -74 v 13 h 13 c 0,-11 5,-23 13,-32 8,-9 18,-14 28,-14 11,0 21,5 28,14 8,9 13,21 12,32 0,7 6,13 13,13 7,0 13,-6 13,-13 z"
         id="path999"
         style="fill:url(#linearGradient5796);fill-opacity:1;fill-rule:nonzero"
         inkscape:connector-curvature="0" />
      <path
         class="fil0"
         d="m -2649.645,8901.7683 v -306 c 0,-7 -6,-13 -13,-13 -7,0 -13,6 -13,13 v 306 c 0,7 6,13 13,13 7,0 13,-6 13,-13 z"
         id="path1001"
         style="fill:url(#linearGradient5798);fill-opacity:1;fill-rule:nonzero"
         inkscape:connector-curvature="0" />
      <path
         class="fil0"
         d="m -2649.645,9241.7683 v -359 c 0,-7 -6,-13 -13,-13 -7,0 -13,6 -13,13 v 359 c 0,7 6,13 13,13 7,0 13,-6 13,-13 z"
         id="path1003"
         style="fill:url(#linearGradient5800);fill-opacity:1;fill-rule:nonzero"
         inkscape:connector-curvature="0" />
      <path
         class="fil0"
         d="m -3231.645,8595.7683 v 656 c 0,7 6,13 13,13 7,0 13,-6 13,-13 v -656 c 0,-7 -6,-13 -13,-13 -7,0 -13,6 -13,13 z"
         id="path1005"
         style="fill:url(#linearGradient5802);fill-opacity:1;fill-rule:nonzero"
         inkscape:connector-curvature="0" />
      <path
         class="fil0"
         d="m -2717.645,8524.7683 h -558 c -7,0 -13,6 -13,13 0,7 6,13 13,13 h 558 c 7,0 13,-6 13,-13 0,-7 -6,-13 -13,-13 z"
         id="path1007"
         style="fill:url(#linearGradient5804);fill-opacity:1;fill-rule:nonzero"
         inkscape:connector-curvature="0" />
      <path
         class="fil0"
         d="m -2608.645,9318.7683 c 19,0 37,-9 48,-23 12,-13 19,-31 19,-50 0,-4 -1,-7 -4,-9 -2,-2 -6,-4 -9,-4 h -553 c -7,0 -13,6 -13,13 0,7 6,13 13,13 h 553 v -13 h -13 c 0,11 -5,23 -13,32 -8,9 -18,14 -28,14 -7,0 -13,6 -13,13 0,7 6,13 13,13 z"
         id="path1009"
         style="fill:url(#linearGradient5806);fill-opacity:1;fill-rule:nonzero"
         inkscape:connector-curvature="0" />
      <path
         class="fil0"
         d="m -3231.645,9246.7683 c 0,19 7,36 19,50 12,13 29,23 48,23 19,0 37,-9 48,-23 12,-13 19,-31 19,-50 0,-7 -6,-13 -13,-13 -7,0 -13,6 -13,13 0,11 -5,23 -13,32 -8,9 -18,14 -28,14 -11,0 -21,-5 -28,-14 -8,-9 -13,-21 -13,-32 0,-7 -6,-13 -13,-13 -7,0 -13,6 -13,13 z"
         id="path1011"
         style="fill:url(#linearGradient5808);fill-opacity:1;fill-rule:nonzero"
         inkscape:connector-curvature="0" />
      <path
         class="fil0"
         d="m -3163.645,9318.7683 h 558 c 7,0 13,-6 13,-13 0,-7 -6,-13 -13,-13 h -558 c -7,0 -13,6 -13,13 0,7 6,13 13,13 z"
         id="path1013"
         style="fill:url(#linearGradient5810);fill-opacity:1;fill-rule:nonzero"
         inkscape:connector-curvature="0" />
      <path
         class="fil0"
         d="m -3144.645,9063.7683 h -13 c 0,34 27,61 61,61 34,0 61,-27 61,-61 0,-34 -27,-61 -61,-61 -34,0 -61,27 -61,61 h 27 c 0,-9 4,-18 10,-24 6,-6 15,-10 24,-10 9,0 18,4 24,10 6,6 10,15 10,24 0,9 -4,18 -10,24 -6,6 -15,10 -24,10 -9,0 -18,-4 -24,-10 -6,-6 -10,-15 -10,-24 h -13 z"
         id="path1015"
         style="fill:url(#linearGradient5812);fill-opacity:1;fill-rule:nonzero"
         inkscape:connector-curvature="0" />
      <path
         class="fil0"
         d="m -3081.645,9102.7683 v 62 l -11,-4 c -7,-3 -15,1 -17,7 -3,7 0,15 7,17 l 29,12 c 4,2 9,1 13,-1 4,-2 6,-7 6,-11 v -82 c 0,-7 -6,-13 -13,-13 -7,0 -13,6 -13,13 z"
         id="path1017"
         style="fill:url(#linearGradient5814);fill-opacity:1;fill-rule:nonzero"
         inkscape:connector-curvature="0" />
      <path
         class="fil0"
         d="m -3139.645,9102.7683 v 82 c 0,5 2,9 6,11 4,3 8,3 13,1 l 29,-12 c 7,-3 10,-11 7,-17 -3,-7 -11,-10 -17,-7 l -11,4 v -62 c 0,-7 -6,-13 -13,-13 -7,0 -13,6 -13,13 z"
         id="path1019"
         style="fill:url(#linearGradient5816);fill-opacity:1;fill-rule:nonzero"
         inkscape:connector-curvature="0" />
      <path
         class="fil0"
         d="m -2945.645,8623.7683 h -190 c -7,0 -13,6 -13,13 0,7 6,13 13,13 h 190 c 7,0 13,-6 13,-13 0,-7 -6,-13 -13,-13 z"
         id="path1021"
         style="fill:url(#linearGradient5818);fill-opacity:1;fill-rule:nonzero"
         inkscape:connector-curvature="0" />
      <path
         class="fil0"
         d="m -2945.645,8673.7683 h -190 c -7,0 -13,6 -13,13 0,7 6,13 13,13 h 190 c 7,0 13,-6 13,-13 0,-7 -6,-13 -13,-13 z"
         id="path1023"
         style="fill:url(#linearGradient5820);fill-opacity:1;fill-rule:nonzero"
         inkscape:connector-curvature="0" />
      <path
         class="fil0"
         d="m -2760.645,8737.7683 h -374 c -7,0 -13,6 -13,13 0,7 6,13 13,13 h 374 c 7,0 13,-6 13,-13 0,-7 -6,-13 -13,-13 z"
         id="path1025"
         style="fill:url(#linearGradient5822);fill-opacity:1;fill-rule:nonzero"
         inkscape:connector-curvature="0" />
      <path
         class="fil0"
         d="m -2759.645,8810.7683 h -375 c -7,0 -13,6 -13,13 0,7 6,13 13,13 h 375 c 7,0 13,-6 13,-13 0,-7 -6,-13 -13,-13 z"
         id="path1027"
         style="fill:url(#linearGradient5824);fill-opacity:1;fill-rule:nonzero"
         inkscape:connector-curvature="0" />
      <path
         class="fil0"
         d="m -2760.645,8884.7683 h -374 c -7,0 -13,6 -13,13 0,7 6,13 13,13 h 374 c 7,0 13,-6 13,-13 0,-7 -6,-13 -13,-13 z"
         id="path1029"
         style="fill:url(#linearGradient5826);fill-opacity:1;fill-rule:nonzero"
         inkscape:connector-curvature="0" />
      <path
         class="fil0"
         d="m -2759.645,8958.7683 h -260 c -7,0 -13,6 -13,13 0,7 6,13 13,13 h 260 c 7,0 13,-6 13,-13 0,-7 -6,-13 -13,-13 z"
         id="path1031"
         style="fill:url(#linearGradient5828);fill-opacity:1;fill-rule:nonzero"
         inkscape:connector-curvature="0" />
      <path
         class="fil0"
         d="m -2760.645,9031.7683 h -209 c -7,0 -13,6 -13,13 0,7 6,13 13,13 h 209 c 7,0 13,-6 13,-13 0,-7 -6,-13 -13,-13 z"
         id="path1033"
         style="fill:url(#linearGradient5830);fill-opacity:1;fill-rule:nonzero"
         inkscape:connector-curvature="0" />
      <path
         class="fil0"
         d="m -2760.645,9105.7683 h -209 c -7,0 -13,6 -13,13 0,7 6,13 13,13 h 209 c 7,0 13,-6 13,-13 0,-7 -6,-13 -13,-13 z"
         id="path1035"
         style="fill:url(#linearGradient5832);fill-opacity:1;fill-rule:nonzero"
         inkscape:connector-curvature="0" />
      <path
         class="fil0"
         d="m -2571.645,8707.7683 c -1,1 -13,12 -26,32 -13,20 -26,48 -26,83 0,29 10,63 37,95 6,7 15,8 22,2 7,-6 8,-15 2,-22 -23,-28 -30,-53 -30,-75 0,-26 10,-49 21,-66 5,-8 11,-15 15,-19 2,-2 4,-4 5,-5 l 1,-1 v 0 0 c 6,-6 7,-16 1,-22 -6,-6 -16,-7 -22,-1 z"
         id="path1037"
         style="fill:url(#linearGradient5834);fill-opacity:1;fill-rule:nonzero"
         inkscape:connector-curvature="0" />
      <path
         class="fil0"
         d="m -2562.645,8729.7683 1,-1 -1,1 v 0 l 1,-1 -1,1 c 0,1 7,10 14,24 7,14 13,34 13,55 0,14 -3,28 -9,42 -7,15 -18,30 -35,45 -7,6 -7,16 -2,22 6,7 16,7 22,2 21,-18 35,-37 44,-56 9,-19 12,-38 12,-56 0,-28 -8,-52 -16,-70 -8,-17 -16,-28 -17,-29 -5,-7 -15,-8 -22,-3 -7,5 -8,15 -3,22 z"
         id="path1039"
         style="fill:url(#linearGradient5836);fill-opacity:1;fill-rule:nonzero"
         inkscape:connector-curvature="0" />
      <path
         class="fil0"
         d="m -2459.645,8851.7683 c -1,1 -23,10 -46,32 -11,11 -23,24 -32,42 -9,17 -15,38 -15,61 0,19 4,39 12,60 3,8 12,12 20,9 8,-3 12,-12 9,-20 -7,-19 -10,-35 -10,-49 0,-18 4,-33 11,-47 10,-20 26,-35 39,-45 7,-5 13,-9 17,-11 2,-1 4,-2 5,-3 l 1,-1 v 0 -1 1 0 -1 1 c 8,-4 12,-13 8,-21 -4,-8 -13,-12 -21,-8 v 0 z"
         id="path1041"
         style="fill:url(#linearGradient5838);fill-opacity:1;fill-rule:nonzero"
         inkscape:connector-curvature="0" />
      <path
         class="fil0"
         d="m -2457.645,8875.7683 6,-2 -6,2 v 0 l 6,-2 -6,2 c 0,0 7,20 7,44 0,18 -3,39 -14,58 -11,19 -29,37 -62,50 -8,3 -12,12 -9,21 3,8 12,12 21,9 38,-15 63,-39 77,-64 14,-25 18,-51 18,-73 0,-31 -8,-54 -8,-55 -3,-8 -12,-13 -20,-10 -8,3 -13,12 -10,20 z"
         id="path1043"
         style="fill:url(#linearGradient5840);fill-opacity:1;fill-rule:nonzero"
         inkscape:connector-curvature="0" />
      <path
         class="fil0"
         d="m -2387.645,9043.7683 c 0,0 -4,0 -10,0 -16,0 -49,2 -82,20 -16,9 -33,22 -46,40 -13,18 -23,42 -27,71 -1,9 5,17 13,18 9,1 17,-5 18,-13 4,-25 11,-44 21,-58 15,-21 35,-32 55,-39 19,-6 38,-8 48,-8 2,0 4,0 6,0 h 1 v 0 -1 1 0 -1 1 c 9,1 16,-6 17,-14 1,-9 -6,-16 -14,-17 z"
         id="path1045"
         style="fill:url(#linearGradient5842);fill-opacity:1;fill-rule:nonzero"
         inkscape:connector-curvature="0" />
      <path
         class="fil0"
         d="m -2397.645,9065.7683 5,1 -5,-1 v 0 l 5,1 -5,-1 c 0,0 -5,27 -22,52 -8,13 -20,25 -35,34 -15,9 -33,15 -58,15 -6,0 -13,0 -20,-1 -9,-1 -17,5 -18,14 -1,9 5,16 14,18 8,1 16,2 24,2 30,0 55,-8 75,-20 30,-18 47,-45 57,-67 10,-22 13,-39 13,-40 1,-9 -4,-17 -13,-18 -9,-1 -17,4 -18,13 v 0 z"
         id="path1047"
         style="fill:url(#linearGradient5844);fill-opacity:1;fill-rule:nonzero"
         inkscape:connector-curvature="0" />
      <path
         class="fil0"
         d="m -2462.645,9408.7683 c -1,-1 -12,-15 -33,-30 -20,-15 -50,-30 -87,-30 -27,0 -58,9 -88,31 -7,5 -9,15 -4,22 5,7 15,9 22,4 26,-19 50,-25 70,-25 28,0 52,12 69,24 9,6 15,13 20,17 2,2 4,4 5,5 l 1,1 v 0 0 c 5,7 15,8 22,3 7,-5 8,-15 3,-22 z"
         id="path1049"
         style="fill:url(#linearGradient5846);fill-opacity:1;fill-rule:nonzero"
         inkscape:connector-curvature="0" />
      <path
         class="fil0"
         d="m -2484.645,9415.7683 1,2 -1,-2 v 0 l 1,2 -1,-2 c 0,0 -9,6 -22,11 -13,5 -31,10 -51,10 -15,0 -30,-3 -45,-10 -15,-8 -31,-20 -46,-41 -5,-7 -15,-9 -22,-3 -7,5 -9,15 -3,22 18,24 37,40 58,50 20,10 41,14 59,14 26,0 48,-7 64,-13 16,-7 26,-13 27,-13 7,-5 9,-15 4,-22 -5,-7 -15,-9 -22,-4 z"
         id="path1051"
         style="fill:url(#linearGradient5848);fill-opacity:1;fill-rule:nonzero"
         inkscape:connector-curvature="0" />
      <path
         class="fil0"
         d="m -2585.645,9534.7683 c 0,-1 -10,-23 -32,-45 -11,-11 -24,-23 -41,-31 -17,-9 -37,-14 -60,-14 -19,0 -40,4 -62,13 -8,3 -12,12 -9,20 3,8 12,12 20,9 19,-8 36,-11 50,-11 18,0 33,4 46,11 20,10 35,25 45,39 5,7 9,12 11,17 1,2 2,4 3,5 l 1,1 v 0 h 1 -1 v 0 h 1 -1 c 4,8 13,11 21,8 8,-4 11,-13 8,-21 z"
         id="path1053"
         style="fill:url(#linearGradient5850);fill-opacity:1;fill-rule:nonzero"
         inkscape:connector-curvature="0" />
      <path
         class="fil0"
         d="m -2609.645,9535.7683 2,5 -2,-5 v 0 l 2,5 -2,-5 c 0,0 -20,7 -46,7 -18,0 -38,-3 -57,-14 -19,-11 -37,-29 -50,-60 -3,-8 -13,-12 -21,-8 -8,3 -12,13 -8,21 16,37 39,62 64,76 25,14 51,18 73,18 32,0 56,-9 57,-9 8,-3 12,-12 9,-20 -3,-8 -12,-12 -20,-9 z"
         id="path1055"
         style="fill:url(#linearGradient5852);fill-opacity:1;fill-rule:nonzero"
         inkscape:connector-curvature="0" />
      <path
         class="fil0"
         d="m -2749.645,9624.7683 c 0,-1 -4,-33 -24,-66 -10,-17 -25,-34 -45,-46 -20,-13 -47,-21 -79,-21 -5,0 -10,0 -15,1 -9,1 -15,8 -15,17 1,9 8,15 17,15 4,0 8,0 12,0 27,0 47,7 62,16 23,14 37,37 45,56 4,10 6,18 8,24 1,3 1,6 1,7 v 2 0 c 1,9 9,15 18,14 9,-1 15,-9 14,-18 z"
         id="path1057"
         style="fill:url(#linearGradient5854);fill-opacity:1;fill-rule:nonzero"
         inkscape:connector-curvature="0" />
      <path
         class="fil0"
         d="m -2772.645,9619.7683 v 0 0 0 0 h -2 c -7,0 -37,-1 -65,-16 -14,-7 -27,-17 -38,-32 -11,-15 -19,-35 -21,-62 -1,-9 -8,-15 -17,-14 -9,1 -15,8 -14,17 3,32 13,58 27,78 21,30 50,45 75,53 25,8 46,9 54,9 2,0 3,0 3,0 9,0 15,-8 15,-16 0,-9 -8,-15 -16,-15 z"
         id="path1059"
         style="fill:url(#linearGradient5856);fill-opacity:1;fill-rule:nonzero"
         inkscape:connector-curvature="0" />
      <path
         class="fil0"
         d="m -3335.645,8730.7683 v 0 c 1,1 12,11 22,27 10,17 20,39 20,64 0,22 -7,47 -30,75 -6,7 -5,17 2,22 7,6 17,5 22,-2 27,-33 37,-66 37,-95 0,-34 -13,-63 -26,-83 -13,-20 -26,-31 -26,-32 -6,-6 -16,-5 -22,1 -6,6 -5,16 1,22 z"
         id="path1061"
         style="fill:url(#linearGradient5858);fill-opacity:1;fill-rule:nonzero"
         inkscape:connector-curvature="0" />
      <path
         class="fil0"
         d="m -3348.645,8710.7683 c 0,1 -9,11 -17,29 -8,17 -16,42 -17,70 0,18 3,37 12,56 9,19 23,38 44,56 7,6 17,5 22,-2 6,-7 5,-17 -2,-22 -18,-15 -29,-30 -35,-45 -7,-15 -9,-29 -9,-42 0,-22 7,-42 14,-56 3,-7 7,-13 9,-17 1,-2 2,-3 3,-4 l 1,-1 v 0 l -1,-1 1,1 v 0 l -1,-1 1,1 c 5,-7 4,-17 -3,-22 -7,-5 -17,-4 -22,3 z"
         id="path1063"
         style="fill:url(#linearGradient5860);fill-opacity:1;fill-rule:nonzero"
         inkscape:connector-curvature="0" />
      <path
         class="fil0"
         d="m -3439.645,8880.7683 2,-5 -2,5 v 0 l 2,-5 -2,5 c 0,0 20,9 38,27 9,9 18,20 25,33 7,13 11,28 11,46 0,14 -3,31 -10,49 -3,8 1,17 9,20 8,3 17,-1 20,-9 8,-22 12,-42 12,-60 0,-23 -6,-44 -15,-61 -13,-26 -33,-44 -48,-56 -16,-12 -29,-17 -29,-18 -8,-3 -17,0 -21,8 -4,8 0,17 8,21 z"
         id="path1065"
         style="fill:url(#linearGradient5862);fill-opacity:1;fill-rule:nonzero"
         inkscape:connector-curvature="0" />
      <path
         class="fil0"
         d="m -3457.645,8865.7683 c 0,1 -8,24 -8,55 0,22 4,48 18,73 14,25 39,48 77,64 8,3 17,-1 21,-9 3,-8 -1,-17 -9,-21 -33,-13 -51,-31 -62,-50 -11,-19 -14,-40 -14,-58 0,-13 2,-24 3,-32 1,-4 2,-7 2,-9 l 1,-2 v -1 0 l -6,-2 5,2 v 0 l -6,-2 5,2 c 3,-8 -1,-17 -10,-20 -8,-3 -17,1 -20,10 z"
         id="path1067"
         style="fill:url(#linearGradient5864);fill-opacity:1;fill-rule:nonzero"
         inkscape:connector-curvature="0" />
      <path
         class="fil0"
         d="m -3495.645,9075.7683 v -1 1 0 -1 1 c 0,0 3,0 7,0 13,0 42,2 67,16 13,7 25,17 35,31 10,14 18,32 21,58 1,9 9,15 18,13 9,-1 15,-9 13,-18 -4,-30 -14,-53 -27,-71 -20,-28 -46,-43 -70,-51 -24,-8 -46,-9 -58,-9 -6,0 -10,0 -10,0 -9,1 -15,8 -14,17 1,9 8,15 17,14 v 0 z"
         id="path1069"
         style="fill:url(#linearGradient5866);fill-opacity:1;fill-rule:nonzero"
         inkscape:connector-curvature="0" />
      <path
         class="fil0"
         d="m -3519.645,9070.7683 c 0,1 5,31 26,63 10,16 25,32 45,44 20,12 45,20 75,20 8,0 16,-1 24,-2 9,-1 15,-9 14,-18 -1,-9 -9,-15 -18,-14 -7,1 -14,1 -20,1 -25,0 -44,-6 -59,-15 -22,-14 -37,-35 -45,-53 -4,-9 -7,-17 -9,-23 -1,-3 -1,-5 -2,-7 v -2 0 c -1,-9 -10,-14 -18,-13 -9,1 -14,10 -13,18 v 0 z"
         id="path1071"
         style="fill:url(#linearGradient5868);fill-opacity:1;fill-rule:nonzero"
         inkscape:connector-curvature="0" />
      <path
         class="fil0"
         d="m -3473.645,9261.7683 -1,-3 1,3 v 0 l -1,-3 1,3 c 1,0 31,-17 66,-16 16,0 32,3 49,12 16,9 33,23 48,46 5,7 14,10 22,5 7,-5 10,-14 5,-22 -17,-28 -38,-46 -60,-57 -21,-11 -43,-15 -63,-15 -46,0 -80,20 -82,21 -8,4 -10,14 -6,21 4,8 14,10 21,6 z"
         id="path1073"
         style="fill:url(#linearGradient5870);fill-opacity:1;fill-rule:nonzero"
         inkscape:connector-curvature="0" />
      <path
         class="fil0"
         d="m -3496.645,9267.7683 c 1,1 12,18 33,35 11,9 23,17 39,24 15,7 33,11 53,11 25,0 52,-7 81,-25 7,-5 10,-14 5,-22 -5,-7 -14,-10 -22,-5 -25,15 -46,20 -65,20 -15,0 -28,-3 -41,-9 -18,-8 -33,-20 -43,-30 -5,-5 -9,-10 -12,-13 -1,-2 -2,-3 -3,-4 l -1,-1 v 0 l -2,1 2,-1 v 0 l -2,1 2,-1 c -5,-7 -15,-9 -22,-4 -7,5 -9,15 -4,22 z"
         id="path1075"
         style="fill:url(#linearGradient5872);fill-opacity:1;fill-rule:nonzero"
         inkscape:connector-curvature="0" />
      <path
         class="fil0"
         d="m -3398.645,9428.7683 v 0 c 1,-1 11,-14 28,-26 17,-12 40,-23 67,-23 21,0 44,6 70,25 7,5 17,3 22,-4 5,-7 3,-17 -4,-22 -31,-22 -61,-31 -88,-31 -37,0 -67,16 -87,30 -21,15 -32,30 -33,30 -5,7 -4,17 3,22 7,5 17,4 22,-3 z"
         id="path1077"
         style="fill:url(#linearGradient5874);fill-opacity:1;fill-rule:nonzero"
         inkscape:connector-curvature="0" />
      <path
         class="fil0"
         d="m -3418.645,9442.7683 c 1,0 11,7 27,13 16,6 38,13 64,13 19,0 39,-4 59,-14 20,-10 40,-26 58,-50 5,-7 4,-17 -3,-22 -7,-5 -17,-4 -22,3 -15,21 -31,33 -46,41 -15,8 -31,10 -45,10 -20,0 -39,-5 -52,-11 -7,-3 -12,-5 -16,-7 -2,-1 -3,-2 -4,-2 l -1,-1 v 0 l -1,2 1,-2 v 0 l -1,2 1,-2 c -7,-5 -17,-3 -22,4 -5,7 -3,17 4,22 z"
         id="path1079"
         style="fill:url(#linearGradient5876);fill-opacity:1;fill-rule:nonzero"
         inkscape:connector-curvature="0" />
      <path
         class="fil0"
         d="m -3271.645,9547.7683 -5,-2 5,2 v 0 l -5,-2 5,2 c 0,0 9,-19 27,-37 9,-9 20,-18 33,-24 13,-6 28,-11 46,-11 15,0 31,3 50,11 8,3 17,-1 20,-9 3,-8 -1,-17 -9,-20 -22,-9 -43,-13 -62,-13 -23,0 -43,6 -60,14 -26,13 -44,32 -55,48 -12,16 -18,28 -18,29 -4,8 0,17 8,21 8,4 17,0 21,-8 z"
         id="path1081"
         style="fill:url(#linearGradient5878);fill-opacity:1;fill-rule:nonzero"
         inkscape:connector-curvature="0" />
      <path
         class="fil0"
         d="m -3286.645,9565.7683 c 1,0 25,9 57,9 22,0 48,-4 73,-18 25,-14 48,-38 64,-76 3,-8 0,-17 -8,-21 -8,-3 -17,0 -21,8 -13,32 -31,50 -50,60 -19,11 -39,14 -57,14 -13,0 -25,-2 -33,-4 -4,-1 -7,-2 -10,-2 l -2,-1 h -1 v 0 l -2,5 2,-5 v 0 l -2,5 2,-5 c -8,-3 -17,1 -20,9 -3,8 1,17 9,20 z"
         id="path1083"
         style="fill:url(#linearGradient5880);fill-opacity:1;fill-rule:nonzero"
         inkscape:connector-curvature="0" />
      <path
         class="fil0"
         d="m -3104.645,9628.7683 -4,-1 4,1 v 0 l -4,-1 4,1 c 0,-1 4,-29 21,-55 8,-13 20,-26 35,-35 15,-9 35,-16 61,-16 4,0 8,0 12,0 9,1 16,-6 17,-15 1,-9 -6,-16 -15,-17 -5,0 -10,-1 -15,-1 -32,0 -58,8 -79,21 -31,19 -48,48 -57,71 -10,23 -12,41 -12,42 -1,9 5,17 14,18 9,1 17,-5 18,-14 z"
         id="path1085"
         style="fill:url(#linearGradient5882);fill-opacity:1;fill-rule:nonzero"
         inkscape:connector-curvature="0" />
      <path
         class="fil0"
         d="m -3114.645,9650.7683 c 0,0 1,0 3,0 10,0 44,-1 79,-19 17,-9 35,-22 49,-42 14,-20 24,-45 27,-78 1,-9 -6,-16 -14,-17 -9,-1 -16,6 -17,14 -3,28 -11,48 -21,62 -16,22 -38,34 -59,41 -20,6 -39,7 -44,7 h -1 v 0 1 -1 1 -1 c -9,0 -16,6 -16,15 0,9 6,16 15,16 z"
         id="path1087"
         style="fill:url(#linearGradient5884);fill-opacity:1;fill-rule:nonzero"
         inkscape:connector-curvature="0" />
      <path
         class="fil0"
         d="m -2393.645,9245.7683 c -7,-5 -17,-3 -22,4 v 0 0 c 0,0 -10,15 -28,28 -9,7 -19,14 -31,19 -12,5 -25,8 -40,8 -5,0 -10,0 -15,-1 -8,9 -18,18 -32,24 17,6 33,9 47,9 20,0 38,-4 53,-11 23,-10 41,-24 53,-36 12,-12 19,-22 19,-22 5,-7 3,-17 -4,-22 z"
         id="path1089"
         style="fill:url(#linearGradient4559);fill-opacity:1;fill-rule:nonzero"
         inkscape:connector-curvature="0" />
    </g>
  </g>
</svg>
