<?xml version="1.0" encoding="UTF-8" standalone="no"?>
<!-- Created with Inkscape (http://www.inkscape.org/) -->

<svg
   xmlns:osb="http://www.openswatchbook.org/uri/2009/osb"
   xmlns:dc="http://purl.org/dc/elements/1.1/"
   xmlns:cc="http://creativecommons.org/ns#"
   xmlns:rdf="http://www.w3.org/1999/02/22-rdf-syntax-ns#"
   xmlns:svg="http://www.w3.org/2000/svg"
   xmlns="http://www.w3.org/2000/svg"
   xmlns:xlink="http://www.w3.org/1999/xlink"
   xmlns:sodipodi="http://sodipodi.sourceforge.net/DTD/sodipodi-0.dtd"
   xmlns:inkscape="http://www.inkscape.org/namespaces/inkscape"
   width="210mm"
   height="297mm"
   viewBox="0 0 210 297"
   version="1.1"
   id="svg8"
   inkscape:version="0.92.4 (5da689c313, 2019-01-14)"
   sodipodi:docname="11.svg">
  <defs
     id="defs2">
    <linearGradient
       id="linearGradient3541"
       osb:paint="solid">
      <stop
         style="stop-color:#000000;stop-opacity:1;"
         offset="0"
         id="stop3539" />
    </linearGradient>
    <linearGradient
       inkscape:collect="always"
       xlink:href="#linearGradient3541"
       id="linearGradient4743"
       gradientUnits="userSpaceOnUse"
       x1="-1"
       y1="5917.5"
       x2="11984"
       y2="5917.5"
       gradientTransform="translate(-12612.645,-2196.2317)" />
    <linearGradient
       inkscape:collect="always"
       xlink:href="#linearGradient3541"
       id="linearGradient5928"
       gradientUnits="userSpaceOnUse"
       gradientTransform="translate(-12612.645,-2196.2317)"
       x1="-1"
       y1="5917.5"
       x2="11984"
       y2="5917.5" />
    <linearGradient
       inkscape:collect="always"
       xlink:href="#linearGradient3541"
       id="linearGradient5930"
       gradientUnits="userSpaceOnUse"
       gradientTransform="translate(-12612.645,-2196.2317)"
       x1="-1"
       y1="5917.5"
       x2="11984"
       y2="5917.5" />
    <linearGradient
       inkscape:collect="always"
       xlink:href="#linearGradient3541"
       id="linearGradient5932"
       gradientUnits="userSpaceOnUse"
       gradientTransform="translate(-12612.645,-2196.2317)"
       x1="-1"
       y1="5917.5"
       x2="11984"
       y2="5917.5" />
    <linearGradient
       inkscape:collect="always"
       xlink:href="#linearGradient3541"
       id="linearGradient5934"
       gradientUnits="userSpaceOnUse"
       gradientTransform="translate(-12612.645,-2196.2317)"
       x1="-1"
       y1="5917.5"
       x2="11984"
       y2="5917.5" />
    <linearGradient
       inkscape:collect="always"
       xlink:href="#linearGradient3541"
       id="linearGradient5936"
       gradientUnits="userSpaceOnUse"
       gradientTransform="translate(-12612.645,-2196.2317)"
       x1="-1"
       y1="5917.5"
       x2="11984"
       y2="5917.5" />
    <linearGradient
       inkscape:collect="always"
       xlink:href="#linearGradient3541"
       id="linearGradient5938"
       gradientUnits="userSpaceOnUse"
       gradientTransform="translate(-12612.645,-2196.2317)"
       x1="-1"
       y1="5917.5"
       x2="11984"
       y2="5917.5" />
  </defs>
  <sodipodi:namedview
     id="base"
     pagecolor="#ffffff"
     bordercolor="#666666"
     borderopacity="1.0"
     inkscape:pageopacity="0.0"
     inkscape:pageshadow="2"
     inkscape:zoom="0.35"
     inkscape:cx="400"
     inkscape:cy="560"
     inkscape:document-units="mm"
     inkscape:current-layer="layer1"
     showgrid="false"
     inkscape:window-width="958"
     inkscape:window-height="991"
     inkscape:window-x="952"
     inkscape:window-y="0"
     inkscape:window-maximized="0" />
  <metadata
     id="metadata5">
    <rdf:RDF>
      <cc:Work
         rdf:about="">
        <dc:format>image/svg+xml</dc:format>
        <dc:type
           rdf:resource="http://purl.org/dc/dcmitype/StillImage" />
        <dc:title></dc:title>
      </cc:Work>
    </rdf:RDF>
  </metadata>
  <g
     inkscape:label="Capa 1"
     inkscape:groupmode="layer"
     id="layer1">
    <g
       transform="matrix(0.21812408,0,0,0.21812408,1116.7867,-1453.5336)"
       style="clip-rule:evenodd;fill-rule:evenodd;image-rendering:optimizeQuality;shape-rendering:geometricPrecision;text-rendering:geometricPrecision"
       id="g6087">
      <path
         class="fil0"
         d="m -4753.645,7338.7683 v 72 c 31,-1 47,-12 47,-33 0,-21 -18,-30 -47,-40 z m -18,-68 v -72 c -29,2 -43,14 -43,35 0,20 14,29 43,37 z m 93,-41 c -8,-8 -40,-27 -74,-30 v 77 l 11,3 c 62,16 102,36 102,94 0,65 -50,91 -108,94 v 49 h -27 v -50 c -41,-3 -83,-17 -115,-40 l 27,-53 c 9,10 49,33 92,38 v -77 l -17,-4 c -60,-17 -90,-37 -90,-86 0,-60 44,-94 102,-99 v -45 h 27 v 45 c 38,3 72,18 97,35 l -27,50 z"
         id="path1181"
         style="fill:url(#linearGradient5928);fill-opacity:1;fill-rule:nonzero"
         inkscape:connector-curvature="0" />
      <path
         class="fil0"
         d="m -4430.645,7326.7683 c 0,-1 5,-27 5,-66 0,-41 -6,-97 -30,-153 -24,-56 -68,-111 -143,-148 l -7,13 9,-12 c -10,-8 -16,-14 -20,-20 -4,-6 -4,-10 -4,-13 0,-3 1,-5 2,-8 2,-4 6,-8 10,-12 4,-4 9,-6 13,-8 v 0 c 4,-2 8,-4 11,-8 6,-5 13,-12 20,-21 10,-13 21,-28 29,-43 4,-8 8,-15 10,-23 3,-8 4,-15 4,-23 0,-6 -1,-12 -5,-18 -3,-6 -9,-10 -16,-12 -8,-3 -16,-4 -23,-4 -10,0 -20,2 -28,3 -8,2 -15,3 -19,3 -3,0 -5,-1 -6,-1 -1,-1 -2,-2 -4,-6 v 0 c -8,-18 -21,-37 -37,-52 -8,-8 -17,-14 -28,-19 -10,-5 -22,-8 -34,-8 -2,0 -4,0 -5,0 -12,1 -23,5 -32,9 -14,7 -24,15 -34,21 -10,6 -18,10 -28,10 -6,0 -10,-1 -15,-4 -7,-4 -14,-11 -23,-18 -4,-4 -9,-7 -15,-10 -6,-3 -12,-5 -20,-5 -4,0 -8,1 -12,2 -7,2 -13,6 -18,10 -8,7 -13,16 -16,27 -3,11 -5,23 -5,36 0,26 6,58 20,94 9,22 16,41 22,58 6,17 9,31 9,44 0,11 -2,21 -7,31 -5,11 -14,22 -27,35 -15,15 -29,26 -44,40 -22,20 -43,44 -60,85 -16,41 -29,99 -36,188 l 15,1 -12,-8 c 0,1 -12,19 -25,47 -12,28 -24,66 -25,105 0,24 5,48 17,71 12,23 33,43 62,59 31,16 71,28 118,36 46,8 98,12 152,12 81,0 165,-9 235,-28 35,-9 66,-21 92,-36 26,-15 47,-32 59,-54 l 1,-1 c 7,-16 10,-33 10,-51 0,-36 -12,-73 -33,-105 -20,-32 -49,-60 -83,-76 -7,-3 -16,0 -19,8 -3,7 0,16 7,19 27,12 52,36 70,64 18,28 28,61 28,90 0,14 -3,27 -8,39 l 13,6 -13,-7 c -9,15 -25,30 -48,43 -35,20 -83,35 -138,45 -55,10 -116,15 -175,15 -52,0 -102,-4 -147,-11 -44,-7 -83,-19 -109,-33 -25,-13 -40,-29 -50,-47 -10,-18 -13,-37 -13,-57 0,-33 11,-68 22,-94 6,-13 11,-24 15,-31 2,-4 4,-7 5,-9 l 1,-2 v -1 0 c 1,-2 2,-4 2,-7 5,-59 11,-103 20,-136 6,-25 14,-45 21,-60 12,-24 25,-39 40,-53 15,-14 32,-27 50,-45 15,-15 25,-29 32,-44 7,-15 10,-29 10,-44 0,-18 -4,-35 -10,-53 -6,-18 -14,-37 -22,-59 -13,-33 -18,-61 -18,-83 0,-15 2,-26 6,-33 2,-4 4,-6 6,-8 2,-2 4,-3 6,-4 2,0 3,-1 4,-1 3,0 5,1 9,3 6,4 13,12 23,20 5,4 11,8 17,10 7,3 14,5 23,5 12,0 22,-3 31,-7 13,-6 24,-15 34,-21 10,-6 20,-11 31,-12 h 3 c 7,0 14,2 21,5 10,5 21,14 29,24 9,10 16,22 21,33 v 0 c 4,8 9,15 16,19 7,4 14,5 21,5 9,0 17,-2 25,-3 8,-2 15,-3 22,-3 5,0 9,1 14,2 v 0 0 l 1,-1 -1,1 v 0 l 1,-1 -1,1 1,-1 h -1 v 0 l 1,-1 h -1 v 1 2 c 0,4 -2,13 -7,23 -7,14 -17,31 -28,44 -5,7 -10,12 -15,17 -2,2 -4,4 -6,5 l -2,1 h -1 v 0 0 0 0 0 0 c -8,4 -18,10 -27,18 -4,4 -8,10 -11,16 -3,6 -5,13 -5,21 0,9 3,19 9,29 6,9 15,19 27,28 l 2,1 c 68,34 107,83 129,133 22,50 28,103 28,141 0,18 -1,33 -2,44 -1,5 -1,9 -2,12 0,1 0,2 -1,3 v 1 0 c -2,8 4,16 11,17 8,2 16,-4 17,-11 z"
         id="path1183"
         style="fill:url(#linearGradient5930);fill-opacity:1;fill-rule:nonzero"
         inkscape:connector-curvature="0" />
      <path
         class="fil0"
         d="m -4882.645,6955.7683 c 1,0 69,19 150,19 34,0 70,-3 104,-13 8,-2 12,-10 10,-18 -2,-8 -10,-12 -18,-10 -31,9 -64,12 -96,12 -38,0 -74,-4 -100,-9 -13,-2 -24,-5 -31,-6 -4,-1 -6,-2 -8,-2 l -2,-1 h -1 c -8,-2 -16,2 -18,10 -2,8 2,16 10,18 z"
         id="path1185"
         style="fill:url(#linearGradient5932);fill-opacity:1;fill-rule:nonzero"
         inkscape:connector-curvature="0" />
      <path
         class="fil0"
         d="m -4833.645,6853.7683 v 0 c 0,1 9,30 9,66 0,19 -2,40 -10,60 -7,20 -19,38 -37,52 -6,5 -7,14 -3,20 5,6 14,7 20,3 24,-18 38,-42 47,-65 9,-24 11,-48 11,-70 0,-42 -10,-74 -10,-75 -2,-8 -11,-12 -18,-10 -8,2 -12,11 -10,18 z"
         id="path1187"
         style="fill:url(#linearGradient5934);fill-opacity:1;fill-rule:nonzero"
         inkscape:connector-curvature="0" />
      <path
         class="fil0"
         d="m -4759.645,6835.7683 c 0,0 -5,14 -10,35 -5,21 -10,49 -10,78 0,27 4,55 17,80 4,7 13,10 20,6 7,-4 10,-13 6,-20 -10,-18 -14,-42 -14,-66 0,-26 4,-52 9,-72 2,-10 5,-18 6,-23 1,-3 2,-5 2,-6 l 1,-2 v 0 0 c 3,-8 -1,-16 -9,-19 -8,-3 -16,1 -19,9 z"
         id="path1189"
         style="fill:url(#linearGradient5936);fill-opacity:1;fill-rule:nonzero"
         inkscape:connector-curvature="0" />
      <path
         class="fil0"
         d="m -4695.645,7713.7683 c 1,0 16,3 30,12 7,5 14,11 19,19 5,8 9,18 9,31 0,5 4,8 9,8 5,0 8,-4 8,-8 -1,-16 -6,-30 -13,-40 -11,-16 -26,-25 -38,-30 -12,-5 -22,-7 -22,-7 -4,-1 -9,2 -9,7 -1,4 2,9 7,9 v 0 z"
         id="path1191"
         style="fill:url(#linearGradient5938);fill-opacity:1;fill-rule:nonzero"
         inkscape:connector-curvature="0" />
      <path
         class="fil0"
         d="m -4641.645,7963.7683 c -6,-7 -15,-17 -24,-28 4,-6 9,-14 15,-22 15,-18 35,-38 54,-57 10,-9 19,-18 27,-26 2,-2 4,-4 6,-6 h 1 l 2,2 c 9,11 20,22 29,31 v 0 l -111,107 z m 327,26 c -1,-1 -33,-44 -92,-80 -19,-14 -40,-32 -55,-46 -8,-7 -14,-13 -19,-18 -2,-2 -4,-4 -5,-5 l -1,-1 v 0 c -5,-5 -13,-6 -19,-3 -4,-4 -9,-8 -14,-13 -6,-6 -12,-12 -16,-18 -5,-6 -8,-11 -9,-13 -1,-1 -1,-3 -2,-4 0,-2 1,-5 1,-8 1,-12 2,-26 2,-39 0,-14 -1,-26 -3,-37 6,-17 15,-32 25,-44 17,-20 37,-33 53,-41 8,-4 15,-7 20,-9 2,-1 4,-2 6,-2 h 1 v 0 c 9,-2 14,-11 11,-20 -2,-9 -11,-14 -20,-11 0,0 -5,2 -13,5 -1,-2 -2,-3 -4,-4 -41,18 -97,34 -151,45 -9,7 -16,14 -22,21 -4,4 -7,8 -10,12 -18,-6 -36,-10 -53,-12 -22,-3 -42,-3 -55,-3 -9,0 -15,0 -15,0 h -1 c -2,-2 -4,-4 -6,-5 -19,-1 -36,-2 -53,-3 6,5 12,10 18,15 13,12 27,25 39,39 12,14 21,28 25,41 3,8 13,13 21,10 8,-3 13,-13 10,-21 -6,-15 -15,-30 -26,-43 11,0 23,1 37,3 20,3 41,7 58,15 4,2 9,2 14,0 4,-2 7,-6 9,-10 v 0 c 0,0 1,-3 3,-5 4,-5 10,-13 18,-20 12,-12 29,-24 48,-34 15,-7 32,-13 49,-15 -13,9 -26,20 -38,34 -14,16 -25,36 -33,59 -1,3 -1,6 0,9 2,7 3,20 3,34 0,12 -1,25 -2,36 -1,7 -2,14 -2,19 -5,6 -12,12 -19,19 -16,16 -36,35 -54,53 -12,-7 -43,-31 -89,-85 l -1,-1 c -18,-18 -43,-38 -72,-59 -13,-31 -35,-64 -54,-90 -2,-2 -3,-4 -5,-7 -8,-1 -16,-2 -23,-4 7,9 15,20 23,31 11,16 22,33 32,50 -14,-10 -29,-19 -43,-29 -18,-24 -35,-44 -49,-60 -11,-3 -21,-6 -31,-9 10,10 24,24 39,42 -69,-44 -129,-78 -129,-78 -8,-4 -18,-2 -22,6 -4,8 -2,18 6,22 0,0 4,2 10,6 23,13 82,48 142,87 30,20 61,40 88,60 27,20 50,38 65,54 43,52 75,77 92,89 -3,3 -5,6 -8,9 -7,10 -13,19 -17,29 -2,5 -1,12 3,16 12,15 25,29 32,38 l -5,4 c -7,6 -7,17 0,23 6,7 17,7 23,0 l 145,-139 c 1,0 3,-1 4,-1 16,15 44,42 72,62 l 1,1 c 27,16 48,34 63,48 7,7 13,13 16,17 2,2 3,4 4,5 l 1,1 v 0 0 0 c 5,7 16,9 23,3 7,-5 9,-16 3,-23 z"
         id="path1193"
         style="fill:url(#linearGradient4743);fill-opacity:1;fill-rule:nonzero"
         inkscape:connector-curvature="0" />
    </g>
  </g>
</svg>
