<?xml version="1.0" encoding="UTF-8" standalone="no"?>
<!-- Created with Inkscape (http://www.inkscape.org/) -->

<svg
   xmlns:osb="http://www.openswatchbook.org/uri/2009/osb"
   xmlns:dc="http://purl.org/dc/elements/1.1/"
   xmlns:cc="http://creativecommons.org/ns#"
   xmlns:rdf="http://www.w3.org/1999/02/22-rdf-syntax-ns#"
   xmlns:svg="http://www.w3.org/2000/svg"
   xmlns="http://www.w3.org/2000/svg"
   xmlns:xlink="http://www.w3.org/1999/xlink"
   xmlns:sodipodi="http://sodipodi.sourceforge.net/DTD/sodipodi-0.dtd"
   xmlns:inkscape="http://www.inkscape.org/namespaces/inkscape"
   width="210mm"
   height="297mm"
   viewBox="0 0 210 297"
   version="1.1"
   id="svg8"
   inkscape:version="0.92.4 (5da689c313, 2019-01-14)"
   sodipodi:docname="12.svg">
  <defs
     id="defs2">
    <linearGradient
       id="linearGradient3541"
       osb:paint="solid">
      <stop
         style="stop-color:#000000;stop-opacity:1;"
         offset="0"
         id="stop3539" />
    </linearGradient>
    <linearGradient
       inkscape:collect="always"
       xlink:href="#linearGradient3541"
       id="linearGradient3743"
       gradientUnits="userSpaceOnUse"
       x1="-1"
       y1="5917.5"
       x2="11984"
       y2="5917.5"
       gradientTransform="translate(-12612.645,-2196.2317)" />
    <linearGradient
       inkscape:collect="always"
       xlink:href="#linearGradient3541"
       id="linearGradient6037"
       gradientUnits="userSpaceOnUse"
       gradientTransform="translate(-12612.645,-2196.2317)"
       x1="-1"
       y1="5917.5"
       x2="11984"
       y2="5917.5" />
    <linearGradient
       inkscape:collect="always"
       xlink:href="#linearGradient3541"
       id="linearGradient6039"
       gradientUnits="userSpaceOnUse"
       gradientTransform="translate(-12612.645,-2196.2317)"
       x1="-1"
       y1="5917.5"
       x2="11984"
       y2="5917.5" />
    <linearGradient
       inkscape:collect="always"
       xlink:href="#linearGradient3541"
       id="linearGradient6041"
       gradientUnits="userSpaceOnUse"
       gradientTransform="translate(-12612.645,-2196.2317)"
       x1="-1"
       y1="5917.5"
       x2="11984"
       y2="5917.5" />
    <linearGradient
       inkscape:collect="always"
       xlink:href="#linearGradient3541"
       id="linearGradient6043"
       gradientUnits="userSpaceOnUse"
       gradientTransform="translate(-12612.645,-2196.2317)"
       x1="-1"
       y1="5917.5"
       x2="11984"
       y2="5917.5" />
    <linearGradient
       inkscape:collect="always"
       xlink:href="#linearGradient3541"
       id="linearGradient6045"
       gradientUnits="userSpaceOnUse"
       gradientTransform="translate(-12612.645,-2196.2317)"
       x1="-1"
       y1="5917.5"
       x2="11984"
       y2="5917.5" />
    <linearGradient
       inkscape:collect="always"
       xlink:href="#linearGradient3541"
       id="linearGradient6047"
       gradientUnits="userSpaceOnUse"
       gradientTransform="translate(-12612.645,-2196.2317)"
       x1="-1"
       y1="5917.5"
       x2="11984"
       y2="5917.5" />
    <linearGradient
       inkscape:collect="always"
       xlink:href="#linearGradient3541"
       id="linearGradient6049"
       gradientUnits="userSpaceOnUse"
       gradientTransform="translate(-12612.645,-2196.2317)"
       x1="-1"
       y1="5917.5"
       x2="11984"
       y2="5917.5" />
    <linearGradient
       inkscape:collect="always"
       xlink:href="#linearGradient3541"
       id="linearGradient6051"
       gradientUnits="userSpaceOnUse"
       gradientTransform="translate(-12612.645,-2196.2317)"
       x1="-1"
       y1="5917.5"
       x2="11984"
       y2="5917.5" />
    <linearGradient
       inkscape:collect="always"
       xlink:href="#linearGradient3541"
       id="linearGradient6053"
       gradientUnits="userSpaceOnUse"
       gradientTransform="translate(-12612.645,-2196.2317)"
       x1="-1"
       y1="5917.5"
       x2="11984"
       y2="5917.5" />
    <linearGradient
       inkscape:collect="always"
       xlink:href="#linearGradient3541"
       id="linearGradient6055"
       gradientUnits="userSpaceOnUse"
       gradientTransform="translate(-12612.645,-2196.2317)"
       x1="-1"
       y1="5917.5"
       x2="11984"
       y2="5917.5" />
    <linearGradient
       inkscape:collect="always"
       xlink:href="#linearGradient3541"
       id="linearGradient6057"
       gradientUnits="userSpaceOnUse"
       gradientTransform="translate(-12612.645,-2196.2317)"
       x1="-1"
       y1="5917.5"
       x2="11984"
       y2="5917.5" />
    <linearGradient
       inkscape:collect="always"
       xlink:href="#linearGradient3541"
       id="linearGradient6059"
       gradientUnits="userSpaceOnUse"
       gradientTransform="translate(-12612.645,-2196.2317)"
       x1="-1"
       y1="5917.5"
       x2="11984"
       y2="5917.5" />
    <linearGradient
       inkscape:collect="always"
       xlink:href="#linearGradient3541"
       id="linearGradient6061"
       gradientUnits="userSpaceOnUse"
       gradientTransform="translate(-12612.645,-2196.2317)"
       x1="-1"
       y1="5917.5"
       x2="11984"
       y2="5917.5" />
    <linearGradient
       inkscape:collect="always"
       xlink:href="#linearGradient3541"
       id="linearGradient6063"
       gradientUnits="userSpaceOnUse"
       gradientTransform="translate(-12612.645,-2196.2317)"
       x1="-1"
       y1="5917.5"
       x2="11984"
       y2="5917.5" />
    <linearGradient
       inkscape:collect="always"
       xlink:href="#linearGradient3541"
       id="linearGradient6065"
       gradientUnits="userSpaceOnUse"
       gradientTransform="translate(-12612.645,-2196.2317)"
       x1="-1"
       y1="5917.5"
       x2="11984"
       y2="5917.5" />
    <linearGradient
       inkscape:collect="always"
       xlink:href="#linearGradient3541"
       id="linearGradient6067"
       gradientUnits="userSpaceOnUse"
       gradientTransform="translate(-12612.645,-2196.2317)"
       x1="-1"
       y1="5917.5"
       x2="11984"
       y2="5917.5" />
    <linearGradient
       inkscape:collect="always"
       xlink:href="#linearGradient3541"
       id="linearGradient6069"
       gradientUnits="userSpaceOnUse"
       gradientTransform="translate(-12612.645,-2196.2317)"
       x1="-1"
       y1="5917.5"
       x2="11984"
       y2="5917.5" />
  </defs>
  <sodipodi:namedview
     id="base"
     pagecolor="#ffffff"
     bordercolor="#666666"
     borderopacity="1.0"
     inkscape:pageopacity="0.0"
     inkscape:pageshadow="2"
     inkscape:zoom="0.35"
     inkscape:cx="400"
     inkscape:cy="560"
     inkscape:document-units="mm"
     inkscape:current-layer="layer1"
     showgrid="false"
     inkscape:window-width="958"
     inkscape:window-height="991"
     inkscape:window-x="952"
     inkscape:window-y="0"
     inkscape:window-maximized="0" />
  <metadata
     id="metadata5">
    <rdf:RDF>
      <cc:Work
         rdf:about="">
        <dc:format>image/svg+xml</dc:format>
        <dc:type
           rdf:resource="http://purl.org/dc/dcmitype/StillImage" />
        <dc:title></dc:title>
      </cc:Work>
    </rdf:RDF>
  </metadata>
  <g
     inkscape:label="Capa 1"
     inkscape:groupmode="layer"
     id="layer1">
    <g
       style="clip-rule:evenodd;fill-rule:evenodd;image-rendering:optimizeQuality;shape-rendering:geometricPrecision;text-rendering:geometricPrecision"
       id="g5696"
       transform="matrix(0.18988564,0,0,0.18988564,1693.1974,21.474506)">
      <path
         class="fil0"
         d="m -8025.645,111.7683 c -32,22 -80,49 -137,54 l 2,16 12,-10 c -14,-17 -32,-32 -49,-45 -18,-13 -35,-25 -48,-36 -13,-11 -27,-17 -38,-21 -11,-3 -21,-4 -26,-4 -2,0 -4,0 -4,0 v 0 h -1 c -5,1 -28,3 -52,3 -10,0 -21,0 -30,-1 -5,-1 -10,-1 -14,-1 -8,0 -15,1 -22,3 -10,3 -19,9 -24,16 -6,8 -9,16 -11,25 v 3 c 0,5 -2,14 -6,23 -6,14 -15,30 -22,42 -4,6 -7,11 -10,15 -1,2 -2,3 -3,4 l -1,1 v 0 c -3,4 -4,9 -2,13 1,5 5,8 9,10 1,0 23,10 50,10 9,0 18,-1 27,-4 14,-4 27,-13 37,-27 10,-14 16,-34 18,-59 1,-9 -6,-16 -15,-17 -9,-1 -16,6 -17,15 -1,14 -3,25 -7,33 -5,12 -11,18 -19,22 -7,4 -16,6 -25,6 -10,0 -19,-2 -27,-4 -4,-1 -6,-2 -8,-3 l -2,-1 h -1 v 0 l -2,5 2,-5 v 0 l -2,5 2,-5 -6,14 13,9 c 0,0 12,-16 23,-36 6,-10 12,-22 16,-33 5,-12 8,-23 8,-35 h -16 l 15,3 c 1,-4 2,-7 3,-10 2,-4 4,-5 7,-7 3,-2 8,-3 17,-3 3,0 7,0 11,1 11,1 22,2 33,2 29,0 56,-3 56,-3 l -2,-16 1,16 v 0 h 1 c 3,0 9,0 17,3 8,2 17,7 26,14 15,13 32,25 49,37 17,13 33,26 44,40 3,4 9,6 14,6 65,-6 118,-36 152,-60 7,-5 9,-15 4,-22 -5,-7 -15,-9 -22,-4 z"
         id="path181"
         style="fill:url(#linearGradient6037);fill-opacity:1;fill-rule:nonzero"
         inkscape:connector-curvature="0" />
      <path
         class="fil0"
         d="m -8394.645,183.7683 c 1,1 19,8 43,8 15,0 33,-3 50,-13 8,-4 10,-14 6,-21 -4,-8 -14,-10 -21,-6 -12,7 -24,9 -35,9 -9,0 -17,-2 -22,-3 -3,-1 -5,-1 -6,-2 l -2,-1 v 0 0 l -4,9 4,-9 v 0 l -4,9 4,-9 c -8,-4 -17,0 -21,8 -4,8 0,17 8,21 z"
         id="path183"
         style="fill:url(#linearGradient6039);fill-opacity:1;fill-rule:nonzero"
         inkscape:connector-curvature="0" />
      <path
         class="fil0"
         d="m -8343.645,190.7683 c 0,0 3,3 8,7 19,16 67,57 117,101 25,22 49,45 71,66 21,21 39,40 50,54 l 13,-10 -13,9 c 3,4 4,8 4,11 0,6 -3,12 -8,17 -5,5 -13,8 -20,8 -6,0 -12,-2 -20,-7 -10,-7 -23,-17 -36,-29 -20,-17 -41,-37 -57,-53 -8,-8 -15,-15 -20,-19 -2,-2 -4,-4 -6,-6 -1,-1 -2,-2 -2,-2 -6,-6 -16,-6 -22,0 -6,6 -6,16 0,22 0,0 20,20 45,44 13,12 27,25 40,37 14,12 27,23 39,31 12,8 25,12 38,12 16,0 31,-7 42,-17 11,-10 18,-24 18,-40 0,-10 -3,-20 -10,-30 v 0 c -14,-19 -36,-42 -62,-67 -78,-75 -188,-167 -188,-167 -7,-6 -17,-5 -22,2 -6,7 -5,17 2,22 z"
         id="path185"
         style="fill:url(#linearGradient6041);fill-opacity:1;fill-rule:nonzero"
         inkscape:connector-curvature="0" />
      <path
         class="fil0"
         d="m -8171.645,469.7683 5,-4 -5,3 v 0 l 5,-4 -5,3 c 0,0 3,5 3,9 0,3 -1,5 -3,9 -4,6 -9,13 -15,18 -3,3 -6,4 -9,6 -3,1 -6,2 -10,2 -6,0 -14,-2 -25,-9 -20,-13 -45,-38 -64,-59 -9,-11 -17,-21 -23,-28 -3,-4 -5,-7 -7,-9 l -2,-2 -1,-1 c -5,-7 -15,-9 -22,-3 -7,5 -9,15 -3,22 0,0 14,19 34,42 20,23 45,49 71,65 15,9 29,14 42,14 8,0 16,-2 23,-5 10,-4 18,-11 24,-18 6,-7 10,-13 14,-18 6,-9 8,-18 8,-26 0,-8 -2,-14 -4,-19 -2,-5 -4,-7 -4,-8 -5,-7 -15,-9 -22,-4 -7,5 -9,15 -4,22 z"
         id="path187"
         style="fill:url(#linearGradient6043);fill-opacity:1;fill-rule:nonzero"
         inkscape:connector-curvature="0" />
      <path
         class="fil0"
         d="m -8253.645,523.7683 10,-4 -10,3 v 0 l 10,-4 -10,3 2,-1 -2,1 v 0 l 2,-1 -2,1 c 0,0 1,2 1,4 0,2 0,5 -2,9 -2,4 -5,8 -11,13 -7,5 -12,6 -18,6 -6,0 -12,-2 -18,-4 -6,-3 -11,-6 -15,-9 l -2,-1 c -4,-3 -11,-10 -19,-19 -12,-13 -26,-29 -38,-42 -6,-6 -11,-12 -14,-16 -3,-4 -6,-6 -6,-6 -6,-7 -16,-7 -22,-2 -7,6 -7,16 -2,22 0,0 17,20 36,40 9,10 19,21 27,30 4,4 8,8 11,12 2,2 3,3 5,4 1,1 3,2 4,4 5,3 12,8 20,12 9,4 19,7 31,7 12,0 25,-4 37,-13 10,-8 17,-16 21,-24 4,-8 5,-16 5,-23 0,-8 -2,-14 -3,-15 -3,-8 -12,-12 -20,-9 -8,3 -12,12 -9,20 z"
         id="path189"
         style="fill:url(#linearGradient6045);fill-opacity:1;fill-rule:nonzero"
         inkscape:connector-curvature="0" />
      <path
         class="fil0"
         d="m -8341.645,560.7683 h 5 -5 v 0 h 5 -5 c 0,0 0,6 -2,9 -1,2 -2,3 -4,4 -1,1 -4,2 -8,2 -4,0 -11,-1 -19,-4 l -6,15 7,-14 c -17,-8 -27,-14 -33,-18 -3,-2 -4,-3 -5,-4 l -1,-1 -6,6 7,-5 v -1 l -6,6 7,-5 c -5,-7 -15,-8 -22,-2 -7,5 -8,15 -2,22 2,3 12,14 50,31 h 1 c 11,4 21,6 30,6 10,0 19,-3 26,-8 5,-4 9,-8 12,-12 4,-7 6,-13 7,-18 1,-5 1,-8 1,-9 0,-9 -7,-16 -16,-16 -9,0 -16,7 -16,16 z"
         id="path191"
         style="fill:url(#linearGradient6047);fill-opacity:1;fill-rule:nonzero"
         inkscape:connector-curvature="0" />
      <path
         class="fil0"
         d="m -8236.645,130.7683 c 1,0 11,-1 26,-5 15,-4 34,-10 51,-22 l 2,-1 v 0 l -1,-2 v 2 h 1 l -1,-2 v 2 -5 l -3,4 3,1 v -5 l -3,4 2,-3 -2,2 v 0 l 2,-3 -2,2 v -1 h -1 v 0 -1 h -1 c 0,0 1,1 1,3 0,2 1,4 1,7 0,6 -2,15 -5,23 -4,8 -9,16 -17,23 -7,6 -7,16 -2,22 6,7 16,7 22,2 12,-10 20,-22 25,-34 5,-12 8,-24 8,-35 0,-9 -2,-17 -6,-25 -2,-4 -5,-8 -9,-10 -4,-3 -10,-5 -15,-4 -7,0 -14,3 -20,7 -12,9 -28,14 -41,17 -6,2 -12,3 -16,3 -2,0 -3,1 -5,1 h -1 v 0 0 c -9,1 -15,9 -14,17 1,9 9,15 17,14 z"
         id="path193"
         style="fill:url(#linearGradient6049);fill-opacity:1;fill-rule:nonzero"
         inkscape:connector-curvature="0" />
      <path
         class="fil0"
         d="m -8079.645,403.7683 -7,-5 7,5 v 0 l -7,-5 7,5 c 0,0 1,-1 2,-2 4,-5 16,-18 36,-29 20,-12 47,-23 82,-27 9,-1 15,-8 14,-17 -1,-9 -8,-15 -17,-14 -47,4 -83,21 -107,38 -24,16 -35,32 -36,33 -5,7 -4,17 3,22 7,5 17,4 22,-3 z"
         id="path195"
         style="fill:url(#linearGradient6051);fill-opacity:1;fill-rule:nonzero"
         inkscape:connector-curvature="0" />
      <path
         class="fil0"
         d="m -8455.645,112.7683 c -1,0 -18,-2 -43,-2 -15,0 -32,1 -50,3 -15,2 -32,5 -49,5 -18,0 -37,-2 -58,-9 -21,-7 -44,-18 -69,-37 -7,-5 -17,-4 -22,3 -5,7 -4,17 3,22 27,21 54,34 78,42 24,8 47,11 67,11 20,0 39,-3 54,-5 16,-2 32,-3 45,-3 12,0 21,1 28,1 3,0 6,1 8,1 h 2 1 v 0 c 9,1 17,-5 18,-13 1,-9 -5,-17 -13,-18 z"
         id="path197"
         style="fill:url(#linearGradient6053);fill-opacity:1;fill-rule:nonzero"
         inkscape:connector-curvature="0" />
      <path
         class="fil0"
         d="m -8408.645,564.7683 c 0,-1 0,-19 -5,-39 -2,-10 -6,-20 -12,-30 -3,-5 -7,-9 -12,-12 -5,-3 -12,-6 -19,-6 h -1 v 0 c -5,0 -10,1 -14,3 -7,4 -13,9 -17,15 -6,9 -9,19 -11,30 -2,10 -3,21 -3,30 0,6 0,11 1,16 0,5 1,9 2,13 v 1 c 1,4 4,8 7,11 4,4 10,7 15,8 6,2 11,2 18,2 15,0 33,-4 52,-15 8,-4 11,-14 6,-21 -4,-8 -14,-11 -21,-6 -15,8 -28,11 -37,11 -5,0 -9,-1 -10,-2 h -1 v 0 l -3,4 4,-1 c 0,-1 -1,-2 -1,-2 l -3,4 4,-1 -15,5 15,-4 c 0,-1 -1,-4 -1,-8 0,-4 -1,-8 -1,-13 0,-12 2,-26 5,-36 2,-5 4,-8 5,-10 l 2,-1 h 1 v 0 h 2 c 1,1 4,4 6,10 4,8 6,20 7,29 1,5 1,9 1,12 0,1 0,3 0,3 v 1 0 c 0,9 7,16 16,15 9,0 16,-7 15,-16 z"
         id="path199"
         style="fill:url(#linearGradient6055);fill-opacity:1;fill-rule:nonzero"
         inkscape:connector-curvature="0" />
      <path
         class="fil0"
         d="m -8463.645,513.7683 c 0,0 0,-3 0,-8 0,-9 -1,-23 -5,-38 -2,-7 -5,-15 -10,-21 -5,-7 -13,-13 -23,-15 -3,-1 -5,-1 -8,-1 -8,0 -16,3 -23,7 -11,6 -20,15 -26,27 -7,11 -11,25 -11,40 0,14 4,30 13,44 v 1 c 6,9 15,15 23,20 9,4 18,6 26,6 5,0 11,-1 16,-3 3,-1 5,-3 8,-5 2,-2 5,-5 6,-9 3,-8 0,-17 -8,-21 -8,-3 -17,0 -21,8 l 7,3 -5,-6 -2,3 7,3 -5,-6 3,3 -2,-4 -1,1 3,3 -2,-4 v 0 0 0 0 0 c 0,0 -2,1 -4,0 -3,0 -8,-1 -13,-3 -4,-2 -8,-5 -10,-8 l -13,9 13,-8 c -6,-10 -8,-19 -8,-28 0,-12 5,-23 11,-31 3,-4 7,-7 10,-9 3,-2 6,-2 8,-2 h 1 c 1,0 2,1 4,3 3,3 5,10 6,18 1,8 2,16 2,22 0,2 0,4 0,5 v 1 0 c -1,9 6,16 15,17 9,1 16,-6 17,-15 z"
         id="path201"
         style="fill:url(#linearGradient6057);fill-opacity:1;fill-rule:nonzero"
         inkscape:connector-curvature="0" />
      <path
         class="fil0"
         d="m -8532.645,463.7683 c 0,0 1,-6 1,-14 0,-11 -1,-26 -6,-40 -3,-7 -6,-15 -13,-21 -6,-6 -16,-10 -26,-10 h -2 c -11,1 -21,6 -28,12 -11,10 -18,23 -23,38 -5,14 -8,30 -8,44 0,8 1,15 3,22 2,7 5,14 10,19 5,5 11,9 17,11 6,2 12,3 18,3 11,0 20,-3 27,-6 7,-3 11,-6 12,-6 7,-5 9,-14 5,-22 -5,-7 -14,-9 -22,-5 l 5,8 -5,-8 v 0 l 5,8 -5,-8 v 0 c -1,1 -4,3 -9,4 -4,2 -9,3 -13,3 -2,0 -4,0 -6,-1 -2,-1 -3,-2 -5,-4 0,0 -2,-2 -3,-6 -1,-3 -2,-8 -2,-14 0,-14 4,-31 10,-44 3,-6 7,-11 10,-14 3,-3 6,-4 8,-4 v 0 h 1 c 3,0 3,1 5,2 1,1 2,3 4,5 2,4 3,10 4,15 1,6 1,12 1,17 0,3 0,6 0,8 v 2 1 0 c -1,9 5,16 14,17 9,1 16,-5 17,-14 z"
         id="path203"
         style="fill:url(#linearGradient6059);fill-opacity:1;fill-rule:nonzero"
         inkscape:connector-curvature="0" />
      <path
         class="fil0"
         d="m -8795.645,363.7683 v 0 c 2,1 20,8 43,20 23,12 50,30 70,50 l 11,-11 -12,11 c 25,28 50,38 51,39 8,3 17,0 21,-8 3,-8 0,-17 -8,-21 v 0 0 0 0 c -1,-1 -21,-10 -40,-31 v 0 c -24,-25 -55,-44 -80,-57 -25,-13 -44,-21 -44,-21 -8,-3 -17,1 -20,9 -3,8 1,17 9,20 z"
         id="path205"
         style="fill:url(#linearGradient6061);fill-opacity:1;fill-rule:nonzero"
         inkscape:connector-curvature="0" />
      <path
         class="fil0"
         d="m -8706.645,390.7683 c -1,0 -9,5 -17,12 -4,4 -9,9 -13,15 -4,6 -7,14 -7,23 0,6 2,13 5,19 3,5 6,9 10,12 6,4 13,7 19,8 7,1 13,2 20,2 14,0 27,-2 37,-4 10,-2 17,-4 17,-4 8,-2 13,-11 11,-20 -2,-8 -11,-13 -20,-11 v 0 c -1,0 -8,2 -16,4 -9,2 -20,3 -29,3 -7,0 -13,-1 -16,-2 -2,-1 -3,-1 -4,-2 l -1,-1 c -1,-2 -1,-3 -1,-4 0,-1 1,-3 2,-6 2,-4 7,-8 11,-11 2,-2 4,-3 5,-4 l 1,-1 v 0 -1 1 -1 1 c 8,-4 11,-14 6,-21 -4,-8 -14,-11 -21,-6 z"
         id="path207"
         style="fill:url(#linearGradient6063);fill-opacity:1;fill-rule:nonzero"
         inkscape:connector-curvature="0" />
      <path
         class="fil0"
         d="m -7868.645,353.7683 c -2,0 -18,3 -69,19 l 5,15 16,-2 c -1,-8 -3,-18 -6,-31 -11,-45 -36,-121 -58,-186 -22,-65 -41,-119 -41,-119 l -15,5 8,14 2,-1 c 8,-5 44,-25 73,-37 8,-3 12,-12 9,-20 -3,-8 -12,-12 -21,-9 -18,7 -38,17 -53,25 -15,8 -26,14 -26,15 -6,4 -9,12 -7,19 0,0 2,4 4,12 9,27 33,96 55,164 11,34 21,67 29,95 4,14 7,26 10,36 2,10 4,18 4,22 1,5 3,9 7,12 4,3 9,3 13,2 25,-8 41,-12 51,-15 5,-1 8,-2 10,-2 h 2 v 0 l -1,-5 1,5 v 0 l -1,-5 1,5 c 9,-1 15,-9 14,-18 -1,-9 -9,-15 -18,-14 z"
         id="path209"
         style="fill:url(#linearGradient6065);fill-opacity:1;fill-rule:nonzero"
         inkscape:connector-curvature="0" />
      <path
         class="fil0"
         d="m -7818.645,405.7683 c 0,0 -28,-95 -60,-198 -16,-51 -33,-104 -48,-148 -7,-22 -14,-42 -20,-58 -6,-16 -11,-29 -16,-38 l -14,7 6,15 c 43,-18 153,-65 153,-65 8,-3 12,-13 8,-21 -3,-8 -13,-12 -21,-8 0,0 -7,3 -18,8 -33,14 -103,44 -135,57 -4,2 -7,5 -9,9 -2,4 -1,9 1,13 3,6 8,18 14,34 21,55 53,156 79,243 13,43 25,83 34,112 4,15 8,26 10,34 2,8 4,13 4,13 2,8 11,13 20,11 8,-2 13,-11 11,-20 z"
         id="path211"
         style="fill:url(#linearGradient6067);fill-opacity:1;fill-rule:nonzero"
         inkscape:connector-curvature="0" />
      <path
         class="fil0"
         d="m -8879.645,437.7683 61,18 c 4,1 9,1 12,-2 4,-2 6,-6 7,-10 l 86,-396 c 2,-8 -3,-17 -12,-19 l -65,-16 c -8,-2 -17,3 -19,12 -2,8 3,17 12,19 l 50,12 -79,364 -45,-13 c -8,-2 -17,2 -19,11 -2,8 2,17 11,20 z"
         id="path213"
         style="fill:url(#linearGradient6069);fill-opacity:1;fill-rule:nonzero"
         inkscape:connector-curvature="0" />
      <path
         class="fil0"
         d="m -8880.645,448.7683 107,-478 c 2,-8 -3,-16 -11,-19 l -105,-28 c -8,-2 -17,3 -19,11 -2,8 3,17 11,19 l 90,24 -103,463 c -2,9 3,17 12,19 9,2 17,-3 19,-12 z"
         id="path215"
         style="fill:url(#linearGradient3743);fill-opacity:1;fill-rule:nonzero"
         inkscape:connector-curvature="0" />
    </g>
  </g>
</svg>
