<?xml version="1.0" encoding="UTF-8" standalone="no"?>
<!-- Created with Inkscape (http://www.inkscape.org/) -->

<svg
   xmlns:osb="http://www.openswatchbook.org/uri/2009/osb"
   xmlns:dc="http://purl.org/dc/elements/1.1/"
   xmlns:cc="http://creativecommons.org/ns#"
   xmlns:rdf="http://www.w3.org/1999/02/22-rdf-syntax-ns#"
   xmlns:svg="http://www.w3.org/2000/svg"
   xmlns="http://www.w3.org/2000/svg"
   xmlns:xlink="http://www.w3.org/1999/xlink"
   xmlns:sodipodi="http://sodipodi.sourceforge.net/DTD/sodipodi-0.dtd"
   xmlns:inkscape="http://www.inkscape.org/namespaces/inkscape"
   width="210mm"
   height="297mm"
   viewBox="0 0 210 297"
   version="1.1"
   id="svg8"
   inkscape:version="0.92.4 (5da689c313, 2019-01-14)"
   sodipodi:docname="13.svg">
  <defs
     id="defs2">
    <linearGradient
       id="linearGradient3541"
       osb:paint="solid">
      <stop
         style="stop-color:#000000;stop-opacity:1;"
         offset="0"
         id="stop3539" />
    </linearGradient>
    <linearGradient
       inkscape:collect="always"
       xlink:href="#linearGradient3541"
       id="linearGradient3925"
       gradientUnits="userSpaceOnUse"
       x1="-1"
       y1="5917.5"
       x2="11984"
       y2="5917.5"
       gradientTransform="translate(-12612.645,-2196.2317)" />
    <linearGradient
       inkscape:collect="always"
       xlink:href="#linearGradient3541"
       id="linearGradient6248"
       gradientUnits="userSpaceOnUse"
       gradientTransform="translate(-12612.645,-2196.2317)"
       x1="-1"
       y1="5917.5"
       x2="11984"
       y2="5917.5" />
    <linearGradient
       inkscape:collect="always"
       xlink:href="#linearGradient3541"
       id="linearGradient6250"
       gradientUnits="userSpaceOnUse"
       gradientTransform="translate(-12612.645,-2196.2317)"
       x1="-1"
       y1="5917.5"
       x2="11984"
       y2="5917.5" />
    <linearGradient
       inkscape:collect="always"
       xlink:href="#linearGradient3541"
       id="linearGradient6252"
       gradientUnits="userSpaceOnUse"
       gradientTransform="translate(-12612.645,-2196.2317)"
       x1="-1"
       y1="5917.5"
       x2="11984"
       y2="5917.5" />
    <linearGradient
       inkscape:collect="always"
       xlink:href="#linearGradient3541"
       id="linearGradient6254"
       gradientUnits="userSpaceOnUse"
       gradientTransform="translate(-12612.645,-2196.2317)"
       x1="-1"
       y1="5917.5"
       x2="11984"
       y2="5917.5" />
    <linearGradient
       inkscape:collect="always"
       xlink:href="#linearGradient3541"
       id="linearGradient6256"
       gradientUnits="userSpaceOnUse"
       gradientTransform="translate(-12612.645,-2196.2317)"
       x1="-1"
       y1="5917.5"
       x2="11984"
       y2="5917.5" />
    <linearGradient
       inkscape:collect="always"
       xlink:href="#linearGradient3541"
       id="linearGradient6258"
       gradientUnits="userSpaceOnUse"
       gradientTransform="translate(-12612.645,-2196.2317)"
       x1="-1"
       y1="5917.5"
       x2="11984"
       y2="5917.5" />
    <linearGradient
       inkscape:collect="always"
       xlink:href="#linearGradient3541"
       id="linearGradient6260"
       gradientUnits="userSpaceOnUse"
       gradientTransform="translate(-12612.645,-2196.2317)"
       x1="-1"
       y1="5917.5"
       x2="11984"
       y2="5917.5" />
    <linearGradient
       inkscape:collect="always"
       xlink:href="#linearGradient3541"
       id="linearGradient6262"
       gradientUnits="userSpaceOnUse"
       gradientTransform="translate(-12612.645,-2196.2317)"
       x1="-1"
       y1="5917.5"
       x2="11984"
       y2="5917.5" />
    <linearGradient
       inkscape:collect="always"
       xlink:href="#linearGradient3541"
       id="linearGradient6264"
       gradientUnits="userSpaceOnUse"
       gradientTransform="translate(-12612.645,-2196.2317)"
       x1="-1"
       y1="5917.5"
       x2="11984"
       y2="5917.5" />
    <linearGradient
       inkscape:collect="always"
       xlink:href="#linearGradient3541"
       id="linearGradient6266"
       gradientUnits="userSpaceOnUse"
       gradientTransform="translate(-12612.645,-2196.2317)"
       x1="-1"
       y1="5917.5"
       x2="11984"
       y2="5917.5" />
    <linearGradient
       inkscape:collect="always"
       xlink:href="#linearGradient3541"
       id="linearGradient6268"
       gradientUnits="userSpaceOnUse"
       gradientTransform="translate(-12612.645,-2196.2317)"
       x1="-1"
       y1="5917.5"
       x2="11984"
       y2="5917.5" />
  </defs>
  <sodipodi:namedview
     id="base"
     pagecolor="#ffffff"
     bordercolor="#666666"
     borderopacity="1.0"
     inkscape:pageopacity="0.0"
     inkscape:pageshadow="2"
     inkscape:zoom="0.35"
     inkscape:cx="400"
     inkscape:cy="560"
     inkscape:document-units="mm"
     inkscape:current-layer="g5696"
     showgrid="false"
     inkscape:window-width="958"
     inkscape:window-height="991"
     inkscape:window-x="952"
     inkscape:window-y="0"
     inkscape:window-maximized="0" />
  <metadata
     id="metadata5">
    <rdf:RDF>
      <cc:Work
         rdf:about="">
        <dc:format>image/svg+xml</dc:format>
        <dc:type
           rdf:resource="http://purl.org/dc/dcmitype/StillImage" />
        <dc:title></dc:title>
      </cc:Work>
    </rdf:RDF>
  </metadata>
  <g
     inkscape:label="Capa 1"
     inkscape:groupmode="layer"
     id="layer1">
    <g
       style="clip-rule:evenodd;fill-rule:evenodd;image-rendering:optimizeQuality;shape-rendering:geometricPrecision;text-rendering:geometricPrecision"
       id="g5696"
       transform="matrix(0.18988564,0,0,0.18988564,1693.1974,21.474506)">
      <g
         style="clip-rule:evenodd;fill-rule:evenodd;image-rendering:optimizeQuality;shape-rendering:geometricPrecision;text-rendering:geometricPrecision"
         id="g5820"
         transform="matrix(1.0677466,0,0,1.0677466,-1369.6653,-1852.2944)">
        <path
           class="fil0"
           d="m -6336.645,2017.7683 290,-169 c 5,-3 8,-8 8,-14 0,-6 -3,-11 -8,-14 l -322,-182 c -5,-3 -11,-3 -15,0 l -290,161 c -8,4 -10,14 -6,21 4,8 14,10 21,6 l 282,-157 290,164 -266,156 c -8,4 -10,14 -6,22 4,8 14,10 22,6 z"
           id="path363"
           style="fill:url(#linearGradient6248);fill-opacity:1;fill-rule:nonzero"
           inkscape:connector-curvature="0" />
        <path
           class="fil0"
           d="m -6791.645,1865.7683 -262,145 c -5,3 -8,8 -8,14 0,6 3,11 8,14 l 329,197 c 5,3 11,3 16,0 l 252,-148 c 8,-4 10,-14 6,-22 -4,-8 -14,-10 -22,-6 l -244,144 -298,-178 238,-131 c 8,-4 10,-14 6,-21 -4,-8 -14,-10 -21,-6 z"
           id="path365"
           style="fill:url(#linearGradient6250);fill-opacity:1;fill-rule:nonzero"
           inkscape:connector-curvature="0" />
        <path
           class="fil0"
           d="m -6319.645,2077.7683 273,-159 c 5,-3 8,-8 8,-14 0,-6 -3,-11 -8,-14 l -62,-35 c -8,-4 -17,-2 -21,6 -4,8 -2,17 6,21 l 38,21 -249,146 c -8,4 -10,14 -6,22 4,8 14,10 22,6 z"
           id="path367"
           style="fill:url(#linearGradient6252);fill-opacity:1;fill-rule:nonzero"
           inkscape:connector-curvature="0" />
        <path
           class="fil0"
           d="m -6992.645,2047.7683 -61,34 c -5,3 -8,8 -8,14 0,6 3,11 8,14 l 329,197 c 5,3 11,3 16,0 l 273,-160 c 8,-4 10,-14 6,-22 -4,-8 -14,-10 -22,-6 l -265,155 -298,-178 37,-20 c 8,-4 10,-14 6,-21 -4,-8 -14,-10 -21,-6 z"
           id="path369"
           style="fill:url(#linearGradient6254);fill-opacity:1;fill-rule:nonzero"
           inkscape:connector-curvature="0" />
        <path
           class="fil0"
           d="m -6319.645,2147.7683 273,-159 c 5,-3 8,-8 8,-13 0,-6 -3,-11 -7,-14 l -54,-34 c -7,-5 -17,-2 -22,5 -5,7 -2,17 5,22 l 32,20 -250,146 c -8,4 -10,14 -6,22 4,8 14,10 22,6 z"
           id="path371"
           style="fill:url(#linearGradient6256);fill-opacity:1;fill-rule:nonzero"
           inkscape:connector-curvature="0" />
        <path
           class="fil0"
           d="m -6992.645,2117.7683 -61,34 c -5,3 -8,8 -8,14 0,6 3,11 8,14 l 329,197 c 5,3 11,3 16,0 l 274,-160 c 8,-4 10,-14 6,-22 -4,-8 -14,-10 -22,-6 l -266,155 -298,-178 37,-20 c 8,-4 10,-14 6,-21 -4,-8 -14,-10 -21,-6 z"
           id="path373"
           style="fill:url(#linearGradient6258);fill-opacity:1;fill-rule:nonzero"
           inkscape:connector-curvature="0" />
        <path
           class="fil0"
           d="m -6320.645,2218.7683 274,-160 c 5,-3 8,-8 8,-14 0,-6 -3,-11 -8,-14 l -57,-34 c -8,-4 -17,-2 -22,6 -4,8 -2,17 6,22 l 34,20 -250,146 c -8,4 -10,14 -6,22 4,8 14,10 22,6 z"
           id="path375"
           style="fill:url(#linearGradient6260);fill-opacity:1;fill-rule:nonzero"
           inkscape:connector-curvature="0" />
        <path
           class="fil0"
           d="m -6992.645,2187.7683 -61,34 c -5,3 -8,8 -8,14 0,6 3,11 8,14 l 329,197 c 5,3 11,3 16,0 l 274,-160 c 8,-4 10,-14 6,-22 -4,-8 -14,-10 -22,-6 l -266,155 -298,-178 37,-20 c 8,-4 10,-14 6,-21 -4,-8 -14,-10 -21,-6 z"
           id="path377"
           style="fill:url(#linearGradient6262);fill-opacity:1;fill-rule:nonzero"
           inkscape:connector-curvature="0" />
        <path
           class="fil0"
           d="m -6992.645,2257.7683 -61,34 c -5,3 -8,8 -8,14 0,6 3,11 8,14 l 329,197 c 5,3 11,3 16,0 l 662,-386 c 5,-3 8,-8 8,-14 0,-6 -3,-11 -8,-14 l -58,-33 c -8,-4 -17,-2 -22,6 -4,8 -2,17 6,22 l 35,20 -631,368 -298,-178 37,-21 c 8,-4 10,-14 6,-21 -4,-8 -14,-10 -21,-6 z"
           id="path379"
           style="fill:url(#linearGradient6264);fill-opacity:1;fill-rule:nonzero"
           inkscape:connector-curvature="0" />
        <path
           class="fil0"
           d="m -6330.645,2306.7683 h 16 l 1,-289 c 0,-6 -3,-11 -8,-14 l -367,-220 c -5,-3 -11,-3 -16,0 l -114,63 c -5,3 -8,8 -8,14 0,6 3,11 8,14 l 360,217 v 285 c 0,6 3,11 8,14 5,3 11,3 16,0 l 112,-69 c 5,-3 7,-8 7,-13 h -16 l -8,-13 -88,54 v -266 c 0,-6 -3,-11 -8,-14 l -345,-207 82,-45 351,211 -1,280 h 16 l -8,-13 8,13 z"
           id="path381"
           style="fill:url(#linearGradient6266);fill-opacity:1;fill-rule:nonzero"
           inkscape:connector-curvature="0" />
        <path
           class="fil0"
           d="m -6548.645,2009.7683 c -33,13 -65,20 -92,20 -18,0 -34,-3 -46,-8 -12,-5 -19,-12 -23,-21 v 0 c -2,-5 -3,-10 -3,-15 0,-14 7,-32 21,-50 5,-7 4,-17 -3,-22 -7,-5 -17,-4 -22,3 -17,22 -28,46 -28,70 0,10 2,19 6,28 8,17 22,29 39,36 17,8 37,11 59,11 32,0 68,-7 104,-22 8,-3 12,-12 9,-21 -3,-8 -12,-12 -21,-9 z"
           id="path383"
           style="fill:url(#linearGradient6268);fill-opacity:1;fill-rule:nonzero"
           inkscape:connector-curvature="0" />
        <path
           class="fil0"
           d="m -6598.645,1866.7683 c 37,-17 75,-25 105,-25 18,0 34,3 46,8 12,5 19,12 23,21 2,5 3,10 3,15 0,7 -2,16 -6,25 -4,9 -10,19 -18,29 -6,7 -5,17 2,22 7,6 17,5 22,-2 10,-12 17,-24 23,-36 5,-12 8,-25 8,-37 0,-10 -2,-19 -6,-28 v 0 c -8,-17 -22,-29 -39,-36 -17,-8 -37,-11 -59,-11 -36,0 -77,9 -118,28 -8,4 -11,13 -8,21 4,8 13,11 21,8 z"
           id="path385"
           style="fill:url(#linearGradient3925);fill-opacity:1;fill-rule:nonzero"
           inkscape:connector-curvature="0" />
      </g>
    </g>
  </g>
</svg>
