<?xml version="1.0" encoding="UTF-8" standalone="no"?>
<!-- Created with Inkscape (http://www.inkscape.org/) -->

<svg
   xmlns:osb="http://www.openswatchbook.org/uri/2009/osb"
   xmlns:dc="http://purl.org/dc/elements/1.1/"
   xmlns:cc="http://creativecommons.org/ns#"
   xmlns:rdf="http://www.w3.org/1999/02/22-rdf-syntax-ns#"
   xmlns:svg="http://www.w3.org/2000/svg"
   xmlns="http://www.w3.org/2000/svg"
   xmlns:xlink="http://www.w3.org/1999/xlink"
   xmlns:sodipodi="http://sodipodi.sourceforge.net/DTD/sodipodi-0.dtd"
   xmlns:inkscape="http://www.inkscape.org/namespaces/inkscape"
   width="210mm"
   height="297mm"
   viewBox="0 0 210 297"
   version="1.1"
   id="svg8"
   inkscape:version="0.92.4 (5da689c313, 2019-01-14)"
   sodipodi:docname="14.svg">
  <defs
     id="defs2">
    <linearGradient
       id="linearGradient3541"
       osb:paint="solid">
      <stop
         style="stop-color:#000000;stop-opacity:1;"
         offset="0"
         id="stop3539" />
    </linearGradient>
    <linearGradient
       inkscape:collect="always"
       xlink:href="#linearGradient3541"
       id="linearGradient4153"
       gradientUnits="userSpaceOnUse"
       x1="-1"
       y1="5917.5"
       x2="11984"
       y2="5917.5"
       gradientTransform="translate(-12612.645,-2196.2317)" />
    <linearGradient
       inkscape:collect="always"
       xlink:href="#linearGradient3541"
       id="linearGradient6477"
       gradientUnits="userSpaceOnUse"
       gradientTransform="translate(-12612.645,-2196.2317)"
       x1="-1"
       y1="5917.5"
       x2="11984"
       y2="5917.5" />
    <linearGradient
       inkscape:collect="always"
       xlink:href="#linearGradient3541"
       id="linearGradient6479"
       gradientUnits="userSpaceOnUse"
       gradientTransform="translate(-12612.645,-2196.2317)"
       x1="-1"
       y1="5917.5"
       x2="11984"
       y2="5917.5" />
    <linearGradient
       inkscape:collect="always"
       xlink:href="#linearGradient3541"
       id="linearGradient6481"
       gradientUnits="userSpaceOnUse"
       gradientTransform="translate(-12612.645,-2196.2317)"
       x1="-1"
       y1="5917.5"
       x2="11984"
       y2="5917.5" />
    <linearGradient
       inkscape:collect="always"
       xlink:href="#linearGradient3541"
       id="linearGradient6483"
       gradientUnits="userSpaceOnUse"
       gradientTransform="translate(-12612.645,-2196.2317)"
       x1="-1"
       y1="5917.5"
       x2="11984"
       y2="5917.5" />
    <linearGradient
       inkscape:collect="always"
       xlink:href="#linearGradient3541"
       id="linearGradient6485"
       gradientUnits="userSpaceOnUse"
       gradientTransform="translate(-12612.645,-2196.2317)"
       x1="-1"
       y1="5917.5"
       x2="11984"
       y2="5917.5" />
    <linearGradient
       inkscape:collect="always"
       xlink:href="#linearGradient3541"
       id="linearGradient6487"
       gradientUnits="userSpaceOnUse"
       gradientTransform="translate(-12612.645,-2196.2317)"
       x1="-1"
       y1="5917.5"
       x2="11984"
       y2="5917.5" />
    <linearGradient
       inkscape:collect="always"
       xlink:href="#linearGradient3541"
       id="linearGradient6489"
       gradientUnits="userSpaceOnUse"
       gradientTransform="translate(-12612.645,-2196.2317)"
       x1="-1"
       y1="5917.5"
       x2="11984"
       y2="5917.5" />
    <linearGradient
       inkscape:collect="always"
       xlink:href="#linearGradient3541"
       id="linearGradient6491"
       gradientUnits="userSpaceOnUse"
       gradientTransform="translate(-12612.645,-2196.2317)"
       x1="-1"
       y1="5917.5"
       x2="11984"
       y2="5917.5" />
    <linearGradient
       inkscape:collect="always"
       xlink:href="#linearGradient3541"
       id="linearGradient6493"
       gradientUnits="userSpaceOnUse"
       gradientTransform="translate(-12612.645,-2196.2317)"
       x1="-1"
       y1="5917.5"
       x2="11984"
       y2="5917.5" />
    <linearGradient
       inkscape:collect="always"
       xlink:href="#linearGradient3541"
       id="linearGradient6495"
       gradientUnits="userSpaceOnUse"
       gradientTransform="translate(-12612.645,-2196.2317)"
       x1="-1"
       y1="5917.5"
       x2="11984"
       y2="5917.5" />
    <linearGradient
       inkscape:collect="always"
       xlink:href="#linearGradient3541"
       id="linearGradient6497"
       gradientUnits="userSpaceOnUse"
       gradientTransform="translate(-12612.645,-2196.2317)"
       x1="-1"
       y1="5917.5"
       x2="11984"
       y2="5917.5" />
    <linearGradient
       inkscape:collect="always"
       xlink:href="#linearGradient3541"
       id="linearGradient6499"
       gradientUnits="userSpaceOnUse"
       gradientTransform="translate(-12612.645,-2196.2317)"
       x1="-1"
       y1="5917.5"
       x2="11984"
       y2="5917.5" />
    <linearGradient
       inkscape:collect="always"
       xlink:href="#linearGradient3541"
       id="linearGradient6501"
       gradientUnits="userSpaceOnUse"
       gradientTransform="translate(-12612.645,-2196.2317)"
       x1="-1"
       y1="5917.5"
       x2="11984"
       y2="5917.5" />
    <linearGradient
       inkscape:collect="always"
       xlink:href="#linearGradient3541"
       id="linearGradient6503"
       gradientUnits="userSpaceOnUse"
       gradientTransform="translate(-12612.645,-2196.2317)"
       x1="-1"
       y1="5917.5"
       x2="11984"
       y2="5917.5" />
    <linearGradient
       inkscape:collect="always"
       xlink:href="#linearGradient3541"
       id="linearGradient6505"
       gradientUnits="userSpaceOnUse"
       gradientTransform="translate(-12612.645,-2196.2317)"
       x1="-1"
       y1="5917.5"
       x2="11984"
       y2="5917.5" />
    <linearGradient
       inkscape:collect="always"
       xlink:href="#linearGradient3541"
       id="linearGradient6507"
       gradientUnits="userSpaceOnUse"
       gradientTransform="translate(-12612.645,-2196.2317)"
       x1="-1"
       y1="5917.5"
       x2="11984"
       y2="5917.5" />
    <linearGradient
       inkscape:collect="always"
       xlink:href="#linearGradient3541"
       id="linearGradient6509"
       gradientUnits="userSpaceOnUse"
       gradientTransform="translate(-12612.645,-2196.2317)"
       x1="-1"
       y1="5917.5"
       x2="11984"
       y2="5917.5" />
    <linearGradient
       inkscape:collect="always"
       xlink:href="#linearGradient3541"
       id="linearGradient6511"
       gradientUnits="userSpaceOnUse"
       gradientTransform="translate(-12612.645,-2196.2317)"
       x1="-1"
       y1="5917.5"
       x2="11984"
       y2="5917.5" />
    <linearGradient
       inkscape:collect="always"
       xlink:href="#linearGradient3541"
       id="linearGradient6513"
       gradientUnits="userSpaceOnUse"
       gradientTransform="translate(-12612.645,-2196.2317)"
       x1="-1"
       y1="5917.5"
       x2="11984"
       y2="5917.5" />
    <linearGradient
       inkscape:collect="always"
       xlink:href="#linearGradient3541"
       id="linearGradient6515"
       gradientUnits="userSpaceOnUse"
       gradientTransform="translate(-12612.645,-2196.2317)"
       x1="-1"
       y1="5917.5"
       x2="11984"
       y2="5917.5" />
    <linearGradient
       inkscape:collect="always"
       xlink:href="#linearGradient3541"
       id="linearGradient6517"
       gradientUnits="userSpaceOnUse"
       gradientTransform="translate(-12612.645,-2196.2317)"
       x1="-1"
       y1="5917.5"
       x2="11984"
       y2="5917.5" />
    <linearGradient
       inkscape:collect="always"
       xlink:href="#linearGradient3541"
       id="linearGradient6519"
       gradientUnits="userSpaceOnUse"
       gradientTransform="translate(-12612.645,-2196.2317)"
       x1="-1"
       y1="5917.5"
       x2="11984"
       y2="5917.5" />
    <linearGradient
       inkscape:collect="always"
       xlink:href="#linearGradient3541"
       id="linearGradient6521"
       gradientUnits="userSpaceOnUse"
       gradientTransform="translate(-12612.645,-2196.2317)"
       x1="-1"
       y1="5917.5"
       x2="11984"
       y2="5917.5" />
    <linearGradient
       inkscape:collect="always"
       xlink:href="#linearGradient3541"
       id="linearGradient6523"
       gradientUnits="userSpaceOnUse"
       gradientTransform="translate(-12612.645,-2196.2317)"
       x1="-1"
       y1="5917.5"
       x2="11984"
       y2="5917.5" />
    <linearGradient
       inkscape:collect="always"
       xlink:href="#linearGradient3541"
       id="linearGradient6525"
       gradientUnits="userSpaceOnUse"
       gradientTransform="translate(-12612.645,-2196.2317)"
       x1="-1"
       y1="5917.5"
       x2="11984"
       y2="5917.5" />
    <linearGradient
       inkscape:collect="always"
       xlink:href="#linearGradient3541"
       id="linearGradient6527"
       gradientUnits="userSpaceOnUse"
       gradientTransform="translate(-12612.645,-2196.2317)"
       x1="-1"
       y1="5917.5"
       x2="11984"
       y2="5917.5" />
    <linearGradient
       inkscape:collect="always"
       xlink:href="#linearGradient3541"
       id="linearGradient6529"
       gradientUnits="userSpaceOnUse"
       gradientTransform="translate(-12612.645,-2196.2317)"
       x1="-1"
       y1="5917.5"
       x2="11984"
       y2="5917.5" />
    <linearGradient
       inkscape:collect="always"
       xlink:href="#linearGradient3541"
       id="linearGradient6531"
       gradientUnits="userSpaceOnUse"
       gradientTransform="translate(-12612.645,-2196.2317)"
       x1="-1"
       y1="5917.5"
       x2="11984"
       y2="5917.5" />
    <linearGradient
       inkscape:collect="always"
       xlink:href="#linearGradient3541"
       id="linearGradient6533"
       gradientUnits="userSpaceOnUse"
       gradientTransform="translate(-12612.645,-2196.2317)"
       x1="-1"
       y1="5917.5"
       x2="11984"
       y2="5917.5" />
    <linearGradient
       inkscape:collect="always"
       xlink:href="#linearGradient3541"
       id="linearGradient6535"
       gradientUnits="userSpaceOnUse"
       gradientTransform="translate(-12612.645,-2196.2317)"
       x1="-1"
       y1="5917.5"
       x2="11984"
       y2="5917.5" />
    <linearGradient
       inkscape:collect="always"
       xlink:href="#linearGradient3541"
       id="linearGradient6537"
       gradientUnits="userSpaceOnUse"
       gradientTransform="translate(-12612.645,-2196.2317)"
       x1="-1"
       y1="5917.5"
       x2="11984"
       y2="5917.5" />
    <linearGradient
       inkscape:collect="always"
       xlink:href="#linearGradient3541"
       id="linearGradient6539"
       gradientUnits="userSpaceOnUse"
       gradientTransform="translate(-12612.645,-2196.2317)"
       x1="-1"
       y1="5917.5"
       x2="11984"
       y2="5917.5" />
    <linearGradient
       inkscape:collect="always"
       xlink:href="#linearGradient3541"
       id="linearGradient6541"
       gradientUnits="userSpaceOnUse"
       gradientTransform="translate(-12612.645,-2196.2317)"
       x1="-1"
       y1="5917.5"
       x2="11984"
       y2="5917.5" />
    <linearGradient
       inkscape:collect="always"
       xlink:href="#linearGradient3541"
       id="linearGradient6543"
       gradientUnits="userSpaceOnUse"
       gradientTransform="translate(-12612.645,-2196.2317)"
       x1="-1"
       y1="5917.5"
       x2="11984"
       y2="5917.5" />
    <linearGradient
       inkscape:collect="always"
       xlink:href="#linearGradient3541"
       id="linearGradient6545"
       gradientUnits="userSpaceOnUse"
       gradientTransform="translate(-12612.645,-2196.2317)"
       x1="-1"
       y1="5917.5"
       x2="11984"
       y2="5917.5" />
    <linearGradient
       inkscape:collect="always"
       xlink:href="#linearGradient3541"
       id="linearGradient6547"
       gradientUnits="userSpaceOnUse"
       gradientTransform="translate(-12612.645,-2196.2317)"
       x1="-1"
       y1="5917.5"
       x2="11984"
       y2="5917.5" />
    <linearGradient
       inkscape:collect="always"
       xlink:href="#linearGradient3541"
       id="linearGradient6549"
       gradientUnits="userSpaceOnUse"
       gradientTransform="translate(-12612.645,-2196.2317)"
       x1="-1"
       y1="5917.5"
       x2="11984"
       y2="5917.5" />
    <linearGradient
       inkscape:collect="always"
       xlink:href="#linearGradient3541"
       id="linearGradient6551"
       gradientUnits="userSpaceOnUse"
       gradientTransform="translate(-12612.645,-2196.2317)"
       x1="-1"
       y1="5917.5"
       x2="11984"
       y2="5917.5" />
    <linearGradient
       inkscape:collect="always"
       xlink:href="#linearGradient3541"
       id="linearGradient6553"
       gradientUnits="userSpaceOnUse"
       gradientTransform="translate(-12612.645,-2196.2317)"
       x1="-1"
       y1="5917.5"
       x2="11984"
       y2="5917.5" />
  </defs>
  <sodipodi:namedview
     id="base"
     pagecolor="#ffffff"
     bordercolor="#666666"
     borderopacity="1.0"
     inkscape:pageopacity="0.0"
     inkscape:pageshadow="2"
     inkscape:zoom="0.35"
     inkscape:cx="400"
     inkscape:cy="788.57143"
     inkscape:document-units="mm"
     inkscape:current-layer="g5696"
     showgrid="false"
     inkscape:window-width="958"
     inkscape:window-height="991"
     inkscape:window-x="952"
     inkscape:window-y="0"
     inkscape:window-maximized="0" />
  <metadata
     id="metadata5">
    <rdf:RDF>
      <cc:Work
         rdf:about="">
        <dc:format>image/svg+xml</dc:format>
        <dc:type
           rdf:resource="http://purl.org/dc/dcmitype/StillImage" />
        <dc:title></dc:title>
      </cc:Work>
    </rdf:RDF>
  </metadata>
  <g
     inkscape:label="Capa 1"
     inkscape:groupmode="layer"
     id="layer1">
    <g
       style="clip-rule:evenodd;fill-rule:evenodd;image-rendering:optimizeQuality;shape-rendering:geometricPrecision;text-rendering:geometricPrecision"
       id="g5696"
       transform="matrix(0.18988564,0,0,0.18988564,1693.1974,21.474506)">
      <g
         style="clip-rule:evenodd;fill-rule:evenodd;image-rendering:optimizeQuality;shape-rendering:geometricPrecision;text-rendering:geometricPrecision"
         id="g6032"
         transform="matrix(0.95952351,0,0,0.95952351,-2076.072,-5176.4652)">
        <path
           class="fil0"
           d="m -6328.645,5292.7683 c 0,1 -6,10 -12,25 -6,15 -12,37 -12,61 0,19 4,40 14,61 11,21 28,41 54,59 7,5 17,3 22,-4 5,-7 3,-17 -4,-22 -22,-15 -35,-31 -43,-47 -8,-16 -11,-32 -11,-47 0,-19 5,-37 10,-50 2,-6 5,-12 7,-15 1,-2 2,-3 2,-4 l 1,-1 v 0 l -2,-1 2,1 v 0 l -2,-1 2,1 c 5,-7 2,-17 -5,-22 -7,-5 -17,-2 -22,5 z"
           id="path591"
           style="fill:url(#linearGradient6477);fill-opacity:1;fill-rule:nonzero"
           inkscape:connector-curvature="0" />
        <path
           class="fil0"
           d="m -6314.645,5311.7683 v 0 c 1,1 14,11 27,28 13,17 25,41 25,69 0,20 -6,42 -23,68 -5,7 -3,17 5,22 7,5 17,3 22,-5 20,-30 28,-59 28,-85 0,-19 -4,-36 -10,-51 -9,-23 -23,-40 -34,-52 -11,-12 -20,-19 -21,-19 -7,-5 -17,-4 -22,3 -5,7 -4,17 3,22 z"
           id="path593"
           style="fill:url(#linearGradient6479);fill-opacity:1;fill-rule:nonzero"
           inkscape:connector-curvature="0" />
        <path
           class="fil0"
           d="m -6178.645,5366.7683 c -1,1 -13,12 -26,32 -13,20 -26,48 -26,83 0,29 10,63 37,95 6,7 15,8 22,2 7,-6 8,-15 2,-22 -23,-28 -30,-53 -30,-75 0,-26 10,-49 21,-66 5,-8 11,-15 15,-19 2,-2 4,-4 5,-5 l 1,-1 v 0 0 c 6,-6 7,-16 1,-22 -6,-6 -16,-7 -22,-1 z"
           id="path595"
           style="fill:url(#linearGradient6481);fill-opacity:1;fill-rule:nonzero"
           inkscape:connector-curvature="0" />
        <path
           class="fil0"
           d="m -6169.645,5389.7683 1,-1 -1,1 v 0 l 1,-1 -1,1 c 0,1 7,10 14,24 7,14 13,34 13,55 0,14 -3,28 -9,42 -7,15 -18,30 -35,45 -7,6 -7,16 -2,22 6,7 16,7 22,2 21,-18 35,-37 44,-56 9,-19 12,-38 12,-56 0,-28 -8,-52 -16,-70 -8,-17 -16,-28 -17,-29 -5,-7 -15,-8 -22,-3 -7,5 -8,15 -3,22 z"
           id="path597"
           style="fill:url(#linearGradient6483);fill-opacity:1;fill-rule:nonzero"
           inkscape:connector-curvature="0" />
        <path
           class="fil0"
           d="m -6066.645,5510.7683 c -1,0 -23,10 -46,32 -11,11 -23,24 -32,42 -9,17 -15,38 -15,61 0,19 4,39 12,60 3,8 12,12 20,9 8,-3 12,-12 9,-20 -7,-19 -10,-35 -10,-49 0,-18 4,-33 11,-47 10,-20 26,-35 39,-45 7,-5 13,-9 17,-11 2,-1 4,-2 5,-3 l 1,-1 v 0 -1 1 0 -1 1 c 8,-4 12,-13 8,-21 -4,-8 -13,-12 -21,-8 v 0 z"
           id="path599"
           style="fill:url(#linearGradient6485);fill-opacity:1;fill-rule:nonzero"
           inkscape:connector-curvature="0" />
        <path
           class="fil0"
           d="m -6065.645,5534.7683 6,-2 -6,2 v 0 l 6,-2 -6,2 c 0,0 7,20 7,44 0,18 -3,39 -14,58 -11,19 -29,37 -62,50 -8,3 -12,12 -9,21 3,8 12,12 21,9 38,-15 63,-39 77,-64 14,-25 18,-51 18,-73 0,-31 -8,-54 -8,-55 -3,-8 -12,-13 -20,-10 -8,3 -13,12 -10,20 z"
           id="path601"
           style="fill:url(#linearGradient6487);fill-opacity:1;fill-rule:nonzero"
           inkscape:connector-curvature="0" />
        <path
           class="fil0"
           d="m -5994.645,5703.7683 c 0,0 -4,0 -10,0 -16,0 -49,2 -82,20 -16,9 -33,22 -46,40 -13,18 -23,42 -27,71 -1,9 5,17 13,18 9,1 17,-5 18,-13 4,-25 11,-44 21,-58 15,-21 35,-33 55,-39 19,-7 38,-8 48,-8 2,0 4,0 6,0 h 1 v 0 -1 1 0 -1 1 c 9,1 16,-6 17,-14 1,-9 -6,-16 -14,-17 z"
           id="path603"
           style="fill:url(#linearGradient6489);fill-opacity:1;fill-rule:nonzero"
           inkscape:connector-curvature="0" />
        <path
           class="fil0"
           d="m -6004.645,5724.7683 5,1 -5,-1 v 0 l 5,1 -5,-1 c 0,0 -5,27 -22,52 -8,13 -20,25 -35,34 -15,9 -33,15 -58,15 -6,0 -13,0 -20,-1 -9,-1 -17,5 -18,14 -1,9 5,17 14,18 8,1 16,2 24,2 30,0 55,-8 75,-20 30,-18 47,-45 57,-67 10,-22 13,-39 13,-40 1,-9 -4,-17 -13,-18 -9,-1 -17,4 -18,13 v 0 z"
           id="path605"
           style="fill:url(#linearGradient6491);fill-opacity:1;fill-rule:nonzero"
           inkscape:connector-curvature="0" />
        <path
           class="fil0"
           d="m -6004.645,5893.7683 c -1,-1 -36,-20 -82,-21 -20,0 -42,4 -63,15 -21,11 -42,30 -60,57 -5,7 -2,17 5,22 7,5 17,2 22,-5 15,-24 31,-38 47,-46 16,-8 33,-12 49,-12 18,0 35,4 47,8 6,2 11,4 14,6 2,1 3,1 4,2 h 1 v 0 l 1,-3 -1,3 v 0 l 1,-3 -1,3 c 8,4 17,2 21,-6 4,-8 2,-17 -6,-21 z"
           id="path607"
           style="fill:url(#linearGradient6493);fill-opacity:1;fill-rule:nonzero"
           inkscape:connector-curvature="0" />
        <path
           class="fil0"
           d="m -6022.645,5909.7683 6,4 -6,-4 v 0 l 6,4 -6,-4 c 0,0 -10,15 -28,29 -9,7 -19,14 -31,19 -12,5 -25,8 -40,8 -19,0 -40,-5 -65,-20 -7,-5 -17,-2 -22,5 -5,7 -2,17 5,22 29,18 56,25 81,25 20,0 38,-4 53,-11 23,-10 41,-24 53,-36 12,-12 19,-22 19,-22 5,-7 3,-17 -4,-22 -7,-5 -17,-3 -22,4 z"
           id="path609"
           style="fill:url(#linearGradient6495);fill-opacity:1;fill-rule:nonzero"
           inkscape:connector-curvature="0" />
        <path
           class="fil0"
           d="m -6069.645,6067.7683 c -1,-1 -12,-15 -33,-30 -20,-15 -50,-30 -87,-30 -27,0 -58,9 -88,31 -7,5 -9,15 -4,22 5,7 15,9 22,4 26,-19 50,-25 70,-25 28,0 52,12 69,24 9,6 15,13 20,17 2,2 4,4 5,5 l 1,1 v 0 0 c 5,7 15,8 22,3 7,-5 8,-15 3,-22 z"
           id="path611"
           style="fill:url(#linearGradient6497);fill-opacity:1;fill-rule:nonzero"
           inkscape:connector-curvature="0" />
        <path
           class="fil0"
           d="m -6092.645,6075.7683 1,2 -1,-2 v 0 l 1,2 -1,-2 c 0,0 -9,6 -22,11 -13,5 -31,10 -51,10 -15,0 -30,-3 -45,-10 -15,-8 -31,-20 -46,-41 -5,-7 -15,-9 -22,-3 -7,5 -9,15 -3,22 18,24 37,40 58,50 20,10 41,14 59,14 26,0 48,-7 64,-13 16,-7 26,-13 27,-13 7,-5 9,-15 4,-22 -5,-7 -15,-9 -22,-4 z"
           id="path613"
           style="fill:url(#linearGradient6499);fill-opacity:1;fill-rule:nonzero"
           inkscape:connector-curvature="0" />
        <path
           class="fil0"
           d="m -6193.645,6193.7683 c 0,-1 -10,-23 -32,-45 -11,-11 -24,-23 -41,-31 -17,-9 -37,-14 -60,-14 -19,0 -40,4 -62,13 -8,3 -12,12 -9,20 3,8 12,12 20,9 19,-8 36,-11 50,-11 18,0 33,4 46,11 20,10 35,25 45,39 5,7 9,12 11,17 1,2 2,4 3,5 l 1,1 v 0 h 1 -1 v 0 h 1 -1 c 4,8 13,11 21,8 8,-4 11,-13 8,-21 z"
           id="path615"
           style="fill:url(#linearGradient6501);fill-opacity:1;fill-rule:nonzero"
           inkscape:connector-curvature="0" />
        <path
           class="fil0"
           d="m -6217.645,6195.7683 2,5 -2,-5 v 0 l 2,5 -2,-5 c 0,0 -20,7 -46,7 -18,0 -38,-3 -57,-14 -19,-11 -37,-29 -50,-60 -3,-8 -13,-12 -21,-8 -8,3 -12,13 -8,21 16,37 39,62 64,76 25,14 51,18 73,18 32,0 56,-9 57,-9 8,-3 12,-12 9,-20 -3,-8 -12,-12 -20,-9 z"
           id="path617"
           style="fill:url(#linearGradient6503);fill-opacity:1;fill-rule:nonzero"
           inkscape:connector-curvature="0" />
        <path
           class="fil0"
           d="m -6356.645,6284.7683 c 0,-1 -4,-33 -24,-66 -10,-17 -25,-34 -45,-46 -20,-13 -47,-21 -79,-21 -5,0 -10,0 -15,1 -9,1 -15,8 -15,17 1,9 8,15 17,15 4,0 8,0 12,0 27,0 47,7 62,16 23,14 37,37 45,56 4,10 6,18 8,25 1,3 1,6 1,7 v 2 0 c 1,9 9,15 18,14 9,-1 15,-9 14,-18 z"
           id="path619"
           style="fill:url(#linearGradient6505);fill-opacity:1;fill-rule:nonzero"
           inkscape:connector-curvature="0" />
        <path
           class="fil0"
           d="m -6380.645,6278.7683 v 0 0 0 0 h -2 c -7,0 -37,-1 -65,-16 -14,-7 -27,-17 -38,-32 -11,-15 -19,-35 -21,-62 -1,-9 -8,-15 -17,-14 -9,1 -15,8 -14,17 3,32 13,58 27,78 21,30 50,45 75,53 25,8 46,9 54,9 2,0 3,0 3,0 9,0 15,-8 15,-16 0,-9 -8,-15 -16,-15 z"
           id="path621"
           style="fill:url(#linearGradient6507);fill-opacity:1;fill-rule:nonzero"
           inkscape:connector-curvature="0" />
        <path
           class="fil0"
           d="m -6798.645,5309.7683 2,-1 -2,1 2,-1 -2,1 c 1,1 19,33 19,70 0,15 -3,31 -11,47 -8,16 -21,32 -43,47 -7,5 -9,15 -4,22 5,7 15,9 22,4 26,-18 43,-38 54,-59 11,-21 14,-42 14,-61 0,-24 -6,-46 -12,-61 -6,-15 -12,-25 -12,-25 -5,-7 -14,-10 -22,-5 -7,5 -10,14 -5,22 z"
           id="path623"
           style="fill:url(#linearGradient6509);fill-opacity:1;fill-rule:nonzero"
           inkscape:connector-curvature="0" />
        <path
           class="fil0"
           d="m -6804.645,5286.7683 c -1,1 -16,12 -32,33 -8,10 -16,23 -22,38 -6,15 -10,32 -10,51 0,26 8,55 28,85 5,7 15,9 22,5 7,-5 9,-15 4,-22 -17,-26 -22,-48 -23,-68 0,-14 3,-28 8,-39 7,-18 18,-32 28,-42 5,-5 9,-9 12,-11 1,-1 3,-2 3,-3 l 1,-1 v 0 l -1,-2 1,2 v 0 l -1,-2 1,2 c 7,-5 9,-15 3,-22 -5,-7 -15,-9 -22,-3 z"
           id="path625"
           style="fill:url(#linearGradient6511);fill-opacity:1;fill-rule:nonzero"
           inkscape:connector-curvature="0" />
        <path
           class="fil0"
           d="m -6943.645,5390.7683 v 0 c 1,1 12,11 22,27 10,17 20,39 20,64 0,22 -7,47 -30,75 -6,7 -5,17 2,22 7,6 17,5 22,-2 27,-33 37,-66 37,-95 0,-34 -13,-63 -26,-83 -13,-20 -26,-31 -26,-32 -6,-6 -16,-5 -22,1 -6,6 -5,16 1,22 z"
           id="path627"
           style="fill:url(#linearGradient6513);fill-opacity:1;fill-rule:nonzero"
           inkscape:connector-curvature="0" />
        <path
           class="fil0"
           d="m -6955.645,5369.7683 c 0,1 -9,11 -17,29 -8,17 -16,42 -17,70 0,18 3,37 12,56 9,19 23,38 44,56 7,6 17,5 22,-2 6,-7 5,-17 -2,-22 -18,-15 -29,-30 -35,-45 -7,-15 -9,-29 -9,-42 0,-22 7,-42 14,-56 3,-7 7,-13 9,-17 1,-2 2,-3 3,-4 l 1,-1 v 0 l -1,-1 1,1 v 0 l -1,-1 1,1 c 5,-7 4,-17 -3,-22 -7,-5 -17,-4 -22,3 z"
           id="path629"
           style="fill:url(#linearGradient6515);fill-opacity:1;fill-rule:nonzero"
           inkscape:connector-curvature="0" />
        <path
           class="fil0"
           d="m -7046.645,5539.7683 2,-5 -2,5 v 0 l 2,-5 -2,5 c 0,0 20,9 38,27 9,9 18,20 25,33 7,13 11,28 11,46 0,14 -3,31 -10,49 -3,8 1,17 9,20 8,3 17,-1 20,-9 8,-22 12,-42 12,-60 0,-23 -6,-44 -15,-61 -13,-26 -33,-44 -48,-56 -16,-12 -29,-17 -29,-18 -8,-4 -17,0 -21,8 -4,8 0,17 8,21 z"
           id="path631"
           style="fill:url(#linearGradient6517);fill-opacity:1;fill-rule:nonzero"
           inkscape:connector-curvature="0" />
        <path
           class="fil0"
           d="m -7065.645,5524.7683 c 0,1 -8,24 -8,55 0,22 4,48 18,73 14,25 39,48 77,64 8,3 17,-1 21,-9 3,-8 -1,-17 -9,-21 -33,-13 -51,-31 -62,-50 -11,-19 -14,-40 -14,-58 0,-13 2,-24 3,-32 1,-4 2,-7 2,-9 l 1,-2 v -1 0 l -6,-2 5,2 v 0 l -6,-2 5,2 c 3,-8 -1,-17 -10,-20 -8,-3 -17,1 -20,10 z"
           id="path633"
           style="fill:url(#linearGradient6519);fill-opacity:1;fill-rule:nonzero"
           inkscape:connector-curvature="0" />
        <path
           class="fil0"
           d="m -7103.645,5734.7683 v -1 1 0 -1 1 c 0,0 3,0 7,0 13,0 42,2 67,16 13,7 25,17 35,31 10,14 18,32 21,58 1,9 9,15 18,13 9,-1 15,-9 13,-18 -4,-30 -14,-53 -27,-71 -20,-28 -46,-43 -70,-51 -24,-8 -46,-9 -58,-9 -6,0 -10,0 -10,0 -9,1 -15,8 -14,17 1,9 8,15 17,14 v 0 z"
           id="path635"
           style="fill:url(#linearGradient6521);fill-opacity:1;fill-rule:nonzero"
           inkscape:connector-curvature="0" />
        <path
           class="fil0"
           d="m -7126.645,5730.7683 c 0,1 5,31 26,63 10,16 25,32 45,44 20,12 45,20 75,20 8,0 16,-1 24,-2 9,-1 15,-9 14,-18 -1,-9 -9,-15 -18,-14 -7,1 -14,1 -20,1 -25,0 -44,-6 -59,-15 -22,-14 -37,-35 -45,-53 -4,-9 -7,-17 -9,-23 -1,-3 -1,-5 -2,-7 v -2 0 c -1,-9 -10,-14 -18,-13 -9,2 -14,10 -13,18 v 0 z"
           id="path637"
           style="fill:url(#linearGradient6523);fill-opacity:1;fill-rule:nonzero"
           inkscape:connector-curvature="0" />
        <path
           class="fil0"
           d="m -7080.645,5921.7683 -2,-3 1,3 v 0 l -2,-3 1,3 c 1,0 31,-17 66,-16 16,0 32,3 49,12 16,9 33,23 48,46 5,7 14,10 22,5 7,-5 10,-14 5,-22 -17,-28 -38,-46 -60,-57 -21,-11 -43,-15 -63,-15 -46,0 -80,20 -82,21 -8,4 -10,14 -6,21 4,8 14,10 21,6 z"
           id="path639"
           style="fill:url(#linearGradient6525);fill-opacity:1;fill-rule:nonzero"
           inkscape:connector-curvature="0" />
        <path
           class="fil0"
           d="m -7103.645,5926.7683 c 1,1 12,18 33,35 11,9 23,17 39,24 15,7 33,11 53,11 25,0 52,-7 81,-25 7,-5 10,-14 5,-22 -5,-7 -14,-10 -22,-5 -25,15 -46,20 -65,20 -15,0 -28,-3 -41,-8 -18,-8 -33,-20 -43,-30 -5,-5 -9,-10 -12,-13 -1,-2 -2,-3 -3,-4 l -1,-1 v 0 l -2,1 2,-1 v 0 l -2,1 2,-1 c -5,-7 -15,-9 -22,-4 -7,5 -9,15 -4,22 z"
           id="path641"
           style="fill:url(#linearGradient6527);fill-opacity:1;fill-rule:nonzero"
           inkscape:connector-curvature="0" />
        <path
           class="fil0"
           d="m -7006.645,6087.7683 v 0 c 1,-1 11,-14 28,-26 17,-12 40,-23 67,-23 21,0 44,6 70,25 7,5 17,3 22,-4 5,-7 3,-17 -4,-22 -31,-22 -61,-31 -88,-31 -37,0 -67,16 -87,30 -21,15 -32,30 -33,30 -5,7 -4,17 3,22 7,5 17,4 22,-3 z"
           id="path643"
           style="fill:url(#linearGradient6529);fill-opacity:1;fill-rule:nonzero"
           inkscape:connector-curvature="0" />
        <path
           class="fil0"
           d="m -7025.645,6101.7683 c 1,0 11,7 27,13 16,6 38,13 64,13 19,0 39,-4 59,-14 20,-10 40,-26 58,-50 5,-7 4,-17 -3,-22 -7,-5 -17,-4 -22,3 -15,21 -31,33 -46,41 -15,8 -31,10 -45,10 -20,0 -39,-5 -52,-11 -7,-3 -12,-5 -16,-7 -2,-1 -3,-2 -4,-2 l -1,-1 v 0 l -1,2 1,-2 v 0 l -1,2 1,-2 c -7,-5 -17,-3 -22,4 -5,7 -3,17 4,22 z"
           id="path645"
           style="fill:url(#linearGradient6531);fill-opacity:1;fill-rule:nonzero"
           inkscape:connector-curvature="0" />
        <path
           class="fil0"
           d="m -6878.645,6206.7683 -5,-2 5,2 v 0 l -5,-2 5,2 c 0,0 9,-19 27,-37 9,-9 20,-18 33,-24 13,-6 28,-11 46,-11 15,0 31,3 50,11 8,3 17,-1 20,-9 3,-8 -1,-17 -9,-20 -22,-9 -43,-13 -62,-13 -23,0 -43,6 -60,14 -26,13 -44,32 -55,48 -12,16 -18,28 -18,29 -4,8 0,17 8,21 8,4 17,0 21,-8 z"
           id="path647"
           style="fill:url(#linearGradient6533);fill-opacity:1;fill-rule:nonzero"
           inkscape:connector-curvature="0" />
        <path
           class="fil0"
           d="m -6894.645,6224.7683 c 1,0 25,9 57,9 22,0 48,-4 73,-18 25,-14 48,-38 64,-76 3,-8 0,-17 -8,-21 -8,-3 -17,0 -21,8 -13,32 -31,50 -50,60 -19,11 -39,14 -57,14 -13,0 -25,-2 -33,-4 -4,-1 -7,-2 -10,-2 l -2,-1 h -1 v 0 l -2,5 2,-5 v 0 l -2,5 2,-5 c -8,-3 -17,1 -20,9 -3,8 1,17 9,20 z"
           id="path649"
           style="fill:url(#linearGradient6535);fill-opacity:1;fill-rule:nonzero"
           inkscape:connector-curvature="0" />
        <path
           class="fil0"
           d="m -6712.645,6287.7683 -4,-1 4,1 v 0 l -4,-1 4,1 c 0,-1 4,-29 21,-55 8,-13 20,-26 35,-35 15,-9 35,-16 61,-16 4,0 8,0 12,0 9,1 16,-6 17,-15 1,-9 -6,-16 -15,-17 -5,0 -10,-1 -15,-1 -32,0 -58,8 -79,21 -31,19 -48,48 -57,71 -10,23 -12,41 -12,42 -1,9 5,17 14,18 9,1 17,-5 18,-14 z"
           id="path651"
           style="fill:url(#linearGradient6537);fill-opacity:1;fill-rule:nonzero"
           inkscape:connector-curvature="0" />
        <path
           class="fil0"
           d="m -6721.645,6309.7683 c 0,0 1,0 3,0 10,0 44,-1 79,-19 18,-9 35,-22 49,-42 14,-20 24,-45 27,-78 1,-9 -6,-16 -14,-17 -9,-1 -16,6 -17,14 -3,28 -11,48 -21,62 -16,22 -38,34 -59,41 -20,6 -39,7 -44,7 h -1 v 0 1 -1 1 -1 c -9,0 -16,6 -16,15 0,9 6,16 15,16 z"
           id="path653"
           style="fill:url(#linearGradient6539);fill-opacity:1;fill-rule:nonzero"
           inkscape:connector-curvature="0" />
        <path
           class="fil0"
           d="m -6642.645,6105.7683 v -77 h -16 l 6,15 c 2,-1 13,-6 24,-20 11,-14 21,-38 21,-73 0,-18 -4,-34 -11,-48 -10,-20 -23,-35 -35,-44 -12,-9 -21,-14 -21,-14 l -7,14 h 16 c 0,0 0,-34 0,-266 h -16 l 9,13 c 53,-35 81,-85 96,-129 15,-44 17,-84 17,-101 0,-6 0,-9 0,-9 l -16,1 v 16 h 24 c 9,0 16,-7 16,-16 0,-9 -7,-16 -16,-16 h -24 c -4,0 -9,2 -11,5 -3,3 -5,7 -4,12 v 0 c 0,0 0,3 0,7 0,15 -2,51 -15,91 -13,40 -38,82 -83,113 -4,3 -7,8 -7,13 0,233 0,266 0,266 0,6 3,12 9,14 l 4,-8 -4,8 v 0 l 4,-8 -4,8 h 1 c 3,1 16,9 27,22 6,6 11,14 15,23 4,9 7,20 7,32 0,29 -8,45 -15,54 -3,5 -7,7 -9,9 l -2,2 v 0 l 3,6 -3,-6 v 0 l 3,6 -3,-6 c -6,2 -10,8 -10,15 v 77 c 0,9 7,16 16,16 9,0 16,-7 16,-16 z"
           id="path655"
           style="fill:url(#linearGradient6541);fill-opacity:1;fill-rule:nonzero"
           inkscape:connector-curvature="0" />
        <path
           class="fil0"
           d="m -6548.645,5382.7683 h 24 v -16 l -16,-1 c 0,0 0,4 0,9 0,17 2,56 17,101 15,44 43,94 96,129 l 9,-13 h -16 c 0,233 0,266 0,266 h 16 l -7,-14 c -1,1 -17,8 -34,25 -8,8 -17,19 -23,33 -6,13 -11,30 -11,48 0,35 10,58 21,73 11,15 22,20 24,20 l 6,-15 h -16 v 77 c 0,9 7,16 16,16 9,0 16,-7 16,-16 v -77 c 0,-6 -4,-12 -10,-15 l -3,6 3,-6 v 0 l -3,6 3,-6 c 0,0 -7,-3 -13,-12 -6,-9 -13,-25 -13,-52 0,-14 3,-25 8,-35 7,-15 17,-26 26,-33 4,-4 8,-6 11,-8 1,-1 3,-1 3,-2 h 1 v 0 l -3,-5 3,5 v 0 l -3,-5 3,5 c 5,-3 9,-8 9,-14 0,0 0,-34 0,-266 0,-5 -3,-10 -7,-13 -46,-31 -70,-73 -83,-113 -13,-40 -15,-76 -15,-91 0,-2 0,-4 0,-6 v -1 0 0 c 0,-4 -1,-9 -4,-12 -3,-3 -7,-5 -12,-5 h -24 c -9,0 -16,7 -16,16 0,9 7,16 16,16 z"
           id="path657"
           style="fill:url(#linearGradient6543);fill-opacity:1;fill-rule:nonzero"
           inkscape:connector-curvature="0" />
        <path
           class="fil0"
           d="m -6593.645,5763.7683 c -6,9 -10,19 -10,30 0,29 24,53 53,53 29,0 53,-24 53,-53 0,-11 -3,-21 -9,-30 -5,-7 -15,-9 -22,-4 -7,5 -9,15 -4,22 2,4 4,8 4,12 0,12 -10,22 -22,22 -12,0 -22,-10 -22,-22 0,-5 1,-9 4,-12 5,-7 3,-17 -4,-22 -7,-5 -17,-3 -22,4 z"
           id="path659"
           style="fill:url(#linearGradient6545);fill-opacity:1;fill-rule:nonzero"
           inkscape:connector-curvature="0" />
        <path
           class="fil0"
           d="m -6530.645,5657.7683 h 16 c 0,-20 -16,-35 -35,-35 -20,0 -35,16 -35,35 0,20 16,35 35,35 20,0 35,-16 35,-35 h -32 c 0,2 -2,4 -4,4 -2,0 -4,-2 -4,-4 0,-2 2,-4 4,-4 2,0 4,2 4,4 z"
           id="path661"
           style="fill:url(#linearGradient6547);fill-opacity:1;fill-rule:nonzero"
           inkscape:connector-curvature="0" />
        <path
           class="fil0"
           d="m -6578.645,5677.7683 7,-2 -7,2 v 0 l 7,-2 -7,2 c 0,0 2,9 2,22 0,16 -3,40 -19,65 -5,7 -2,17 5,22 7,4 17,2 22,-5 19,-31 23,-60 23,-81 0,-18 -3,-30 -4,-31 -2,-8 -11,-13 -20,-11 -8,3 -13,11 -11,20 z"
           id="path663"
           style="fill:url(#linearGradient6549);fill-opacity:1;fill-rule:nonzero"
           inkscape:connector-curvature="0" />
        <path
           class="fil0"
           d="m -6551.645,5668.7683 c 0,1 -4,13 -4,31 0,21 4,50 23,81 4,7 14,10 22,5 7,-4 10,-14 5,-22 -15,-25 -19,-49 -19,-65 0,-7 1,-13 1,-17 0,-2 1,-3 1,-4 v -1 0 l -7,-2 7,2 v 0 l -7,-2 7,2 c 2,-8 -2,-17 -11,-20 -8,-3 -17,2 -20,11 z"
           id="path665"
           style="fill:url(#linearGradient6551);fill-opacity:1;fill-rule:nonzero"
           inkscape:connector-curvature="0" />
        <path
           class="fil0"
           d="m -6557.645,5370.7683 v 268 c 0,4 4,8 8,8 4,0 8,-4 8,-8 v -268 c 0,-4 -4,-8 -8,-8 -4,0 -8,4 -8,8 z"
           id="path667"
           style="fill:url(#linearGradient6553);fill-opacity:1;fill-rule:nonzero"
           inkscape:connector-curvature="0" />
        <path
           class="fil0"
           d="m -6659.645,6049.7683 h 219 c 4,0 8,-4 8,-8 0,-4 -4,-8 -8,-8 h -219 c -4,0 -8,4 -8,8 0,4 4,8 8,8 z"
           id="path669"
           style="fill:url(#linearGradient4153);fill-opacity:1;fill-rule:nonzero"
           inkscape:connector-curvature="0" />
      </g>
    </g>
  </g>
</svg>
