<?xml version="1.0" encoding="UTF-8" standalone="no"?>
<!-- Created with Inkscape (http://www.inkscape.org/) -->

<svg
   xmlns:osb="http://www.openswatchbook.org/uri/2009/osb"
   xmlns:dc="http://purl.org/dc/elements/1.1/"
   xmlns:cc="http://creativecommons.org/ns#"
   xmlns:rdf="http://www.w3.org/1999/02/22-rdf-syntax-ns#"
   xmlns:svg="http://www.w3.org/2000/svg"
   xmlns="http://www.w3.org/2000/svg"
   xmlns:xlink="http://www.w3.org/1999/xlink"
   xmlns:sodipodi="http://sodipodi.sourceforge.net/DTD/sodipodi-0.dtd"
   xmlns:inkscape="http://www.inkscape.org/namespaces/inkscape"
   width="210mm"
   height="297mm"
   viewBox="0 0 210 297"
   version="1.1"
   id="svg8"
   inkscape:version="0.92.4 (5da689c313, 2019-01-14)"
   sodipodi:docname="15.svg">
  <defs
     id="defs2">
    <linearGradient
       id="linearGradient3541"
       osb:paint="solid">
      <stop
         style="stop-color:#000000;stop-opacity:1;"
         offset="0"
         id="stop3539" />
    </linearGradient>
    <linearGradient
       inkscape:collect="always"
       xlink:href="#linearGradient3541"
       id="linearGradient3853"
       gradientUnits="userSpaceOnUse"
       x1="-1"
       y1="5917.5"
       x2="11984"
       y2="5917.5"
       gradientTransform="translate(-12612.645,-2196.2317)" />
    <linearGradient
       inkscape:collect="always"
       xlink:href="#linearGradient3541"
       id="linearGradient6798"
       gradientUnits="userSpaceOnUse"
       gradientTransform="translate(-12612.645,-2196.2317)"
       x1="-1"
       y1="5917.5"
       x2="11984"
       y2="5917.5" />
    <linearGradient
       inkscape:collect="always"
       xlink:href="#linearGradient3541"
       id="linearGradient6800"
       gradientUnits="userSpaceOnUse"
       gradientTransform="translate(-12612.645,-2196.2317)"
       x1="-1"
       y1="5917.5"
       x2="11984"
       y2="5917.5" />
    <linearGradient
       inkscape:collect="always"
       xlink:href="#linearGradient3541"
       id="linearGradient6802"
       gradientUnits="userSpaceOnUse"
       gradientTransform="translate(-12612.645,-2196.2317)"
       x1="-1"
       y1="5917.5"
       x2="11984"
       y2="5917.5" />
    <linearGradient
       inkscape:collect="always"
       xlink:href="#linearGradient3541"
       id="linearGradient6804"
       gradientUnits="userSpaceOnUse"
       gradientTransform="translate(-12612.645,-2196.2317)"
       x1="-1"
       y1="5917.5"
       x2="11984"
       y2="5917.5" />
    <linearGradient
       inkscape:collect="always"
       xlink:href="#linearGradient3541"
       id="linearGradient6806"
       gradientUnits="userSpaceOnUse"
       gradientTransform="translate(-12612.645,-2196.2317)"
       x1="-1"
       y1="5917.5"
       x2="11984"
       y2="5917.5" />
    <linearGradient
       inkscape:collect="always"
       xlink:href="#linearGradient3541"
       id="linearGradient6808"
       gradientUnits="userSpaceOnUse"
       gradientTransform="translate(-12612.645,-2196.2317)"
       x1="-1"
       y1="5917.5"
       x2="11984"
       y2="5917.5" />
  </defs>
  <sodipodi:namedview
     id="base"
     pagecolor="#ffffff"
     bordercolor="#666666"
     borderopacity="1.0"
     inkscape:pageopacity="0.0"
     inkscape:pageshadow="2"
     inkscape:zoom="0.35"
     inkscape:cx="400"
     inkscape:cy="902.85714"
     inkscape:document-units="mm"
     inkscape:current-layer="g5696"
     showgrid="false"
     inkscape:window-width="958"
     inkscape:window-height="991"
     inkscape:window-x="952"
     inkscape:window-y="0"
     inkscape:window-maximized="0" />
  <metadata
     id="metadata5">
    <rdf:RDF>
      <cc:Work
         rdf:about="">
        <dc:format>image/svg+xml</dc:format>
        <dc:type
           rdf:resource="http://purl.org/dc/dcmitype/StillImage" />
        <dc:title></dc:title>
      </cc:Work>
    </rdf:RDF>
  </metadata>
  <g
     inkscape:label="Capa 1"
     inkscape:groupmode="layer"
     id="layer1">
    <g
       style="clip-rule:evenodd;fill-rule:evenodd;image-rendering:optimizeQuality;shape-rendering:geometricPrecision;text-rendering:geometricPrecision"
       id="g5696"
       transform="matrix(0.18988564,0,0,0.18988564,1693.1974,21.474506)">
      <g
         style="clip-rule:evenodd;fill-rule:evenodd;image-rendering:optimizeQuality;shape-rendering:geometricPrecision;text-rendering:geometricPrecision"
         id="g5829"
         transform="matrix(0.93282554,0,0,0.93282554,-4013.1511,-1526.8444)">
        <path
           class="fil0"
           d="m -4967.645,1815.7683 c 1,0 72,20 156,20 35,0 72,-3 108,-13 8,-2 13,-11 11,-19 -2,-8 -11,-13 -19,-11 -32,9 -67,12 -100,12 -40,0 -77,-5 -104,-9 -14,-2 -25,-5 -32,-6 -4,-1 -7,-2 -9,-2 l -2,-1 h -1 c -8,-2 -16,3 -19,11 -2,8 3,16 11,19 z"
           id="path291"
           style="fill:url(#linearGradient6798);fill-opacity:1;fill-rule:nonzero"
           inkscape:connector-curvature="0" />
        <path
           class="fil0"
           d="m -4917.645,1709.7683 v 0 c 0,1 9,31 9,69 0,20 -3,42 -10,62 -7,20 -19,39 -39,54 -7,5 -8,15 -3,21 5,7 15,8 21,3 24,-19 40,-43 49,-68 9,-25 12,-50 12,-72 0,-43 -10,-77 -11,-77 -2,-8 -11,-12 -19,-10 -8,2 -12,11 -10,19 z"
           id="path293"
           style="fill:url(#linearGradient6800);fill-opacity:1;fill-rule:nonzero"
           inkscape:connector-curvature="0" />
        <path
           class="fil0"
           d="m -4840.645,1689.7683 c 0,0 -5,15 -10,36 -5,22 -10,51 -10,81 0,28 4,57 18,83 4,7 13,10 21,6 7,-4 10,-13 6,-21 -10,-19 -14,-43 -14,-68 0,-27 5,-54 9,-75 2,-10 5,-19 6,-24 1,-3 2,-5 2,-7 l 1,-2 v 0 0 c 3,-8 -1,-17 -9,-19 -8,-3 -17,1 -19,9 z"
           id="path295"
           style="fill:url(#linearGradient6802);fill-opacity:1;fill-rule:nonzero"
           inkscape:connector-curvature="0" />
        <path
           class="fil0"
           d="m -4188.645,2156.7683 -149,22 2,16 7,-14 c 0,0 -20,-10 -48,-20 -29,-10 -66,-20 -105,-20 -8,0 -16,0 -25,1 -43,5 -78,24 -112,47 -34,24 -69,52 -112,79 -1,1 -2,2 -4,3 -27,32 -54,65 -79,91 -12,13 -24,25 -35,34 -11,9 -20,15 -27,18 -3,1 -5,3 -6,5 -4,4 -6,11 -6,17 0,7 3,13 6,17 5,7 13,12 22,15 9,3 20,5 33,5 48,0 123,-26 219,-113 6,-6 7,-16 1,-22 -6,-6 -16,-7 -22,-1 -93,84 -161,105 -198,105 -13,0 -22,-3 -26,-5 -2,-1 -3,-2 -4,-3 v 0 l -3,2 h 4 v -2 l -3,2 h 4 -5 l 4,3 c 0,0 1,-2 1,-3 h -5 l 4,3 -12,-10 6,15 c 12,-5 23,-13 35,-23 18,-15 37,-35 57,-58 20,-22 40,-47 61,-71 l -12,-10 9,13 c 45,-29 80,-58 113,-80 33,-22 63,-38 98,-42 7,-1 14,-1 21,-1 33,0 68,9 95,18 13,5 24,9 32,13 4,2 7,3 9,4 l 2,1 h 1 v 0 c 3,2 6,2 10,2 l 149,-22 c 9,-1 15,-9 13,-18 -1,-9 -9,-15 -18,-13 z"
           id="path297"
           style="fill:url(#linearGradient6804);fill-opacity:1;fill-rule:nonzero"
           inkscape:connector-curvature="0" />
        <path
           class="fil0"
           d="m -4186.645,2423.7683 -195,-32 c -4,-1 -8,0 -11,2 0,0 -1,1 -4,2 -18,12 -101,64 -194,114 -46,25 -96,49 -140,67 -22,9 -43,16 -62,21 -19,5 -36,8 -49,8 h -2 c -22,0 -54,-6 -91,-16 -55,-15 -120,-37 -175,-55 -28,-9 -53,-18 -74,-24 -11,-3 -20,-6 -28,-7 -8,-2 -15,-3 -22,-3 v 16 l 9,-13 -6,8 9,-4 c -1,-2 -2,-3 -4,-4 l -6,8 9,-4 -7,3 h 8 c 0,-1 0,-2 -1,-3 l -7,3 h 8 -4 4 v 0 h -4 4 v 0 0 0 0 0 c 0,0 1,-3 4,-7 4,-5 11,-11 21,-16 10,-5 22,-8 37,-8 11,0 24,2 39,7 108,38 185,51 241,51 47,0 78,-9 98,-19 20,-10 28,-21 29,-23 5,-7 3,-17 -4,-22 -7,-5 -17,-3 -22,4 l 6,4 -6,-4 v 0 l 6,4 -6,-4 c 0,0 -5,7 -20,14 -15,7 -40,14 -81,14 -50,0 -124,-11 -230,-49 -18,-6 -34,-9 -50,-9 -28,0 -51,9 -67,21 -8,6 -14,12 -19,19 -2,3 -4,7 -6,10 -1,4 -2,7 -2,12 0,3 1,6 2,10 2,3 4,7 8,9 3,2 6,3 9,3 3,0 12,1 23,4 19,5 47,14 78,24 47,15 102,35 154,50 26,8 51,14 74,19 23,5 44,8 61,8 h 3 c 18,0 39,-4 61,-11 39,-11 83,-29 128,-51 135,-64 276,-156 276,-156 l -9,-13 -3,16 195,32 c 9,1 17,-4 18,-13 1,-9 -4,-17 -13,-18 z"
           id="path299"
           style="fill:url(#linearGradient6806);fill-opacity:1;fill-rule:nonzero"
           inkscape:connector-curvature="0" />
        <path
           class="fil0"
           d="m -4808.645,2399.7683 v 0 0 0 0 c 1,0 3,2 5,4 l 2,2 v 1 c 0,0 0,1 -1,3 -1,2 -4,6 -11,12 -6,5 -16,12 -30,19 -8,4 -11,13 -7,21 4,8 13,11 21,7 21,-10 35,-20 44,-30 5,-5 8,-10 11,-15 3,-5 4,-11 4,-16 0,-7 -2,-13 -5,-17 -4,-7 -9,-11 -13,-14 -4,-3 -7,-4 -8,-5 -8,-4 -17,0 -21,8 -4,8 0,17 8,21 z"
           id="path301"
           style="fill:url(#linearGradient6808);fill-opacity:1;fill-rule:nonzero"
           inkscape:connector-curvature="0" />
        <path
           class="fil0"
           d="m -4524.645,1972.7683 c -25,-57 -70,-114 -147,-153 -10,-8 -16,-14 -20,-20 -4,-6 -5,-10 -5,-14 0,-3 1,-6 2,-8 2,-4 6,-9 10,-12 4,-4 10,-7 13,-8 v 0 c 5,-2 8,-5 12,-8 6,-6 13,-13 20,-22 11,-13 21,-29 30,-45 4,-8 8,-16 11,-24 3,-8 5,-16 5,-24 0,-6 -1,-13 -5,-19 -4,-6 -10,-11 -17,-13 -8,-3 -16,-4 -24,-4 -11,0 -20,2 -29,3 -8,2 -15,3 -20,3 -4,0 -5,-1 -6,-1 -1,-1 -3,-2 -5,-6 v 0 c -8,-19 -21,-38 -38,-54 -8,-8 -18,-15 -29,-20 -11,-5 -22,-8 -35,-8 -2,0 -4,0 -6,0 -13,1 -24,5 -33,9 -14,7 -25,16 -35,22 -10,6 -19,10 -29,10 -6,0 -10,-2 -15,-4 -7,-4 -15,-12 -24,-19 -4,-4 -9,-8 -15,-11 -6,-3 -13,-5 -21,-5 -4,0 -8,1 -13,2 -7,2 -13,6 -18,11 -8,7 -13,17 -17,28 -3,11 -5,24 -5,37 0,27 7,60 21,97 9,23 17,43 23,60 6,17 9,32 9,46 0,11 -2,21 -7,33 -5,11 -14,23 -28,37 -15,15 -31,27 -46,41 -23,21 -45,46 -62,89 -17,42 -29,101 -37,192 -4,7 -14,23 -23,46 -13,29 -25,68 -26,109 0,25 5,50 18,74 13,24 34,45 64,61 16,9 35,16 56,22 l 15,-27 c -22,-6 -41,-13 -56,-21 -26,-14 -42,-31 -52,-49 -10,-18 -14,-38 -14,-59 0,-35 11,-70 23,-97 6,-14 12,-25 16,-33 2,-4 4,-7 5,-9 l 1,-2 v -1 0 c 1,-2 2,-5 2,-7 5,-61 12,-107 21,-142 7,-26 14,-47 22,-63 12,-24 26,-40 41,-55 15,-15 33,-28 52,-47 15,-15 26,-30 34,-45 7,-15 10,-30 10,-46 0,-18 -4,-37 -11,-55 -6,-19 -15,-39 -23,-61 -13,-34 -19,-64 -19,-86 0,-15 3,-27 6,-35 2,-4 4,-7 6,-9 2,-2 4,-3 6,-4 2,0 3,-1 4,-1 3,0 5,1 9,4 6,4 14,12 24,20 5,4 11,8 18,11 7,3 15,5 24,5 12,0 23,-3 32,-7 14,-7 25,-15 35,-22 11,-7 20,-11 33,-12 h 3 c 7,0 15,2 22,5 11,5 21,14 31,25 9,11 17,23 22,35 v 0 c 4,8 9,15 17,20 7,4 15,6 22,5 9,0 18,-2 26,-3 8,-2 16,-3 23,-3 5,0 10,1 14,2 v 0 0 2 c 0,4 -2,14 -7,23 -7,15 -18,32 -29,46 -5,7 -11,13 -15,17 -2,2 -4,4 -6,5 l -2,1 h -1 v 0 0 c -9,4 -19,10 -28,19 -4,5 -8,10 -11,16 -3,6 -5,14 -5,22 0,10 3,20 9,30 6,10 16,19 28,29 l 2,1 c 71,35 111,86 134,139 23,52 29,107 29,147 0,14 -1,27 -2,37 10,-2 21,-3 31,-3 1,-10 1,-21 1,-34 0,-43 -6,-101 -32,-159 z"
           id="path303"
           style="fill:url(#linearGradient3853);fill-opacity:1;fill-rule:nonzero"
           inkscape:connector-curvature="0" />
      </g>
    </g>
  </g>
</svg>
