<?xml version="1.0" encoding="UTF-8" standalone="no"?>
<!-- Created with Inkscape (http://www.inkscape.org/) -->

<svg
   xmlns:osb="http://www.openswatchbook.org/uri/2009/osb"
   xmlns:dc="http://purl.org/dc/elements/1.1/"
   xmlns:cc="http://creativecommons.org/ns#"
   xmlns:rdf="http://www.w3.org/1999/02/22-rdf-syntax-ns#"
   xmlns:svg="http://www.w3.org/2000/svg"
   xmlns="http://www.w3.org/2000/svg"
   xmlns:xlink="http://www.w3.org/1999/xlink"
   xmlns:sodipodi="http://sodipodi.sourceforge.net/DTD/sodipodi-0.dtd"
   xmlns:inkscape="http://www.inkscape.org/namespaces/inkscape"
   width="210mm"
   height="297mm"
   viewBox="0 0 210 297"
   version="1.1"
   id="svg8"
   inkscape:version="0.92.4 (5da689c313, 2019-01-14)"
   sodipodi:docname="2.svg">
  <defs
     id="defs2">
    <linearGradient
       inkscape:collect="always"
       xlink:href="#linearGradient3541"
       id="linearGradient3779"
       gradientUnits="userSpaceOnUse"
       x1="-1"
       y1="5917.5"
       x2="11984"
       y2="5917.5"
       gradientTransform="translate(-12612.645,-2196.2317)" />
    <linearGradient
       id="linearGradient3541"
       osb:paint="solid">
      <stop
         style="stop-color:#000000;stop-opacity:1;"
         offset="0"
         id="stop3539" />
    </linearGradient>
    <linearGradient
       inkscape:collect="always"
       xlink:href="#linearGradient3541"
       id="linearGradient4652"
       gradientUnits="userSpaceOnUse"
       gradientTransform="translate(-12612.645,-2196.2317)"
       x1="-1"
       y1="5917.5"
       x2="11984"
       y2="5917.5" />
    <linearGradient
       inkscape:collect="always"
       xlink:href="#linearGradient3541"
       id="linearGradient4654"
       gradientUnits="userSpaceOnUse"
       gradientTransform="translate(-12612.645,-2196.2317)"
       x1="-1"
       y1="5917.5"
       x2="11984"
       y2="5917.5" />
    <linearGradient
       inkscape:collect="always"
       xlink:href="#linearGradient3541"
       id="linearGradient4656"
       gradientUnits="userSpaceOnUse"
       gradientTransform="translate(-12612.645,-2196.2317)"
       x1="-1"
       y1="5917.5"
       x2="11984"
       y2="5917.5" />
    <linearGradient
       inkscape:collect="always"
       xlink:href="#linearGradient3541"
       id="linearGradient4658"
       gradientUnits="userSpaceOnUse"
       gradientTransform="translate(-12612.645,-2196.2317)"
       x1="-1"
       y1="5917.5"
       x2="11984"
       y2="5917.5" />
    <linearGradient
       inkscape:collect="always"
       xlink:href="#linearGradient3541"
       id="linearGradient4660"
       gradientUnits="userSpaceOnUse"
       gradientTransform="translate(-12612.645,-2196.2317)"
       x1="-1"
       y1="5917.5"
       x2="11984"
       y2="5917.5" />
    <linearGradient
       inkscape:collect="always"
       xlink:href="#linearGradient3541"
       id="linearGradient4662"
       gradientUnits="userSpaceOnUse"
       gradientTransform="translate(-12612.645,-2196.2317)"
       x1="-1"
       y1="5917.5"
       x2="11984"
       y2="5917.5" />
    <linearGradient
       inkscape:collect="always"
       xlink:href="#linearGradient3541"
       id="linearGradient4664"
       gradientUnits="userSpaceOnUse"
       gradientTransform="translate(-12612.645,-2196.2317)"
       x1="-1"
       y1="5917.5"
       x2="11984"
       y2="5917.5" />
    <linearGradient
       inkscape:collect="always"
       xlink:href="#linearGradient3541"
       id="linearGradient4666"
       gradientUnits="userSpaceOnUse"
       gradientTransform="translate(-12612.645,-2196.2317)"
       x1="-1"
       y1="5917.5"
       x2="11984"
       y2="5917.5" />
    <linearGradient
       inkscape:collect="always"
       xlink:href="#linearGradient3541"
       id="linearGradient4668"
       gradientUnits="userSpaceOnUse"
       gradientTransform="translate(-12612.645,-2196.2317)"
       x1="-1"
       y1="5917.5"
       x2="11984"
       y2="5917.5" />
    <linearGradient
       inkscape:collect="always"
       xlink:href="#linearGradient3541"
       id="linearGradient4670"
       gradientUnits="userSpaceOnUse"
       gradientTransform="translate(-12612.645,-2196.2317)"
       x1="-1"
       y1="5917.5"
       x2="11984"
       y2="5917.5" />
    <linearGradient
       inkscape:collect="always"
       xlink:href="#linearGradient3541"
       id="linearGradient4672"
       gradientUnits="userSpaceOnUse"
       gradientTransform="translate(-12612.645,-2196.2317)"
       x1="-1"
       y1="5917.5"
       x2="11984"
       y2="5917.5" />
    <linearGradient
       inkscape:collect="always"
       xlink:href="#linearGradient3541"
       id="linearGradient4674"
       gradientUnits="userSpaceOnUse"
       gradientTransform="translate(-12612.645,-2196.2317)"
       x1="-1"
       y1="5917.5"
       x2="11984"
       y2="5917.5" />
    <linearGradient
       inkscape:collect="always"
       xlink:href="#linearGradient3541"
       id="linearGradient4676"
       gradientUnits="userSpaceOnUse"
       gradientTransform="translate(-12612.645,-2196.2317)"
       x1="-1"
       y1="5917.5"
       x2="11984"
       y2="5917.5" />
    <linearGradient
       inkscape:collect="always"
       xlink:href="#linearGradient3541"
       id="linearGradient4678"
       gradientUnits="userSpaceOnUse"
       gradientTransform="translate(-12612.645,-2196.2317)"
       x1="-1"
       y1="5917.5"
       x2="11984"
       y2="5917.5" />
    <linearGradient
       inkscape:collect="always"
       xlink:href="#linearGradient3541"
       id="linearGradient4680"
       gradientUnits="userSpaceOnUse"
       gradientTransform="translate(-12612.645,-2196.2317)"
       x1="-1"
       y1="5917.5"
       x2="11984"
       y2="5917.5" />
    <linearGradient
       inkscape:collect="always"
       xlink:href="#linearGradient3541"
       id="linearGradient4682"
       gradientUnits="userSpaceOnUse"
       gradientTransform="translate(-12612.645,-2196.2317)"
       x1="-1"
       y1="5917.5"
       x2="11984"
       y2="5917.5" />
    <linearGradient
       inkscape:collect="always"
       xlink:href="#linearGradient3541"
       id="linearGradient4684"
       gradientUnits="userSpaceOnUse"
       gradientTransform="translate(-12612.645,-2196.2317)"
       x1="-1"
       y1="5917.5"
       x2="11984"
       y2="5917.5" />
    <linearGradient
       inkscape:collect="always"
       xlink:href="#linearGradient3541"
       id="linearGradient4686"
       gradientUnits="userSpaceOnUse"
       gradientTransform="translate(-12612.645,-2196.2317)"
       x1="-1"
       y1="5917.5"
       x2="11984"
       y2="5917.5" />
    <linearGradient
       inkscape:collect="always"
       xlink:href="#linearGradient3541"
       id="linearGradient4688"
       gradientUnits="userSpaceOnUse"
       gradientTransform="translate(-12612.645,-2196.2317)"
       x1="-1"
       y1="5917.5"
       x2="11984"
       y2="5917.5" />
    <linearGradient
       inkscape:collect="always"
       xlink:href="#linearGradient3541"
       id="linearGradient4690"
       gradientUnits="userSpaceOnUse"
       gradientTransform="translate(-12612.645,-2196.2317)"
       x1="-1"
       y1="5917.5"
       x2="11984"
       y2="5917.5" />
    <linearGradient
       inkscape:collect="always"
       xlink:href="#linearGradient3541"
       id="linearGradient4692"
       gradientUnits="userSpaceOnUse"
       gradientTransform="translate(-12612.645,-2196.2317)"
       x1="-1"
       y1="5917.5"
       x2="11984"
       y2="5917.5" />
    <linearGradient
       inkscape:collect="always"
       xlink:href="#linearGradient3541"
       id="linearGradient4694"
       gradientUnits="userSpaceOnUse"
       gradientTransform="translate(-12612.645,-2196.2317)"
       x1="-1"
       y1="5917.5"
       x2="11984"
       y2="5917.5" />
    <linearGradient
       inkscape:collect="always"
       xlink:href="#linearGradient3541"
       id="linearGradient4696"
       gradientUnits="userSpaceOnUse"
       gradientTransform="translate(-12612.645,-2196.2317)"
       x1="-1"
       y1="5917.5"
       x2="11984"
       y2="5917.5" />
    <linearGradient
       inkscape:collect="always"
       xlink:href="#linearGradient3541"
       id="linearGradient4698"
       gradientUnits="userSpaceOnUse"
       gradientTransform="translate(-12612.645,-2196.2317)"
       x1="-1"
       y1="5917.5"
       x2="11984"
       y2="5917.5" />
  </defs>
  <sodipodi:namedview
     id="base"
     pagecolor="#ffffff"
     bordercolor="#666666"
     borderopacity="1.0"
     inkscape:pageopacity="0.0"
     inkscape:pageshadow="2"
     inkscape:zoom="0.35"
     inkscape:cx="400"
     inkscape:cy="560"
     inkscape:document-units="mm"
     inkscape:current-layer="layer1"
     showgrid="false"
     inkscape:window-width="958"
     inkscape:window-height="991"
     inkscape:window-x="952"
     inkscape:window-y="0"
     inkscape:window-maximized="0" />
  <metadata
     id="metadata5">
    <rdf:RDF>
      <cc:Work
         rdf:about="">
        <dc:format>image/svg+xml</dc:format>
        <dc:type
           rdf:resource="http://purl.org/dc/dcmitype/StillImage" />
        <dc:title></dc:title>
      </cc:Work>
    </rdf:RDF>
  </metadata>
  <g
     inkscape:label="Capa 1"
     inkscape:groupmode="layer"
     id="layer1">
    <g
       style="clip-rule:evenodd;fill-rule:evenodd;image-rendering:optimizeQuality;shape-rendering:geometricPrecision;text-rendering:geometricPrecision"
       id="g5525"
       transform="matrix(0.19380415,0,0,0.19380415,2445.1015,422.02045)">
      <path
         class="fil0"
         d="m -11796.645,-1951.2317 c 0,-22 -9,-43 -23,-58 -14,-16 -34,-27 -57,-27 -9,0 -16,7 -16,16 0,9 7,16 16,16 12,0 24,6 33,16 9,10 15,24 15,37 0,9 7,16 16,16 9,0 16,-7 16,-16 z"
         id="path217"
         style="fill:url(#linearGradient4652);fill-opacity:1;fill-rule:nonzero"
         inkscape:connector-curvature="0" />
      <path
         class="fil0"
         d="m -12448.645,-1951.2317 c 0,-22 -9,-43 -23,-58 -14,-16 -34,-27 -57,-27 -23,0 -43,11 -57,27 -14,16 -23,37 -23,58 0,4 2,8 5,11 3,3 7,5 11,5 h 87 c 9,0 16,-7 16,-16 0,-9 -7,-16 -16,-16 h -87 v 16 h 16 c 0,-13 6,-27 15,-37 9,-10 21,-16 33,-16 12,0 24,6 33,16 9,10 15,24 15,37 0,9 7,16 16,16 9,0 16,-7 16,-16 z"
         id="path219"
         style="fill:url(#linearGradient4654);fill-opacity:1;fill-rule:nonzero"
         inkscape:connector-curvature="0" />
      <path
         class="fil0"
         d="m -11796.645,-1867.2317 v -85 c 0,-9 -7,-16 -16,-16 -9,0 -16,7 -16,16 v 85 c 0,9 7,16 16,16 9,0 16,-7 16,-16 z"
         id="path221"
         style="fill:url(#linearGradient4656);fill-opacity:1;fill-rule:nonzero"
         inkscape:connector-curvature="0" />
      <path
         class="fil0"
         d="m -11796.645,-1193.2317 v -422 c 0,-9 -7,-16 -16,-16 -9,0 -16,7 -16,16 v 422 c 0,9 7,16 16,16 9,0 16,-7 16,-16 z"
         id="path223"
         style="fill:url(#linearGradient4658);fill-opacity:1;fill-rule:nonzero"
         inkscape:connector-curvature="0" />
      <path
         class="fil0"
         d="m -12479.645,-1952.2317 v 771 c 0,9 7,16 16,16 9,0 16,-7 16,-16 v -771 c 0,-9 -7,-16 -16,-16 -9,0 -16,7 -16,16 z"
         id="path225"
         style="fill:url(#linearGradient4660);fill-opacity:1;fill-rule:nonzero"
         inkscape:connector-curvature="0" />
      <path
         class="fil0"
         d="m -11876.645,-2035.2317 h -655 c -9,0 -16,7 -16,16 0,9 7,16 16,16 h 655 c 9,0 16,-7 16,-16 0,-9 -7,-16 -16,-16 z"
         id="path227"
         style="fill:url(#linearGradient4662);fill-opacity:1;fill-rule:nonzero"
         inkscape:connector-curvature="0" />
      <path
         class="fil0"
         d="m -11748.645,-1103.2317 c 23,0 43,-11 57,-27 14,-16 23,-37 23,-58 0,-4 -2,-8 -5,-11 -3,-3 -7,-5 -11,-5 h -650 c -9,0 -16,7 -16,16 0,9 7,16 16,16 h 650 v -16 h -16 c 0,13 -6,27 -15,37 -9,10 -21,16 -33,16 -9,0 -16,7 -16,16 0,9 7,16 16,16 z"
         id="path229"
         style="fill:url(#linearGradient4664);fill-opacity:1;fill-rule:nonzero"
         inkscape:connector-curvature="0" />
      <path
         class="fil0"
         d="m -12480.645,-1188.2317 c 0,22 9,43 23,58 14,16 34,27 57,27 23,0 43,-11 57,-27 14,-16 23,-37 23,-58 0,-9 -7,-16 -16,-16 -9,0 -16,7 -16,16 0,13 -6,27 -15,37 -9,10 -21,16 -33,16 -12,0 -24,-6 -33,-16 -9,-10 -15,-24 -15,-37 0,-9 -7,-16 -16,-16 -9,0 -16,7 -16,16 z"
         id="path231"
         style="fill:url(#linearGradient4666);fill-opacity:1;fill-rule:nonzero"
         inkscape:connector-curvature="0" />
      <path
         class="fil0"
         d="m -12399.645,-1103.2317 h 655 c 9,0 16,-7 16,-16 0,-9 -7,-16 -16,-16 h -655 c -9,0 -16,7 -16,16 0,9 7,16 16,16 z"
         id="path233"
         style="fill:url(#linearGradient4668);fill-opacity:1;fill-rule:nonzero"
         inkscape:connector-curvature="0" />
      <path
         class="fil0"
         d="m -12377.645,-1402.2317 h -16 c 0,39 32,71 71,71 39,0 71,-32 71,-71 0,-39 -32,-71 -71,-71 -39,0 -71,32 -71,71 h 32 c 0,-11 4,-21 12,-28 7,-7 17,-12 28,-12 11,0 21,4 28,12 7,7 12,17 12,28 0,11 -4,21 -12,28 -7,7 -17,12 -28,12 -11,0 -21,-4 -28,-12 -7,-7 -12,-17 -12,-28 z"
         id="path235"
         style="fill:url(#linearGradient4670);fill-opacity:1;fill-rule:nonzero"
         inkscape:connector-curvature="0" />
      <path
         class="fil0"
         d="m -12304.645,-1356.2317 v 73 l -13,-5 c -8,-3 -17,1 -21,9 -3,8 1,17 9,21 l 34,14 c 5,2 10,1 15,-2 4,-3 7,-8 7,-13 v -96 c 0,-9 -7,-16 -16,-16 -9,0 -16,7 -16,16 z"
         id="path237"
         style="fill:url(#linearGradient4672);fill-opacity:1;fill-rule:nonzero"
         inkscape:connector-curvature="0" />
      <path
         class="fil0"
         d="m -12371.645,-1356.2317 v 96 c 0,5 3,10 7,13 4,3 10,4 15,2 l 34,-14 c 8,-3 12,-12 9,-21 -3,-8 -12,-12 -21,-9 l -13,5 v -73 c 0,-9 -7,-16 -16,-16 -9,0 -16,7 -16,16 z"
         id="path239"
         style="fill:url(#linearGradient4674);fill-opacity:1;fill-rule:nonzero"
         inkscape:connector-curvature="0" />
      <path
         class="fil0"
         d="m -12143.645,-1919.2317 h -223 c -9,0 -16,7 -16,16 0,9 7,16 16,16 h 223 c 9,0 16,-7 16,-16 0,-9 -7,-16 -16,-16 z"
         id="path241"
         style="fill:url(#linearGradient4676);fill-opacity:1;fill-rule:nonzero"
         inkscape:connector-curvature="0" />
      <path
         class="fil0"
         d="m -12143.645,-1860.2317 h -223 c -9,0 -16,7 -16,16 0,9 7,16 16,16 h 223 c 9,0 16,-7 16,-16 0,-9 -7,-16 -16,-16 z"
         id="path243"
         style="fill:url(#linearGradient4678);fill-opacity:1;fill-rule:nonzero"
         inkscape:connector-curvature="0" />
      <path
         class="fil0"
         d="m -11940.645,-1786.2317 h -426 c -9,0 -16,7 -16,16 0,9 7,16 16,16 h 426 c 9,0 16,-7 16,-16 0,-9 -7,-16 -16,-16 z"
         id="path245"
         style="fill:url(#linearGradient4680);fill-opacity:1;fill-rule:nonzero"
         inkscape:connector-curvature="0" />
      <path
         class="fil0"
         d="m -11969.645,-1699.2317 h -397 c -9,0 -16,7 -16,16 0,9 7,16 16,16 h 397 c 9,0 16,-7 16,-16 0,-9 -7,-16 -16,-16 z"
         id="path247"
         style="fill:url(#linearGradient4682);fill-opacity:1;fill-rule:nonzero"
         inkscape:connector-curvature="0" />
      <path
         class="fil0"
         d="m -12017.645,-1613.2317 h -349 c -9,0 -16,7 -16,16 0,9 7,16 16,16 h 349 c 9,0 16,-7 16,-16 0,-9 -7,-16 -16,-16 z"
         id="path249"
         style="fill:url(#linearGradient4684);fill-opacity:1;fill-rule:nonzero"
         inkscape:connector-curvature="0" />
      <path
         class="fil0"
         d="m -12069.645,-1526.2317 h -161 c -9,0 -16,7 -16,16 0,9 7,16 16,16 h 161 c 9,0 16,-7 16,-16 0,-9 -7,-16 -16,-16 z"
         id="path251"
         style="fill:url(#linearGradient4686);fill-opacity:1;fill-rule:nonzero"
         inkscape:connector-curvature="0" />
      <path
         class="fil0"
         d="m -12116.645,-1440.2317 h -55 c -9,0 -16,7 -16,16 0,9 7,16 16,16 h 55 c 9,0 16,-7 16,-16 0,-9 -7,-16 -16,-16 z"
         id="path253"
         style="fill:url(#linearGradient4688);fill-opacity:1;fill-rule:nonzero"
         inkscape:connector-curvature="0" />
      <path
         class="fil0"
         d="m -12116.645,-1353.2317 h -55 c -9,0 -16,7 -16,16 0,9 7,16 16,16 h 55 c 9,0 16,-7 16,-16 0,-9 -7,-16 -16,-16 z"
         id="path255"
         style="fill:url(#linearGradient4690);fill-opacity:1;fill-rule:nonzero"
         inkscape:connector-curvature="0" />
      <path
         class="fil0"
         d="m -11616.645,-2107.2317 22,-38 -4,-2 -2,4 c 2,1 4,0 6,-2 l -4,-2 -2,4 35,20 2,-4 -4,-2 c -1,2 0,4 2,6 l 2,-4 -4,-2 -22,38 c -4,8 -2,17 6,22 8,4 17,2 22,-6 l 22,-38 c 8,-13 3,-30 -10,-37 l -35,-20 c -13,-8 -30,-3 -37,10 l -22,38 c -4,8 -2,17 6,22 8,4 17,2 22,-6 z"
         id="path257"
         style="fill:url(#linearGradient4692);fill-opacity:1;fill-rule:nonzero"
         inkscape:connector-curvature="0" />
      <path
         class="fil0"
         d="m -11964.645,-1352.2317 -14,-8 c -1,2 -3,2 -5,1 l -70,-41 c -2,-1 -2,-3 -1,-5 l 400,-692 c 1,-2 3,-2 5,-1 l 70,41 c 2,1 2,3 1,5 l -400,692 14,8 14,8 400,-692 c 10,-17 4,-38 -13,-48 l -70,-41 c -17,-10 -38,-4 -48,13 l -400,692 c -10,17 -4,38 13,48 l 70,41 c 17,10 38,4 48,-13 z"
         id="path259"
         style="fill:url(#linearGradient4694);fill-opacity:1;fill-rule:nonzero"
         inkscape:connector-curvature="0" />
      <path
         class="fil0"
         d="m -12086.645,-1396.2317 7,95 c 1,9 8,15 17,15 9,-1 15,-8 15,-17 l -7,-95 c -1,-9 -8,-15 -17,-15 -9,1 -15,8 -15,17 z"
         id="path261"
         style="fill:url(#linearGradient4696);fill-opacity:1;fill-rule:nonzero"
         inkscape:connector-curvature="0" />
      <path
         class="fil0"
         d="m -11984.645,-1357.2317 -86,41 c -3,1 -5,4 -7,6 l -24,41 c -4,8 -2,17 6,22 8,4 17,2 22,-6 l 21,-36 81,-39 c 8,-4 11,-13 7,-21 -4,-8 -13,-11 -21,-7 z"
         id="path263"
         style="fill:url(#linearGradient4698);fill-opacity:1;fill-rule:nonzero"
         inkscape:connector-curvature="0" />
      <path
         class="fil0"
         d="m -11697.645,-2051.2317 130,75 4,-7 -8,-1 v 1 c -2,12 -21,116 -70,201 -15,26 -33,50 -53,69 l 5,6 4,-7 c -16,-9 -24,-14 -24,-14 l -4,7 7,4 20,-35 c 2,-4 1,-9 -3,-11 -4,-2 -9,-1 -11,3 l -20,35 c -1,2 -1,4 -1,6 1,2 2,4 4,5 0,0 8,5 24,14 3,2 7,1 9,-1 22,-21 40,-46 56,-73 54,-94 72,-207 73,-207 1,-3 -1,-6 -4,-8 l -130,-75 c -4,-2 -9,-1 -11,3 -2,4 -1,9 3,11 z"
         id="path265"
         style="fill:url(#linearGradient3779);fill-opacity:1;fill-rule:nonzero"
         inkscape:connector-curvature="0" />
    </g>
  </g>
</svg>
