<?xml version="1.0" encoding="UTF-8" standalone="no"?>
<!-- Created with Inkscape (http://www.inkscape.org/) -->

<svg
   xmlns:osb="http://www.openswatchbook.org/uri/2009/osb"
   xmlns:dc="http://purl.org/dc/elements/1.1/"
   xmlns:cc="http://creativecommons.org/ns#"
   xmlns:rdf="http://www.w3.org/1999/02/22-rdf-syntax-ns#"
   xmlns:svg="http://www.w3.org/2000/svg"
   xmlns="http://www.w3.org/2000/svg"
   xmlns:xlink="http://www.w3.org/1999/xlink"
   xmlns:sodipodi="http://sodipodi.sourceforge.net/DTD/sodipodi-0.dtd"
   xmlns:inkscape="http://www.inkscape.org/namespaces/inkscape"
   width="210mm"
   height="297mm"
   viewBox="0 0 210 297"
   version="1.1"
   id="svg8"
   inkscape:version="0.92.4 (5da689c313, 2019-01-14)"
   sodipodi:docname="3.svg">
  <defs
     id="defs2">
    <linearGradient
       id="linearGradient3541"
       osb:paint="solid">
      <stop
         style="stop-color:#000000;stop-opacity:1;"
         offset="0"
         id="stop3539" />
    </linearGradient>
    <linearGradient
       inkscape:collect="always"
       xlink:href="#linearGradient3541"
       id="linearGradient3715"
       gradientUnits="userSpaceOnUse"
       x1="-1"
       y1="5917.5"
       x2="11984"
       y2="5917.5"
       gradientTransform="translate(-12612.645,-2196.2317)" />
    <linearGradient
       inkscape:collect="always"
       xlink:href="#linearGradient3541"
       id="linearGradient4777"
       gradientUnits="userSpaceOnUse"
       gradientTransform="translate(-12612.645,-2196.2317)"
       x1="-1"
       y1="5917.5"
       x2="11984"
       y2="5917.5" />
    <linearGradient
       inkscape:collect="always"
       xlink:href="#linearGradient3541"
       id="linearGradient4779"
       gradientUnits="userSpaceOnUse"
       gradientTransform="translate(-12612.645,-2196.2317)"
       x1="-1"
       y1="5917.5"
       x2="11984"
       y2="5917.5" />
    <linearGradient
       inkscape:collect="always"
       xlink:href="#linearGradient3541"
       id="linearGradient4781"
       gradientUnits="userSpaceOnUse"
       gradientTransform="translate(-12612.645,-2196.2317)"
       x1="-1"
       y1="5917.5"
       x2="11984"
       y2="5917.5" />
    <linearGradient
       inkscape:collect="always"
       xlink:href="#linearGradient3541"
       id="linearGradient4783"
       gradientUnits="userSpaceOnUse"
       gradientTransform="translate(-12612.645,-2196.2317)"
       x1="-1"
       y1="5917.5"
       x2="11984"
       y2="5917.5" />
    <linearGradient
       inkscape:collect="always"
       xlink:href="#linearGradient3541"
       id="linearGradient4785"
       gradientUnits="userSpaceOnUse"
       gradientTransform="translate(-12612.645,-2196.2317)"
       x1="-1"
       y1="5917.5"
       x2="11984"
       y2="5917.5" />
    <linearGradient
       inkscape:collect="always"
       xlink:href="#linearGradient3541"
       id="linearGradient4787"
       gradientUnits="userSpaceOnUse"
       gradientTransform="translate(-12612.645,-2196.2317)"
       x1="-1"
       y1="5917.5"
       x2="11984"
       y2="5917.5" />
    <linearGradient
       inkscape:collect="always"
       xlink:href="#linearGradient3541"
       id="linearGradient4789"
       gradientUnits="userSpaceOnUse"
       gradientTransform="translate(-12612.645,-2196.2317)"
       x1="-1"
       y1="5917.5"
       x2="11984"
       y2="5917.5" />
    <linearGradient
       inkscape:collect="always"
       xlink:href="#linearGradient3541"
       id="linearGradient4791"
       gradientUnits="userSpaceOnUse"
       gradientTransform="translate(-12612.645,-2196.2317)"
       x1="-1"
       y1="5917.5"
       x2="11984"
       y2="5917.5" />
    <linearGradient
       inkscape:collect="always"
       xlink:href="#linearGradient3541"
       id="linearGradient4793"
       gradientUnits="userSpaceOnUse"
       gradientTransform="translate(-12612.645,-2196.2317)"
       x1="-1"
       y1="5917.5"
       x2="11984"
       y2="5917.5" />
    <linearGradient
       inkscape:collect="always"
       xlink:href="#linearGradient3541"
       id="linearGradient4795"
       gradientUnits="userSpaceOnUse"
       gradientTransform="translate(-12612.645,-2196.2317)"
       x1="-1"
       y1="5917.5"
       x2="11984"
       y2="5917.5" />
    <linearGradient
       inkscape:collect="always"
       xlink:href="#linearGradient3541"
       id="linearGradient4797"
       gradientUnits="userSpaceOnUse"
       gradientTransform="translate(-12612.645,-2196.2317)"
       x1="-1"
       y1="5917.5"
       x2="11984"
       y2="5917.5" />
    <linearGradient
       inkscape:collect="always"
       xlink:href="#linearGradient3541"
       id="linearGradient4799"
       gradientUnits="userSpaceOnUse"
       gradientTransform="translate(-12612.645,-2196.2317)"
       x1="-1"
       y1="5917.5"
       x2="11984"
       y2="5917.5" />
    <linearGradient
       inkscape:collect="always"
       xlink:href="#linearGradient3541"
       id="linearGradient4801"
       gradientUnits="userSpaceOnUse"
       gradientTransform="translate(-12612.645,-2196.2317)"
       x1="-1"
       y1="5917.5"
       x2="11984"
       y2="5917.5" />
  </defs>
  <sodipodi:namedview
     id="base"
     pagecolor="#ffffff"
     bordercolor="#666666"
     borderopacity="1.0"
     inkscape:pageopacity="0.0"
     inkscape:pageshadow="2"
     inkscape:zoom="0.35"
     inkscape:cx="400"
     inkscape:cy="560"
     inkscape:document-units="mm"
     inkscape:current-layer="layer1"
     showgrid="false"
     inkscape:window-width="958"
     inkscape:window-height="991"
     inkscape:window-x="952"
     inkscape:window-y="0"
     inkscape:window-maximized="0" />
  <metadata
     id="metadata5">
    <rdf:RDF>
      <cc:Work
         rdf:about="">
        <dc:format>image/svg+xml</dc:format>
        <dc:type
           rdf:resource="http://purl.org/dc/dcmitype/StillImage" />
        <dc:title></dc:title>
      </cc:Work>
    </rdf:RDF>
  </metadata>
  <g
     inkscape:label="Capa 1"
     inkscape:groupmode="layer"
     id="layer1">
    <g
       style="clip-rule:evenodd;fill-rule:evenodd;image-rendering:optimizeQuality;shape-rendering:geometricPrecision;text-rendering:geometricPrecision"
       id="g5556"
       transform="matrix(0.18596902,0,0,0.17884924,1659.4274,396.27356)">
      <path
         class="fil0"
         d="m -8376.645,-1095.2317 v -932 c 0,-9 8,-17 17,-17 9,0 17,8 17,17 v 932 c 0,9 7,16 16,16 9,0 16,-7 16,-16 v -932 c 0,-27 -22,-48 -48,-48 -27,0 -48,22 -48,48 v 932 c 0,9 7,16 16,16 9,0 16,-7 16,-16 z"
         id="path153"
         style="fill:url(#linearGradient4777);fill-opacity:1;fill-rule:nonzero"
         inkscape:connector-curvature="0" />
      <path
         class="fil0"
         d="m -8902.645,-1547.2317 -14,7 c 29,62 92,106 165,106 73,0 136,-43 165,-106 2,-5 2,-11 -1,-15 -3,-5 -8,-7 -13,-7 h -302 c -5,0 -10,3 -13,7 -3,5 -3,10 -1,15 l 14,-7 v 16 h 302 v -16 l -14,-7 c -24,52 -76,87 -137,87 -61,0 -113,-36 -137,-87 l -14,7 v 16 z"
         id="path155"
         style="fill:url(#linearGradient4779);fill-opacity:1;fill-rule:nonzero"
         inkscape:connector-curvature="0" />
      <path
         class="fil0"
         d="m -8879.645,-1545.2317 13,-29 c 2,-4 0,-9 -4,-10 -4,-2 -9,0 -10,4 l -13,29 c -2,4 0,9 4,10 4,2 9,0 10,-4 z m 27,-57 13,-29 c 2,-4 0,-9 -4,-10 -4,-2 -9,0 -10,4 l -13,29 c -2,4 0,9 4,10 4,2 9,0 10,-4 z m 27,-57 13,-29 c 2,-4 0,-9 -4,-10 -4,-2 -9,0 -10,4 l -13,29 c -2,4 0,9 4,10 4,2 9,0 10,-4 z m 27,-57 13,-29 c 2,-4 0,-9 -4,-10 -4,-2 -9,0 -10,4 l -13,29 c -2,4 0,9 4,10 4,2 9,0 10,-4 z m 27,-57 13,-29 c 2,-4 0,-9 -4,-10 -4,-2 -9,0 -10,4 l -13,29 c -2,4 0,9 4,10 4,2 9,0 10,-4 z m 27,-57 4,-8 c 2,-4 0,-9 -4,-10 -4,-2 -9,0 -10,4 l -4,8 c -2,4 0,9 4,10 4,2 9,0 10,-4 z"
         id="path157"
         style="fill:url(#linearGradient4781);fill-opacity:1;fill-rule:nonzero"
         inkscape:connector-curvature="0" />
      <path
         class="fil0"
         d="m -8606.645,-1551.2317 -13,-29 c -2,-4 -7,-6 -10,-4 -4,2 -6,7 -4,10 l 13,29 c 2,4 7,6 10,4 4,-2 6,-7 4,-10 z m -27,-57 -13,-29 c -2,-4 -7,-6 -10,-4 -4,2 -6,7 -4,10 l 13,29 c 2,4 7,6 10,4 4,-2 6,-7 4,-10 z m -27,-57 -13,-29 c -2,-4 -7,-6 -10,-4 -4,2 -6,7 -4,10 l 13,29 c 2,4 7,6 10,4 4,-2 6,-7 4,-10 z m -27,-57 -13,-29 c -2,-4 -7,-6 -10,-4 -4,2 -6,7 -4,10 l 13,29 c 2,4 7,6 10,4 4,-2 6,-7 4,-10 z m -27,-57 -13,-29 c -2,-4 -7,-6 -10,-4 -4,2 -6,7 -4,10 l 13,29 c 2,4 7,6 10,4 4,-2 6,-7 4,-10 z m -27,-57 -4,-8 c -2,-4 -7,-6 -10,-4 -4,2 -6,7 -4,10 l 4,8 c 2,4 7,6 10,4 4,-2 6,-7 4,-10 z"
         id="path159"
         style="fill:url(#linearGradient4783);fill-opacity:1;fill-rule:nonzero"
         inkscape:connector-curvature="0" />
      <path
         class="fil0"
         d="m -8617.645,-1070.2317 h 517 c 9,0 16,-7 16,-16 0,-9 -7,-16 -16,-16 h -517 c -9,0 -16,7 -16,16 0,9 7,16 16,16 z"
         id="path161"
         style="fill:url(#linearGradient4785);fill-opacity:1;fill-rule:nonzero"
         inkscape:connector-curvature="0" />
      <path
         class="fil0"
         d="m -8387.645,-1984.2317 c -24,-10 -58,-22 -97,-22 -19,0 -37,5 -54,12 -25,10 -47,25 -69,37 -11,6 -21,11 -31,14 -10,3 -19,5 -28,5 -21,0 -32,-5 -41,-10 -5,-3 -9,-6 -14,-8 -3,-1 -5,-3 -8,-4 -3,-1 -7,-2 -11,-2 -5,0 -9,1 -14,3 -4,2 -8,5 -12,8 -3,2 -5,5 -7,9 -2,3 -2,7 -2,10 0,5 1,9 2,12 2,6 6,12 9,17 5,8 11,16 16,24 2,4 4,7 5,10 1,3 1,5 1,6 v 1 c 0,0 0,1 -2,2 -2,1 -5,3 -11,4 l 4,15 1,-16 c -4,0 -6,-1 -7,-2 -2,-1 -3,-3 -4,-6 -1,-2 -1,-5 -1,-6 v 0 h -10 10 v 0 h -10 10 c 0,-9 -6,-16 -15,-16 -9,0 -16,6 -16,15 v 1 c 0,3 0,12 5,22 3,5 7,10 13,15 6,4 14,7 22,8 2,0 4,0 5,0 11,-3 19,-7 26,-13 3,-3 6,-7 8,-11 2,-4 2,-9 2,-13 0,-10 -3,-18 -7,-25 -6,-11 -13,-21 -19,-29 -3,-4 -5,-8 -7,-11 -1,-1 -1,-3 -1,-3 v -1 h -2 2 v 0 h -2 2 -7 l 6,3 1,-3 h -7 l 6,3 -7,-3 5,6 2,-3 -7,-3 5,6 c 2,-2 4,-3 5,-3 h 1 v 0 h 1 c 1,0 4,2 7,4 6,3 14,9 24,13 11,4 25,7 42,7 18,0 35,-5 51,-12 24,-10 46,-25 67,-36 22,-12 43,-20 63,-20 33,0 63,10 84,19 8,3 17,0 21,-8 3,-8 0,-17 -8,-21 z"
         id="path163"
         style="fill:url(#linearGradient4787);fill-opacity:1;fill-rule:nonzero"
         inkscape:connector-curvature="0" />
      <path
         class="fil0"
         d="m -7817.645,-1547.2317 -14,-7 c -24,52 -76,87 -137,87 -61,0 -113,-36 -137,-87 l -14,7 v 16 h 302 v -16 l -14,-7 14,7 v -16 h -302 c -5,0 -10,3 -13,7 -3,5 -3,10 -1,15 29,62 92,106 165,106 73,0 136,-43 165,-106 2,-5 2,-11 -1,-15 -3,-5 -8,-7 -13,-7 z"
         id="path165"
         style="fill:url(#linearGradient4789);fill-opacity:1;fill-rule:nonzero"
         inkscape:connector-curvature="0" />
      <path
         class="fil0"
         d="m -7825.645,-1551.2317 -13,-29 c -2,-4 -7,-6 -10,-4 -4,2 -6,7 -4,10 l 13,29 c 2,4 7,6 10,4 4,-2 6,-7 4,-10 z m -27,-57 -13,-29 c -2,-4 -7,-6 -10,-4 -4,2 -6,7 -4,10 l 13,29 c 2,4 7,6 10,4 4,-2 6,-7 4,-10 z m -27,-57 -13,-29 c -2,-4 -7,-6 -10,-4 -4,2 -6,7 -4,10 l 13,29 c 2,4 7,6 10,4 4,-2 6,-7 4,-10 z m -27,-57 -13,-29 c -2,-4 -7,-6 -10,-4 -4,2 -6,7 -4,10 l 13,29 c 2,4 7,6 10,4 4,-2 6,-7 4,-10 z m -27,-57 -13,-29 c -2,-4 -7,-6 -10,-4 -4,2 -6,7 -4,10 l 13,29 c 2,4 7,6 10,4 4,-2 6,-7 4,-10 z m -27,-57 -4,-8 c -2,-4 -7,-6 -10,-4 -4,2 -6,7 -4,10 l 4,8 c 2,4 7,6 10,4 4,-2 6,-7 4,-10 z"
         id="path167"
         style="fill:url(#linearGradient4791);fill-opacity:1;fill-rule:nonzero"
         inkscape:connector-curvature="0" />
      <path
         class="fil0"
         d="m -8098.645,-1545.2317 13,-29 c 2,-4 0,-9 -4,-10 -4,-2 -9,0 -10,4 l -13,29 c -2,4 0,9 4,10 4,2 9,0 10,-4 z m 27,-57 13,-29 c 2,-4 0,-9 -4,-10 -4,-2 -9,0 -10,4 l -13,29 c -2,4 0,9 4,10 4,2 9,0 10,-4 z m 27,-57 13,-29 c 2,-4 0,-9 -4,-10 -4,-2 -9,0 -10,4 l -13,29 c -2,4 0,9 4,10 4,2 9,0 10,-4 z m 27,-57 13,-29 c 2,-4 0,-9 -4,-10 -4,-2 -9,0 -10,4 l -13,29 c -2,4 0,9 4,10 4,2 9,0 10,-4 z m 27,-57 13,-29 c 2,-4 0,-9 -4,-10 -4,-2 -9,0 -10,4 l -13,29 c -2,4 0,9 4,10 4,2 9,0 10,-4 z m 27,-57 4,-8 c 2,-4 0,-9 -4,-10 -4,-2 -9,0 -10,4 l -4,8 c -2,4 0,9 4,10 4,2 9,0 10,-4 z"
         id="path169"
         style="fill:url(#linearGradient4793);fill-opacity:1;fill-rule:nonzero"
         inkscape:connector-curvature="0" />
      <path
         class="fil0"
         d="m -8318.645,-1956.2317 c 21,-9 51,-19 83,-19 14,0 28,4 42,9 21,9 43,23 66,35 11,6 23,12 35,16 12,4 25,7 39,7 26,0 45,-7 57,-14 6,-3 11,-7 14,-8 2,-1 3,-1 3,-2 h 1 v 0 c 0,0 2,1 6,4 l 5,-6 -7,3 2,3 5,-6 -7,3 6,-3 h -7 l 1,3 6,-3 h -7 3 -3 v 0 h 3 -3 v 0 c 0,1 -2,5 -5,9 -4,7 -11,16 -17,26 -3,5 -6,10 -8,15 -2,5 -4,11 -4,18 0,4 1,9 2,13 3,6 7,12 13,16 6,4 13,7 21,9 2,0 4,1 5,0 9,-1 16,-4 22,-8 9,-6 14,-15 16,-22 2,-7 2,-13 2,-15 v -1 c 0,-9 -8,-15 -16,-15 -9,0 -15,8 -15,16 h 9 -9 v 0 h 9 -9 v 0 c 0,1 0,5 -2,8 -1,1 -2,3 -3,3 -1,1 -3,2 -7,2 l 1,16 4,-15 c -7,-2 -11,-4 -12,-5 l -1,-1 v -1 c 0,-1 1,-6 4,-11 4,-8 11,-17 17,-26 3,-5 6,-9 9,-14 2,-5 5,-10 5,-17 0,-3 -1,-7 -2,-10 -2,-3 -4,-7 -7,-9 -4,-3 -8,-6 -12,-8 -4,-2 -9,-3 -14,-3 -4,0 -8,1 -11,2 -6,2 -10,5 -14,7 -6,4 -12,7 -19,10 -7,3 -17,5 -31,5 -12,0 -25,-3 -38,-9 -20,-9 -42,-23 -65,-35 -23,-12 -49,-23 -78,-23 -38,0 -72,11 -96,21 -8,3 -12,13 -8,21 3,8 13,12 21,8 z"
         id="path171"
         style="fill:url(#linearGradient4795);fill-opacity:1;fill-rule:nonzero"
         inkscape:connector-curvature="0" />
      <path
         class="fil0"
         d="m -8321.645,-2155.2317 h 16 c 0,-29 -24,-53 -53,-53 -29,0 -53,24 -53,53 0,29 24,53 53,53 29,0 53,-24 53,-53 h -32 c 0,12 -10,22 -22,22 -12,0 -22,-10 -22,-22 0,-12 10,-22 22,-22 12,0 22,10 22,22 z"
         id="path173"
         style="fill:url(#linearGradient4797);fill-opacity:1;fill-rule:nonzero"
         inkscape:connector-curvature="0" />
      <path
         class="fil0"
         d="m -8376.645,-2112.2317 v 50 c 0,9 7,16 16,16 9,0 16,-7 16,-16 v -50 c 0,-9 -7,-16 -16,-16 -9,0 -16,7 -16,16 z"
         id="path175"
         style="fill:url(#linearGradient4799);fill-opacity:1;fill-rule:nonzero"
         inkscape:connector-curvature="0" />
      <path
         class="fil0"
         d="m -8391.645,-1927.2317 h 65 c 4,0 8,-4 8,-8 0,-4 -4,-8 -8,-8 h -65 c -4,0 -8,4 -8,8 0,4 4,8 8,8 z"
         id="path177"
         style="fill:url(#linearGradient4801);fill-opacity:1;fill-rule:nonzero"
         inkscape:connector-curvature="0" />
      <path
         class="fil0"
         d="m -8391.645,-1886.2317 h 65 c 4,0 8,-4 8,-8 0,-4 -4,-8 -8,-8 h -65 c -4,0 -8,4 -8,8 0,4 4,8 8,8 z"
         id="path179"
         style="fill:url(#linearGradient3715);fill-opacity:1;fill-rule:nonzero"
         inkscape:connector-curvature="0" />
    </g>
  </g>
</svg>
