<?xml version="1.0" encoding="UTF-8" standalone="no"?>
<!-- Created with Inkscape (http://www.inkscape.org/) -->

<svg
   xmlns:osb="http://www.openswatchbook.org/uri/2009/osb"
   xmlns:dc="http://purl.org/dc/elements/1.1/"
   xmlns:cc="http://creativecommons.org/ns#"
   xmlns:rdf="http://www.w3.org/1999/02/22-rdf-syntax-ns#"
   xmlns:svg="http://www.w3.org/2000/svg"
   xmlns="http://www.w3.org/2000/svg"
   xmlns:xlink="http://www.w3.org/1999/xlink"
   xmlns:sodipodi="http://sodipodi.sourceforge.net/DTD/sodipodi-0.dtd"
   xmlns:inkscape="http://www.inkscape.org/namespaces/inkscape"
   width="210mm"
   height="297mm"
   viewBox="0 0 210 297"
   version="1.1"
   id="svg8"
   inkscape:version="0.92.4 (5da689c313, 2019-01-14)"
   sodipodi:docname="4.svg">
  <defs
     id="defs2">
    <linearGradient
       id="linearGradient3541"
       osb:paint="solid">
      <stop
         style="stop-color:#000000;stop-opacity:1;"
         offset="0"
         id="stop3539" />
    </linearGradient>
    <linearGradient
       inkscape:collect="always"
       xlink:href="#linearGradient3541"
       id="linearGradient3877"
       gradientUnits="userSpaceOnUse"
       x1="-1"
       y1="5917.5"
       x2="11984"
       y2="5917.5"
       gradientTransform="translate(-12612.645,-2196.2317)" />
    <linearGradient
       inkscape:collect="always"
       xlink:href="#linearGradient3541"
       id="linearGradient5103"
       gradientUnits="userSpaceOnUse"
       gradientTransform="translate(-12612.645,-2196.2317)"
       x1="-1"
       y1="5917.5"
       x2="11984"
       y2="5917.5" />
    <linearGradient
       inkscape:collect="always"
       xlink:href="#linearGradient3541"
       id="linearGradient5105"
       gradientUnits="userSpaceOnUse"
       gradientTransform="translate(-12612.645,-2196.2317)"
       x1="-1"
       y1="5917.5"
       x2="11984"
       y2="5917.5" />
    <linearGradient
       inkscape:collect="always"
       xlink:href="#linearGradient3541"
       id="linearGradient5107"
       gradientUnits="userSpaceOnUse"
       gradientTransform="translate(-12612.645,-2196.2317)"
       x1="-1"
       y1="5917.5"
       x2="11984"
       y2="5917.5" />
    <linearGradient
       inkscape:collect="always"
       xlink:href="#linearGradient3541"
       id="linearGradient5109"
       gradientUnits="userSpaceOnUse"
       gradientTransform="translate(-12612.645,-2196.2317)"
       x1="-1"
       y1="5917.5"
       x2="11984"
       y2="5917.5" />
    <linearGradient
       inkscape:collect="always"
       xlink:href="#linearGradient3541"
       id="linearGradient5111"
       gradientUnits="userSpaceOnUse"
       gradientTransform="translate(-12612.645,-2196.2317)"
       x1="-1"
       y1="5917.5"
       x2="11984"
       y2="5917.5" />
    <linearGradient
       inkscape:collect="always"
       xlink:href="#linearGradient3541"
       id="linearGradient5113"
       gradientUnits="userSpaceOnUse"
       gradientTransform="translate(-12612.645,-2196.2317)"
       x1="-1"
       y1="5917.5"
       x2="11984"
       y2="5917.5" />
    <linearGradient
       inkscape:collect="always"
       xlink:href="#linearGradient3541"
       id="linearGradient5115"
       gradientUnits="userSpaceOnUse"
       gradientTransform="translate(-12612.645,-2196.2317)"
       x1="-1"
       y1="5917.5"
       x2="11984"
       y2="5917.5" />
    <linearGradient
       inkscape:collect="always"
       xlink:href="#linearGradient3541"
       id="linearGradient5117"
       gradientUnits="userSpaceOnUse"
       gradientTransform="translate(-12612.645,-2196.2317)"
       x1="-1"
       y1="5917.5"
       x2="11984"
       y2="5917.5" />
    <linearGradient
       inkscape:collect="always"
       xlink:href="#linearGradient3541"
       id="linearGradient5119"
       gradientUnits="userSpaceOnUse"
       gradientTransform="translate(-12612.645,-2196.2317)"
       x1="-1"
       y1="5917.5"
       x2="11984"
       y2="5917.5" />
    <linearGradient
       inkscape:collect="always"
       xlink:href="#linearGradient3541"
       id="linearGradient5121"
       gradientUnits="userSpaceOnUse"
       gradientTransform="translate(-12612.645,-2196.2317)"
       x1="-1"
       y1="5917.5"
       x2="11984"
       y2="5917.5" />
    <linearGradient
       inkscape:collect="always"
       xlink:href="#linearGradient3541"
       id="linearGradient5123"
       gradientUnits="userSpaceOnUse"
       gradientTransform="translate(-12612.645,-2196.2317)"
       x1="-1"
       y1="5917.5"
       x2="11984"
       y2="5917.5" />
    <linearGradient
       inkscape:collect="always"
       xlink:href="#linearGradient3541"
       id="linearGradient5125"
       gradientUnits="userSpaceOnUse"
       gradientTransform="translate(-12612.645,-2196.2317)"
       x1="-1"
       y1="5917.5"
       x2="11984"
       y2="5917.5" />
    <linearGradient
       inkscape:collect="always"
       xlink:href="#linearGradient3541"
       id="linearGradient5127"
       gradientUnits="userSpaceOnUse"
       gradientTransform="translate(-12612.645,-2196.2317)"
       x1="-1"
       y1="5917.5"
       x2="11984"
       y2="5917.5" />
    <linearGradient
       inkscape:collect="always"
       xlink:href="#linearGradient3541"
       id="linearGradient5129"
       gradientUnits="userSpaceOnUse"
       gradientTransform="translate(-12612.645,-2196.2317)"
       x1="-1"
       y1="5917.5"
       x2="11984"
       y2="5917.5" />
    <linearGradient
       inkscape:collect="always"
       xlink:href="#linearGradient3541"
       id="linearGradient5131"
       gradientUnits="userSpaceOnUse"
       gradientTransform="translate(-12612.645,-2196.2317)"
       x1="-1"
       y1="5917.5"
       x2="11984"
       y2="5917.5" />
    <linearGradient
       inkscape:collect="always"
       xlink:href="#linearGradient3541"
       id="linearGradient5133"
       gradientUnits="userSpaceOnUse"
       gradientTransform="translate(-12612.645,-2196.2317)"
       x1="-1"
       y1="5917.5"
       x2="11984"
       y2="5917.5" />
    <linearGradient
       inkscape:collect="always"
       xlink:href="#linearGradient3541"
       id="linearGradient5135"
       gradientUnits="userSpaceOnUse"
       gradientTransform="translate(-12612.645,-2196.2317)"
       x1="-1"
       y1="5917.5"
       x2="11984"
       y2="5917.5" />
    <linearGradient
       inkscape:collect="always"
       xlink:href="#linearGradient3541"
       id="linearGradient5137"
       gradientUnits="userSpaceOnUse"
       gradientTransform="translate(-12612.645,-2196.2317)"
       x1="-1"
       y1="5917.5"
       x2="11984"
       y2="5917.5" />
    <linearGradient
       inkscape:collect="always"
       xlink:href="#linearGradient3541"
       id="linearGradient5139"
       gradientUnits="userSpaceOnUse"
       gradientTransform="translate(-12612.645,-2196.2317)"
       x1="-1"
       y1="5917.5"
       x2="11984"
       y2="5917.5" />
    <linearGradient
       inkscape:collect="always"
       xlink:href="#linearGradient3541"
       id="linearGradient5141"
       gradientUnits="userSpaceOnUse"
       gradientTransform="translate(-12612.645,-2196.2317)"
       x1="-1"
       y1="5917.5"
       x2="11984"
       y2="5917.5" />
    <linearGradient
       inkscape:collect="always"
       xlink:href="#linearGradient3541"
       id="linearGradient5143"
       gradientUnits="userSpaceOnUse"
       gradientTransform="translate(-12612.645,-2196.2317)"
       x1="-1"
       y1="5917.5"
       x2="11984"
       y2="5917.5" />
    <linearGradient
       inkscape:collect="always"
       xlink:href="#linearGradient3541"
       id="linearGradient5145"
       gradientUnits="userSpaceOnUse"
       gradientTransform="translate(-12612.645,-2196.2317)"
       x1="-1"
       y1="5917.5"
       x2="11984"
       y2="5917.5" />
    <linearGradient
       inkscape:collect="always"
       xlink:href="#linearGradient3541"
       id="linearGradient5147"
       gradientUnits="userSpaceOnUse"
       gradientTransform="translate(-12612.645,-2196.2317)"
       x1="-1"
       y1="5917.5"
       x2="11984"
       y2="5917.5" />
  </defs>
  <sodipodi:namedview
     id="base"
     pagecolor="#ffffff"
     bordercolor="#666666"
     borderopacity="1.0"
     inkscape:pageopacity="0.0"
     inkscape:pageshadow="2"
     inkscape:zoom="0.35"
     inkscape:cx="400"
     inkscape:cy="560"
     inkscape:document-units="mm"
     inkscape:current-layer="layer1"
     showgrid="false"
     inkscape:window-width="958"
     inkscape:window-height="991"
     inkscape:window-x="952"
     inkscape:window-y="0"
     inkscape:window-maximized="0" />
  <metadata
     id="metadata5">
    <rdf:RDF>
      <cc:Work
         rdf:about="">
        <dc:format>image/svg+xml</dc:format>
        <dc:type
           rdf:resource="http://purl.org/dc/dcmitype/StillImage" />
        <dc:title></dc:title>
      </cc:Work>
    </rdf:RDF>
  </metadata>
  <g
     inkscape:label="Capa 1"
     inkscape:groupmode="layer"
     id="layer1">
    <g
       style="clip-rule:evenodd;fill-rule:evenodd;image-rendering:optimizeQuality;shape-rendering:geometricPrecision;text-rendering:geometricPrecision"
       id="g5606"
       transform="matrix(0.19640691,0,0,0.19640691,1391.8189,425.05465)">
      <path
         class="fil0"
         d="m -6038.645,-1276.2317 h -16 c 0,10 -4,19 -11,26 -7,7 -17,11 -28,11 h -913 c -11,0 -21,-4 -28,-11 -7,-7 -11,-16 -11,-26 v -809 c 0,-10 4,-19 11,-26 7,-7 17,-11 28,-11 h 913 c 11,0 21,4 28,11 7,7 11,16 11,26 v 809 h 32 v -809 c 0,-19 -8,-36 -21,-49 -13,-12 -31,-20 -50,-20 h -913 c -19,0 -37,7 -50,20 -13,12 -21,30 -21,49 v 809 c 0,19 8,36 21,49 13,12 31,20 50,20 h 913 c 19,0 37,-7 50,-20 13,-12 21,-30 21,-49 z"
         id="path315"
         style="fill:url(#linearGradient5103);fill-opacity:1;fill-rule:nonzero"
         inkscape:connector-curvature="0" />
      <path
         class="fil0"
         d="m -6946.645,-1600.2317 v -155 c 0,-9 -7,-16 -16,-16 -9,0 -16,7 -16,16 v 155 c 0,9 7,16 16,16 9,0 16,-7 16,-16 z"
         id="path317"
         style="fill:url(#linearGradient5105);fill-opacity:1;fill-rule:nonzero"
         inkscape:connector-curvature="0" />
      <path
         class="fil0"
         d="m -6946.645,-1889.2317 v -66 c 0,-10 4,-19 11,-26 7,-7 16,-11 26,-11 h 719 c 10,0 19,4 26,11 7,7 11,16 11,26 v 549 c 0,10 -4,19 -11,26 -7,7 -16,11 -26,11 h -719 c -10,0 -19,-4 -26,-11 -7,-7 -11,-16 -11,-26 v -70 c 0,-9 -7,-16 -16,-16 -9,0 -16,7 -16,16 v 70 c 0,38 31,68 68,68 h 719 c 38,0 68,-31 68,-68 v -549 c 0,-38 -31,-68 -68,-68 h -719 c -38,0 -68,31 -68,68 v 66 c 0,9 7,16 16,16 9,0 16,-7 16,-16 z"
         id="path319"
         style="fill:url(#linearGradient5107);fill-opacity:1;fill-rule:nonzero"
         inkscape:connector-curvature="0" />
      <path
         class="fil0"
         d="m -6919.645,-1802.2317 h -16 c 0,14 -12,26 -26,26 -14,0 -26,-12 -26,-26 v -39 c 0,-14 12,-26 26,-26 15,0 26,12 26,26 v 39 h 32 v -39 c 0,-32 -26,-58 -58,-58 -32,0 -58,26 -58,58 v 39 c 0,32 26,58 58,58 32,0 58,-26 58,-58 z"
         id="path321"
         style="fill:url(#linearGradient5109);fill-opacity:1;fill-rule:nonzero"
         inkscape:connector-curvature="0" />
      <path
         class="fil0"
         d="m -6919.645,-1519.2317 h -16 c 0,14 -12,26 -26,26 -14,0 -26,-12 -26,-26 v -39 c 0,-15 12,-26 26,-26 15,0 26,12 26,26 v 39 h 32 v -39 c 0,-32 -26,-58 -58,-58 -32,0 -58,26 -58,58 v 39 c 0,32 26,58 58,58 32,0 58,-26 58,-58 z"
         id="path323"
         style="fill:url(#linearGradient5111);fill-opacity:1;fill-rule:nonzero"
         inkscape:connector-curvature="0" />
      <path
         class="fil0"
         d="m -6506.645,-1517.2317 -4,-15 c -14,4 -27,6 -41,6 -65,0 -125,-43 -143,-108 -4,-14 -6,-27 -6,-41 0,-65 43,-125 109,-143 14,-4 27,-6 41,-6 65,0 125,43 143,108 4,14 6,27 6,41 0,65 -43,125 -109,143 l 4,15 4,15 c 80,-23 131,-95 131,-174 0,-16 -2,-33 -7,-49 -23,-80 -95,-131 -174,-131 -16,0 -33,2 -49,7 -80,23 -131,95 -131,174 0,16 2,33 7,49 23,80 95,131 174,131 16,0 33,-2 49,-7 z"
         id="path325"
         style="fill:url(#linearGradient5113);fill-opacity:1;fill-rule:nonzero"
         inkscape:connector-curvature="0" />
      <path
         class="fil0"
         d="m -6531.645,-1606.2317 -4,-15 c -5,1 -11,2 -16,2 -25,0 -48,-16 -55,-42 -1,-5 -2,-10 -2,-16 0,-25 16,-48 42,-55 5,-2 10,-2 16,-2 25,0 48,16 55,42 2,5 2,10 2,16 0,25 -16,48 -42,55 l 4,15 4,15 c 39,-11 65,-47 65,-85 0,-8 -1,-16 -3,-24 -11,-39 -47,-65 -85,-65 -8,0 -16,1 -24,3 -39,11 -65,47 -65,85 0,8 1,16 3,24 11,39 47,65 85,65 8,0 16,-1 24,-3 z"
         id="path327"
         style="fill:url(#linearGradient5115);fill-opacity:1;fill-rule:nonzero"
         inkscape:connector-curvature="0" />
      <path
         class="fil0"
         d="m -6783.645,-1140.2317 v -14 c 0,-20 -16,-37 -37,-37 h -175 c -20,0 -37,16 -37,37 v 14 c 0,9 7,16 16,16 9,0 16,-7 16,-16 v -14 c 0,-3 2,-5 5,-5 h 175 c 3,0 5,2 5,5 v 14 c 0,9 7,16 16,16 9,0 16,-7 16,-16 z"
         id="path329"
         style="fill:url(#linearGradient5117);fill-opacity:1;fill-rule:nonzero"
         inkscape:connector-curvature="0" />
      <path
         class="fil0"
         d="m -6975.645,-1224.2317 v 43 c 0,9 7,16 16,16 9,0 16,-7 16,-16 v -43 c 0,-9 -7,-16 -16,-16 -9,0 -16,7 -16,16 z"
         id="path331"
         style="fill:url(#linearGradient5119);fill-opacity:1;fill-rule:nonzero"
         inkscape:connector-curvature="0" />
      <path
         class="fil0"
         d="m -6877.645,-1224.2317 v 43 c 0,9 7,16 16,16 9,0 16,-7 16,-16 v -43 c 0,-9 -7,-16 -16,-16 -9,0 -16,7 -16,16 z"
         id="path333"
         style="fill:url(#linearGradient5121);fill-opacity:1;fill-rule:nonzero"
         inkscape:connector-curvature="0" />
      <path
         class="fil0"
         d="m -6042.645,-1140.2317 v -14 c 0,-20 -16,-37 -37,-37 h -175 c -20,0 -37,16 -37,37 v 14 c 0,9 7,16 16,16 9,0 16,-7 16,-16 v -14 c 0,-3 2,-5 5,-5 h 175 c 3,0 5,2 5,5 v 14 c 0,9 7,16 16,16 9,0 16,-7 16,-16 z"
         id="path335"
         style="fill:url(#linearGradient5123);fill-opacity:1;fill-rule:nonzero"
         inkscape:connector-curvature="0" />
      <path
         class="fil0"
         d="m -6233.645,-1224.2317 v 43 c 0,9 7,16 16,16 9,0 16,-7 16,-16 v -43 c 0,-9 -7,-16 -16,-16 -9,0 -16,7 -16,16 z"
         id="path337"
         style="fill:url(#linearGradient5125);fill-opacity:1;fill-rule:nonzero"
         inkscape:connector-curvature="0" />
      <path
         class="fil0"
         d="m -6135.645,-1224.2317 v 43 c 0,9 7,16 16,16 9,0 16,-7 16,-16 v -43 c 0,-9 -7,-16 -16,-16 -9,0 -16,7 -16,16 z"
         id="path339"
         style="fill:url(#linearGradient5127);fill-opacity:1;fill-rule:nonzero"
         inkscape:connector-curvature="0" />
      <path
         class="fil0"
         d="m -6916.645,-1575.2317 v -198 c 0,-4 -4,-8 -8,-8 -4,0 -8,4 -8,8 v 198 c 0,4 4,8 8,8 4,0 8,-4 8,-8 z"
         id="path341"
         style="fill:url(#linearGradient5129);fill-opacity:1;fill-rule:nonzero"
         inkscape:connector-curvature="0" />
      <path
         class="fil0"
         d="m -6916.645,-1867.2317 v -81 c 0,-7 6,-13 13,-13 h 702 c 7,0 13,6 13,13 v 534 c 0,7 -6,13 -13,13 h -702 c -7,0 -13,-6 -13,-13 v -79 c 0,-4 -4,-8 -8,-8 -4,0 -8,4 -8,8 v 79 c 0,16 13,29 29,29 h 702 c 16,0 29,-13 29,-29 v -534 c 0,-16 -13,-29 -29,-29 h -702 c -16,0 -29,13 -29,29 v 81 c 0,4 4,8 8,8 4,0 8,-4 8,-8 z"
         id="path343"
         style="fill:url(#linearGradient5131);fill-opacity:1;fill-rule:nonzero"
         inkscape:connector-curvature="0" />
      <path
         class="fil0"
         d="m -6568.645,-1836.2317 v 85 c 0,9 7,16 16,16 9,0 16,-7 16,-16 v -85 c 0,-9 -7,-16 -16,-16 -9,0 -16,7 -16,16 z"
         id="path345"
         style="fill:url(#linearGradient5133);fill-opacity:1;fill-rule:nonzero"
         inkscape:connector-curvature="0" />
      <path
         class="fil0"
         d="m -6568.645,-1599.2317 v 85 c 0,9 7,16 16,16 9,0 16,-7 16,-16 v -85 c 0,-9 -7,-16 -16,-16 -9,0 -16,7 -16,16 z"
         id="path347"
         style="fill:url(#linearGradient5135);fill-opacity:1;fill-rule:nonzero"
         inkscape:connector-curvature="0" />
      <path
         class="fil0"
         d="m -6392.645,-1691.2317 h -85 c -9,0 -16,7 -16,16 0,9 7,16 16,16 h 85 c 9,0 16,-7 16,-16 0,-9 -7,-16 -16,-16 z"
         id="path349"
         style="fill:url(#linearGradient5137);fill-opacity:1;fill-rule:nonzero"
         inkscape:connector-curvature="0" />
      <path
         class="fil0"
         d="m -6629.645,-1691.2317 h -85 c -9,0 -16,7 -16,16 0,9 7,16 16,16 h 85 c 9,0 16,-7 16,-16 0,-9 -7,-16 -16,-16 z"
         id="path351"
         style="fill:url(#linearGradient5139);fill-opacity:1;fill-rule:nonzero"
         inkscape:connector-curvature="0" />
      <path
         class="fil0"
         d="m -6428.645,-1573.2317 -60,-60 c -6,-6 -16,-6 -22,0 -6,6 -6,16 0,22 l 60,60 c 6,6 16,6 22,0 6,-6 6,-16 0,-22 z"
         id="path353"
         style="fill:url(#linearGradient5141);fill-opacity:1;fill-rule:nonzero"
         inkscape:connector-curvature="0" />
      <path
         class="fil0"
         d="m -6595.645,-1740.2317 -60,-60 c -6,-6 -16,-6 -22,0 -6,6 -6,16 0,22 l 60,60 c 6,6 16,6 22,0 6,-6 6,-16 0,-22 z"
         id="path355"
         style="fill:url(#linearGradient5143);fill-opacity:1;fill-rule:nonzero"
         inkscape:connector-curvature="0" />
      <path
         class="fil0"
         d="m -6655.645,-1550.2317 60,-60 c 6,-6 6,-16 0,-22 -6,-6 -16,-6 -22,0 l -60,60 c -6,6 -6,16 0,22 6,6 16,6 22,0 z"
         id="path357"
         style="fill:url(#linearGradient5145);fill-opacity:1;fill-rule:nonzero"
         inkscape:connector-curvature="0" />
      <path
         class="fil0"
         d="m -6462.645,-1744.2317 34,-34 c 6,-6 6,-16 0,-22 -6,-6 -16,-6 -22,0 l -34,34 c -6,6 -6,16 0,22 6,6 16,6 22,0 z"
         id="path359"
         style="fill:url(#linearGradient5147);fill-opacity:1;fill-rule:nonzero"
         inkscape:connector-curvature="0" />
      <path
         class="fil0"
         d="m -6496.645,-1481.2317 -2,-8 c -18,5 -36,7 -53,7 -85,0 -163,-56 -187,-142 -5,-18 -7,-36 -7,-53 0,-85 56,-163 142,-187 18,-5 36,-7 53,-7 85,0 163,56 187,142 5,18 7,36 7,53 0,85 -56,163 -142,187 l 2,8 2,8 c 93,-26 153,-111 153,-203 0,-19 -3,-38 -8,-58 -26,-93 -111,-153 -203,-153 -19,0 -38,3 -58,8 -93,26 -153,111 -153,203 0,19 3,38 8,58 26,93 111,153 203,153 19,0 38,-3 58,-8 z"
         id="path361"
         style="fill:url(#linearGradient3877);fill-opacity:1;fill-rule:nonzero"
         inkscape:connector-curvature="0" />
    </g>
  </g>
</svg>
