<?xml version="1.0" encoding="UTF-8" standalone="no"?>
<!-- Created with Inkscape (http://www.inkscape.org/) -->

<svg
   xmlns:osb="http://www.openswatchbook.org/uri/2009/osb"
   xmlns:dc="http://purl.org/dc/elements/1.1/"
   xmlns:cc="http://creativecommons.org/ns#"
   xmlns:rdf="http://www.w3.org/1999/02/22-rdf-syntax-ns#"
   xmlns:svg="http://www.w3.org/2000/svg"
   xmlns="http://www.w3.org/2000/svg"
   xmlns:xlink="http://www.w3.org/1999/xlink"
   xmlns:sodipodi="http://sodipodi.sourceforge.net/DTD/sodipodi-0.dtd"
   xmlns:inkscape="http://www.inkscape.org/namespaces/inkscape"
   width="210mm"
   height="297mm"
   viewBox="0 0 210 297"
   version="1.1"
   id="svg8"
   inkscape:version="0.92.4 (5da689c313, 2019-01-14)"
   sodipodi:docname="5.svg">
  <defs
     id="defs2">
    <linearGradient
       id="linearGradient3541"
       osb:paint="solid">
      <stop
         style="stop-color:#000000;stop-opacity:1;"
         offset="0"
         id="stop3539" />
    </linearGradient>
    <linearGradient
       inkscape:collect="always"
       xlink:href="#linearGradient3541"
       id="linearGradient3633"
       gradientUnits="userSpaceOnUse"
       x1="-1"
       y1="5917.5"
       x2="11984"
       y2="5917.5"
       gradientTransform="translate(-12612.645,-2196.2317)" />
    <linearGradient
       inkscape:collect="always"
       xlink:href="#linearGradient3541"
       id="linearGradient6702"
       gradientUnits="userSpaceOnUse"
       gradientTransform="translate(-12612.645,-2196.2317)"
       x1="-1"
       y1="5917.5"
       x2="11984"
       y2="5917.5" />
    <linearGradient
       inkscape:collect="always"
       xlink:href="#linearGradient3541"
       id="linearGradient6704"
       gradientUnits="userSpaceOnUse"
       gradientTransform="translate(-12612.645,-2196.2317)"
       x1="-1"
       y1="5917.5"
       x2="11984"
       y2="5917.5" />
    <linearGradient
       inkscape:collect="always"
       xlink:href="#linearGradient3541"
       id="linearGradient6706"
       gradientUnits="userSpaceOnUse"
       gradientTransform="translate(-12612.645,-2196.2317)"
       x1="-1"
       y1="5917.5"
       x2="11984"
       y2="5917.5" />
    <linearGradient
       inkscape:collect="always"
       xlink:href="#linearGradient3541"
       id="linearGradient6708"
       gradientUnits="userSpaceOnUse"
       gradientTransform="translate(-12612.645,-2196.2317)"
       x1="-1"
       y1="5917.5"
       x2="11984"
       y2="5917.5" />
    <linearGradient
       inkscape:collect="always"
       xlink:href="#linearGradient3541"
       id="linearGradient6710"
       gradientUnits="userSpaceOnUse"
       gradientTransform="translate(-12612.645,-2196.2317)"
       x1="-1"
       y1="5917.5"
       x2="11984"
       y2="5917.5" />
    <linearGradient
       inkscape:collect="always"
       xlink:href="#linearGradient3541"
       id="linearGradient6712"
       gradientUnits="userSpaceOnUse"
       gradientTransform="translate(-12612.645,-2196.2317)"
       x1="-1"
       y1="5917.5"
       x2="11984"
       y2="5917.5" />
    <linearGradient
       inkscape:collect="always"
       xlink:href="#linearGradient3541"
       id="linearGradient6714"
       gradientUnits="userSpaceOnUse"
       gradientTransform="translate(-12612.645,-2196.2317)"
       x1="-1"
       y1="5917.5"
       x2="11984"
       y2="5917.5" />
    <linearGradient
       inkscape:collect="always"
       xlink:href="#linearGradient3541"
       id="linearGradient6716"
       gradientUnits="userSpaceOnUse"
       gradientTransform="translate(-12612.645,-2196.2317)"
       x1="-1"
       y1="5917.5"
       x2="11984"
       y2="5917.5" />
    <linearGradient
       inkscape:collect="always"
       xlink:href="#linearGradient3541"
       id="linearGradient6718"
       gradientUnits="userSpaceOnUse"
       gradientTransform="translate(-12612.645,-2196.2317)"
       x1="-1"
       y1="5917.5"
       x2="11984"
       y2="5917.5" />
    <linearGradient
       inkscape:collect="always"
       xlink:href="#linearGradient3541"
       id="linearGradient6720"
       gradientUnits="userSpaceOnUse"
       gradientTransform="translate(-12612.645,-2196.2317)"
       x1="-1"
       y1="5917.5"
       x2="11984"
       y2="5917.5" />
    <linearGradient
       inkscape:collect="always"
       xlink:href="#linearGradient3541"
       id="linearGradient6722"
       gradientUnits="userSpaceOnUse"
       gradientTransform="translate(-12612.645,-2196.2317)"
       x1="-1"
       y1="5917.5"
       x2="11984"
       y2="5917.5" />
    <linearGradient
       inkscape:collect="always"
       xlink:href="#linearGradient3541"
       id="linearGradient6724"
       gradientUnits="userSpaceOnUse"
       gradientTransform="translate(-12612.645,-2196.2317)"
       x1="-1"
       y1="5917.5"
       x2="11984"
       y2="5917.5" />
    <linearGradient
       inkscape:collect="always"
       xlink:href="#linearGradient3541"
       id="linearGradient6726"
       gradientUnits="userSpaceOnUse"
       gradientTransform="translate(-12612.645,-2196.2317)"
       x1="-1"
       y1="5917.5"
       x2="11984"
       y2="5917.5" />
    <linearGradient
       inkscape:collect="always"
       xlink:href="#linearGradient3541"
       id="linearGradient6728"
       gradientUnits="userSpaceOnUse"
       gradientTransform="translate(-12612.645,-2196.2317)"
       x1="-1"
       y1="5917.5"
       x2="11984"
       y2="5917.5" />
    <linearGradient
       inkscape:collect="always"
       xlink:href="#linearGradient3541"
       id="linearGradient6730"
       gradientUnits="userSpaceOnUse"
       gradientTransform="translate(-12612.645,-2196.2317)"
       x1="-1"
       y1="5917.5"
       x2="11984"
       y2="5917.5" />
    <linearGradient
       inkscape:collect="always"
       xlink:href="#linearGradient3541"
       id="linearGradient6732"
       gradientUnits="userSpaceOnUse"
       gradientTransform="translate(-12612.645,-2196.2317)"
       x1="-1"
       y1="5917.5"
       x2="11984"
       y2="5917.5" />
    <linearGradient
       inkscape:collect="always"
       xlink:href="#linearGradient3541"
       id="linearGradient6734"
       gradientUnits="userSpaceOnUse"
       gradientTransform="translate(-12612.645,-2196.2317)"
       x1="-1"
       y1="5917.5"
       x2="11984"
       y2="5917.5" />
    <linearGradient
       inkscape:collect="always"
       xlink:href="#linearGradient3541"
       id="linearGradient6736"
       gradientUnits="userSpaceOnUse"
       gradientTransform="translate(-12612.645,-2196.2317)"
       x1="-1"
       y1="5917.5"
       x2="11984"
       y2="5917.5" />
    <linearGradient
       inkscape:collect="always"
       xlink:href="#linearGradient3541"
       id="linearGradient6738"
       gradientUnits="userSpaceOnUse"
       gradientTransform="translate(-12612.645,-2196.2317)"
       x1="-1"
       y1="5917.5"
       x2="11984"
       y2="5917.5" />
    <linearGradient
       inkscape:collect="always"
       xlink:href="#linearGradient3541"
       id="linearGradient6740"
       gradientUnits="userSpaceOnUse"
       gradientTransform="translate(-12612.645,-2196.2317)"
       x1="-1"
       y1="5917.5"
       x2="11984"
       y2="5917.5" />
    <linearGradient
       inkscape:collect="always"
       xlink:href="#linearGradient3541"
       id="linearGradient6742"
       gradientUnits="userSpaceOnUse"
       gradientTransform="translate(-12612.645,-2196.2317)"
       x1="-1"
       y1="5917.5"
       x2="11984"
       y2="5917.5" />
    <linearGradient
       inkscape:collect="always"
       xlink:href="#linearGradient3541"
       id="linearGradient6744"
       gradientUnits="userSpaceOnUse"
       gradientTransform="translate(-12612.645,-2196.2317)"
       x1="-1"
       y1="5917.5"
       x2="11984"
       y2="5917.5" />
    <linearGradient
       inkscape:collect="always"
       xlink:href="#linearGradient3541"
       id="linearGradient6746"
       gradientUnits="userSpaceOnUse"
       gradientTransform="translate(-12612.645,-2196.2317)"
       x1="-1"
       y1="5917.5"
       x2="11984"
       y2="5917.5" />
    <linearGradient
       inkscape:collect="always"
       xlink:href="#linearGradient3541"
       id="linearGradient6748"
       gradientUnits="userSpaceOnUse"
       gradientTransform="translate(-12612.645,-2196.2317)"
       x1="-1"
       y1="5917.5"
       x2="11984"
       y2="5917.5" />
    <linearGradient
       inkscape:collect="always"
       xlink:href="#linearGradient3541"
       id="linearGradient6750"
       gradientUnits="userSpaceOnUse"
       gradientTransform="translate(-12612.645,-2196.2317)"
       x1="-1"
       y1="5917.5"
       x2="11984"
       y2="5917.5" />
    <linearGradient
       inkscape:collect="always"
       xlink:href="#linearGradient3541"
       id="linearGradient6752"
       gradientUnits="userSpaceOnUse"
       gradientTransform="translate(-12612.645,-2196.2317)"
       x1="-1"
       y1="5917.5"
       x2="11984"
       y2="5917.5" />
    <linearGradient
       inkscape:collect="always"
       xlink:href="#linearGradient3541"
       id="linearGradient6754"
       gradientUnits="userSpaceOnUse"
       gradientTransform="translate(-12612.645,-2196.2317)"
       x1="-1"
       y1="5917.5"
       x2="11984"
       y2="5917.5" />
  </defs>
  <sodipodi:namedview
     id="base"
     pagecolor="#ffffff"
     bordercolor="#666666"
     borderopacity="1.0"
     inkscape:pageopacity="0.0"
     inkscape:pageshadow="2"
     inkscape:zoom="0.35"
     inkscape:cx="400"
     inkscape:cy="788.57143"
     inkscape:document-units="mm"
     inkscape:current-layer="g5696"
     showgrid="false"
     inkscape:window-width="958"
     inkscape:window-height="991"
     inkscape:window-x="952"
     inkscape:window-y="0"
     inkscape:window-maximized="0" />
  <metadata
     id="metadata5">
    <rdf:RDF>
      <cc:Work
         rdf:about="">
        <dc:format>image/svg+xml</dc:format>
        <dc:type
           rdf:resource="http://purl.org/dc/dcmitype/StillImage" />
        <dc:title></dc:title>
      </cc:Work>
    </rdf:RDF>
  </metadata>
  <g
     inkscape:label="Capa 1"
     inkscape:groupmode="layer"
     id="layer1">
    <g
       style="clip-rule:evenodd;fill-rule:evenodd;image-rendering:optimizeQuality;shape-rendering:geometricPrecision;text-rendering:geometricPrecision"
       id="g5696"
       transform="matrix(0.18988564,0,0,0.18988564,1693.1974,21.474506)">
      <g
         transform="matrix(0.97930771,0,0,0.97930771,-3749.4101,60.131015)"
         style="clip-rule:evenodd;fill-rule:evenodd;image-rendering:optimizeQuality;shape-rendering:geometricPrecision;text-rendering:geometricPrecision"
         id="g5741">
        <path
           class="fil0"
           d="m -4941.645,61.7683 c -20,63 -79,108 -148,108 -43,0 -82,-17 -110,-46 -28,-28 -46,-67 -46,-110 0,-43 17,-82 46,-110 28,-28 67,-46 110,-46 9,0 16,-7 16,-16 0,-9 -7,-16 -16,-16 -103,0 -187,84 -187,187 0,103 84,187 187,187 83,0 154,-54 178,-130 3,-8 -2,-17 -10,-20 -8,-3 -17,2 -20,10 z"
           id="path71"
           style="fill:url(#linearGradient6702);fill-opacity:1;fill-rule:nonzero"
           inkscape:connector-curvature="0" />
        <path
           style="fill:url(#linearGradient6704);fill-opacity:1;fill-rule:nonzero"
           d="m -5089.645,-142.2317 h 379 v -31 h -379 z"
           id="polygon73"
           inkscape:connector-curvature="0" />
        <path
           class="fil0"
           d="m -4910.645,68.7683 c 0,-4 1,-8 1,-12 0,-76 -55,-144 -133,-157 -7,-1 -15,-2 -22,-2 -63,0 -118,45 -129,109 -1,6 -1,12 -1,18 0,52 37,97 90,106 5,1 10,1 15,1 43,0 81,-31 88,-74 1,-4 1,-8 1,-12 0,-36 -26,-67 -62,-73 -4,-1 -7,-1 -10,-1 -30,0 -57,22 -62,52 -1,9 4,17 13,18 9,1 17,-4 18,-13 3,-15 16,-26 31,-26 2,0 3,0 5,0 21,3 36,22 36,42 0,2 0,5 -1,7 -5,28 -29,48 -57,48 -3,0 -6,0 -10,-1 -37,-6 -63,-39 -63,-75 0,-4 0,-8 1,-13 8,-48 50,-83 98,-83 5,0 11,0 17,1 62,10 107,65 107,126 0,3 0,7 0,10 -1,9 6,16 14,17 9,1 16,-6 17,-14 z"
           id="path75"
           style="fill:url(#linearGradient6706);fill-opacity:1;fill-rule:nonzero"
           inkscape:connector-curvature="0" />
        <path
           class="fil0"
           d="m -4922.645,40.7683 h 207 c 9,0 16,-7 16,-16 0,-9 -7,-16 -16,-16 h -207 c -9,0 -16,7 -16,16 0,9 7,16 16,16 z"
           id="path77"
           style="fill:url(#linearGradient6708);fill-opacity:1;fill-rule:nonzero"
           inkscape:connector-curvature="0" />
        <path
           class="fil0"
           d="m -4947.645,134.7683 h 232 c 9,0 16,-7 16,-16 0,-9 -7,-16 -16,-16 h -232 c -9,0 -16,7 -16,16 0,9 7,16 16,16 z"
           id="path79"
           style="fill:url(#linearGradient6710);fill-opacity:1;fill-rule:nonzero"
           inkscape:connector-curvature="0" />
        <path
           class="fil0"
           d="m -4813.645,25.7683 c 0,0 0,1 0,2 0,7 0,27 6,46 3,10 7,19 14,27 7,8 17,13 29,13 4,0 8,-4 8,-8 0,-4 -4,-8 -8,-8 -8,0 -13,-3 -17,-8 -7,-7 -11,-21 -14,-34 -2,-13 -3,-25 -3,-29 v -2 0 c 0,-4 -3,-8 -8,-8 -4,0 -8,3 -8,8 z"
           id="path81"
           style="fill:url(#linearGradient6712);fill-opacity:1;fill-rule:nonzero"
           inkscape:connector-curvature="0" />
        <path
           class="fil0"
           d="m -4726.645,26.7683 v 0 2 c 0,6 -1,25 -6,42 -2,8 -6,16 -11,21 -5,5 -10,8 -17,8 -4,0 -8,4 -8,8 0,4 4,8 8,8 12,0 22,-5 29,-13 10,-12 15,-27 17,-41 3,-14 3,-27 3,-32 0,-1 0,-2 0,-2 0,-4 -4,-8 -8,-8 -4,0 -8,4 -8,8 z"
           id="path83"
           style="fill:url(#linearGradient6714);fill-opacity:1;fill-rule:nonzero"
           inkscape:connector-curvature="0" />
        <path
           class="fil0"
           d="m -4913.645,25.7683 c 0,0 0,1 0,2 0,7 0,27 6,46 3,10 7,19 14,27 7,8 17,13 29,13 4,0 8,-4 8,-8 0,-4 -4,-8 -8,-8 -8,0 -13,-3 -17,-8 -7,-7 -11,-21 -14,-34 -2,-13 -3,-25 -3,-29 v -2 0 c 0,-4 -3,-8 -8,-8 -4,0 -8,3 -8,8 z"
           id="path85"
           style="fill:url(#linearGradient6716);fill-opacity:1;fill-rule:nonzero"
           inkscape:connector-curvature="0" />
        <path
           class="fil0"
           d="m -4984.645,144.7683 v 512 c 0,9 7,16 16,16 9,0 16,-7 16,-16 v -512 c 0,-9 -7,-16 -16,-16 -9,0 -16,7 -16,16 z"
           id="path87"
           style="fill:url(#linearGradient6718);fill-opacity:1;fill-rule:nonzero"
           inkscape:connector-curvature="0" />
        <path
           class="fil0"
           d="m -4794.645,657.7683 v -435 h -2 2 v 0 h -2 2 c 0,0 0,-8 4,-14 2,-3 4,-6 7,-8 3,-2 8,-4 14,-4 4,0 8,-4 8,-8 0,-4 -4,-8 -8,-8 -10,0 -18,3 -23,7 -9,6 -13,15 -15,22 -2,7 -2,13 -2,13 v 435 c 0,4 4,8 8,8 4,0 8,-4 8,-8 z"
           id="path89"
           style="fill:url(#linearGradient6720);fill-opacity:1;fill-rule:nonzero"
           inkscape:connector-curvature="0" />
        <path
           class="fil0"
           d="m -4727.645,657.7683 v -435 c 0,-1 0,-10 -5,-20 -3,-5 -6,-11 -12,-15 -6,-4 -14,-7 -23,-7 -4,0 -8,4 -8,8 0,4 4,8 8,8 7,0 11,2 14,4 5,3 8,9 9,14 1,2 1,5 1,6 v 2 0 0 h 3 -3 v 0 h 3 -3 v 435 c 0,4 4,8 8,8 4,0 8,-4 8,-8 z"
           id="path91"
           style="fill:url(#linearGradient6722);fill-opacity:1;fill-rule:nonzero"
           inkscape:connector-curvature="0" />
        <path
           class="fil0"
           d="m -4910.645,657.7683 v -435 h -1 1 v 0 h -1 1 c 0,0 0,-8 4,-14 2,-3 4,-6 7,-8 3,-2 8,-4 14,-4 4,0 8,-4 8,-8 0,-4 -4,-8 -8,-8 -10,0 -18,3 -23,7 -9,6 -13,15 -15,22 -2,7 -2,13 -2,13 v 435 c 0,4 4,8 8,8 4,0 8,-4 8,-8 z"
           id="path93"
           style="fill:url(#linearGradient6724);fill-opacity:1;fill-rule:nonzero"
           inkscape:connector-curvature="0" />
        <path
           class="fil0"
           d="m -4843.645,657.7683 v -435 c 0,-1 0,-10 -5,-20 -3,-5 -6,-11 -12,-15 -6,-4 -14,-7 -23,-7 -4,0 -8,4 -8,8 0,4 4,8 8,8 7,0 11,2 14,4 5,3 8,9 9,14 1,2 1,5 1,6 v 2 0 0 h 3 -3 v 0 h 3 -3 v 435 c 0,4 4,8 8,8 4,0 8,-4 8,-8 z"
           id="path95"
           style="fill:url(#linearGradient6726);fill-opacity:1;fill-rule:nonzero"
           inkscape:connector-curvature="0" />
        <path
           class="fil0"
           d="m -4511.645,71.7683 c 24,75 95,130 178,130 103,0 187,-84 187,-187 0,-103 -84,-187 -187,-187 -9,0 -16,7 -16,16 0,9 7,16 16,16 43,0 82,17 110,46 28,28 46,67 46,110 0,43 -17,82 -46,110 -28,28 -67,46 -110,46 -69,0 -128,-45 -148,-108 -3,-8 -12,-13 -20,-10 -8,3 -13,12 -10,20 z"
           id="path97"
           style="fill:url(#linearGradient6728);fill-opacity:1;fill-rule:nonzero"
           inkscape:connector-curvature="0" />
        <path
           style="fill:url(#linearGradient6730);fill-opacity:1;fill-rule:nonzero"
           d="m -4711.645,-142.2317 h 379 v -31 h -379 z"
           id="polygon99"
           inkscape:connector-curvature="0" />
        <path
           class="fil0"
           d="m -4481.645,65.7683 c 0,-3 0,-7 0,-10 0,-61 44,-115 107,-126 6,-1 11,-1 17,-1 47,0 89,34 98,83 1,4 1,9 1,13 0,36 -26,69 -63,75 -3,1 -6,1 -10,1 -28,0 -52,-20 -57,-48 0,-2 -1,-5 -1,-7 0,-21 15,-39 36,-42 2,0 4,0 5,0 15,0 28,11 31,26 1,9 10,14 18,13 9,-1 14,-10 13,-18 -5,-31 -32,-52 -62,-52 -3,0 -7,0 -10,1 -36,6 -62,38 -62,73 0,4 0,8 1,12 7,44 45,74 88,74 5,0 10,0 15,-1 53,-9 90,-54 90,-106 0,-6 -1,-12 -1,-18 -11,-64 -66,-109 -129,-109 -7,0 -14,1 -22,2 -78,13 -133,80 -133,157 0,4 0,8 0,12 1,9 8,15 17,14 9,-1 15,-8 14,-17 v 0 z"
           id="path101"
           style="fill:url(#linearGradient6732);fill-opacity:1;fill-rule:nonzero"
           inkscape:connector-curvature="0" />
        <path
           class="fil0"
           d="m -4500.645,8.7683 h -207 c -9,0 -16,7 -16,16 0,9 7,16 16,16 h 207 c 9,0 16,-7 16,-16 0,-9 -7,-16 -16,-16 z"
           id="path103"
           style="fill:url(#linearGradient6734);fill-opacity:1;fill-rule:nonzero"
           inkscape:connector-curvature="0" />
        <path
           class="fil0"
           d="m -4475.645,102.7683 h -232 c -9,0 -16,7 -16,16 0,9 7,16 16,16 h 232 c 9,0 16,-7 16,-16 0,-9 -7,-16 -16,-16 z"
           id="path105"
           style="fill:url(#linearGradient6736);fill-opacity:1;fill-rule:nonzero"
           inkscape:connector-curvature="0" />
        <path
           class="fil0"
           d="m -4712.645,25.7683 c 0,0 0,1 0,2 0,7 0,27 6,46 3,10 7,19 14,27 7,8 17,13 29,13 4,0 8,-4 8,-8 0,-4 -4,-8 -8,-8 -8,0 -13,-3 -17,-8 -7,-7 -11,-21 -14,-34 -2,-13 -3,-25 -3,-29 v -2 0 c 0,-4 -3,-8 -8,-8 -4,0 -8,3 -8,8 z"
           id="path107"
           style="fill:url(#linearGradient6738);fill-opacity:1;fill-rule:nonzero"
           inkscape:connector-curvature="0" />
        <path
           class="fil0"
           d="m -4524.645,26.7683 v 0 1 c 0,6 -1,25 -6,42 -2,8 -6,16 -11,21 -5,5 -10,8 -17,8 -4,0 -8,4 -8,8 0,4 4,8 8,8 12,0 22,-5 29,-13 10,-12 15,-27 17,-41 3,-14 3,-27 3,-32 0,-1 0,-2 0,-2 0,-4 -4,-8 -8,-8 -4,0 -8,4 -8,8 z"
           id="path109"
           style="fill:url(#linearGradient6740);fill-opacity:1;fill-rule:nonzero"
           inkscape:connector-curvature="0" />
        <path
           class="fil0"
           d="m -4611.645,25.7683 c 0,0 0,1 0,2 0,7 0,27 6,46 3,10 7,19 14,27 7,8 17,13 29,13 4,0 8,-4 8,-8 0,-4 -4,-8 -8,-8 -8,0 -13,-3 -17,-8 -7,-7 -11,-21 -14,-34 -2,-13 -3,-25 -3,-29 v -2 0 c 0,-4 -3,-8 -8,-8 -4,0 -8,3 -8,8 z"
           id="path111"
           style="fill:url(#linearGradient6742);fill-opacity:1;fill-rule:nonzero"
           inkscape:connector-curvature="0" />
        <path
           class="fil0"
           d="m -4470.645,144.7683 v 512 c 0,9 7,16 16,16 9,0 16,-7 16,-16 v -512 c 0,-9 -7,-16 -16,-16 -9,0 -16,7 -16,16 z"
           id="path113"
           style="fill:url(#linearGradient6744);fill-opacity:1;fill-rule:nonzero"
           inkscape:connector-curvature="0" />
        <path
           class="fil0"
           d="m -4612.645,657.7683 v -435 c 0,-1 0,-10 -5,-20 -2,-5 -6,-11 -12,-15 -6,-4 -14,-7 -23,-7 -4,0 -8,4 -8,8 0,4 4,8 8,8 7,0 11,2 14,4 5,3 8,9 9,14 1,2 1,5 1,6 v 2 0 0 h 3 -3 v 0 h 3 -3 v 435 c 0,4 4,8 8,8 4,0 8,-4 8,-8 z"
           id="path115"
           style="fill:url(#linearGradient6746);fill-opacity:1;fill-rule:nonzero"
           inkscape:connector-curvature="0" />
        <path
           class="fil0"
           d="m -4679.645,657.7683 v -435 h -1 1 v 0 h -1 1 c 0,0 0,-8 4,-14 2,-3 4,-6 7,-8 3,-2 8,-4 14,-4 4,0 8,-4 8,-8 0,-4 -4,-8 -8,-8 -10,0 -18,3 -23,7 -9,6 -13,15 -15,22 -2,7 -2,13 -2,13 v 435 c 0,4 4,8 8,8 4,0 8,-4 8,-8 z"
           id="path117"
           style="fill:url(#linearGradient6748);fill-opacity:1;fill-rule:nonzero"
           inkscape:connector-curvature="0" />
        <path
           class="fil0"
           d="m -4496.645,657.7683 v -435 c 0,-1 0,-10 -5,-20 -3,-5 -6,-11 -12,-15 -6,-4 -14,-7 -23,-7 -4,0 -8,4 -8,8 0,4 4,8 8,8 7,0 11,2 15,4 5,3 8,9 9,14 1,2 1,5 1,6 v 2 0 0 h 3 -3 v 0 h 3 -3 v 435 c 0,4 4,8 8,8 4,0 8,-4 8,-8 z"
           id="path119"
           style="fill:url(#linearGradient6750);fill-opacity:1;fill-rule:nonzero"
           inkscape:connector-curvature="0" />
        <path
           class="fil0"
           d="m -4563.645,657.7683 v -435 h -2 2 v 0 h -2 2 c 0,0 0,-8 4,-14 2,-3 4,-6 7,-8 3,-2 8,-4 14,-4 4,0 8,-4 8,-8 0,-4 -4,-8 -8,-8 -10,0 -18,3 -23,7 -9,6 -13,15 -15,22 -2,7 -2,13 -2,13 v 435 c 0,4 4,8 8,8 4,0 8,-4 8,-8 z"
           id="path121"
           style="fill:url(#linearGradient6752);fill-opacity:1;fill-rule:nonzero"
           inkscape:connector-curvature="0" />
        <path
           class="fil0"
           d="m -4957.645,-31.2317 h 487 c 4,0 8,-4 8,-8 0,-4 -4,-8 -8,-8 h -487 c -4,0 -8,4 -8,8 0,4 4,8 8,8 z"
           id="path123"
           style="fill:url(#linearGradient6754);fill-opacity:1;fill-rule:nonzero"
           inkscape:connector-curvature="0" />
        <path
           class="fil0"
           d="m -5018.645,-71.2317 h 609 c 4,0 8,-4 8,-8 0,-4 -4,-8 -8,-8 h -609 c -4,0 -8,4 -8,8 0,4 4,8 8,8 z"
           id="path125"
           style="fill:url(#linearGradient3633);fill-opacity:1;fill-rule:nonzero"
           inkscape:connector-curvature="0" />
      </g>
    </g>
  </g>
</svg>
