<?xml version="1.0" encoding="UTF-8" standalone="no"?>
<!-- Created with Inkscape (http://www.inkscape.org/) -->

<svg
   xmlns:osb="http://www.openswatchbook.org/uri/2009/osb"
   xmlns:dc="http://purl.org/dc/elements/1.1/"
   xmlns:cc="http://creativecommons.org/ns#"
   xmlns:rdf="http://www.w3.org/1999/02/22-rdf-syntax-ns#"
   xmlns:svg="http://www.w3.org/2000/svg"
   xmlns="http://www.w3.org/2000/svg"
   xmlns:xlink="http://www.w3.org/1999/xlink"
   xmlns:sodipodi="http://sodipodi.sourceforge.net/DTD/sodipodi-0.dtd"
   xmlns:inkscape="http://www.inkscape.org/namespaces/inkscape"
   width="210mm"
   height="297mm"
   viewBox="0 0 210 297"
   version="1.1"
   id="svg8"
   inkscape:version="0.92.4 (5da689c313, 2019-01-14)"
   sodipodi:docname="6.svg">
  <defs
     id="defs2">
    <linearGradient
       id="linearGradient3541"
       osb:paint="solid">
      <stop
         style="stop-color:#000000;stop-opacity:1;"
         offset="0"
         id="stop3539" />
    </linearGradient>
    <linearGradient
       inkscape:collect="always"
       xlink:href="#linearGradient3541"
       id="linearGradient4783"
       gradientUnits="userSpaceOnUse"
       x1="-1"
       y1="5917.5"
       x2="11984"
       y2="5917.5"
       gradientTransform="translate(-12612.645,-2196.2317)" />
    <linearGradient
       inkscape:collect="always"
       xlink:href="#linearGradient3541"
       id="linearGradient5331"
       gradientUnits="userSpaceOnUse"
       gradientTransform="translate(-12612.645,-2196.2317)"
       x1="-1"
       y1="5917.5"
       x2="11984"
       y2="5917.5" />
    <linearGradient
       inkscape:collect="always"
       xlink:href="#linearGradient3541"
       id="linearGradient5333"
       gradientUnits="userSpaceOnUse"
       gradientTransform="translate(-12612.645,-2196.2317)"
       x1="-1"
       y1="5917.5"
       x2="11984"
       y2="5917.5" />
    <linearGradient
       inkscape:collect="always"
       xlink:href="#linearGradient3541"
       id="linearGradient5335"
       gradientUnits="userSpaceOnUse"
       gradientTransform="translate(-12612.645,-2196.2317)"
       x1="-1"
       y1="5917.5"
       x2="11984"
       y2="5917.5" />
    <linearGradient
       inkscape:collect="always"
       xlink:href="#linearGradient3541"
       id="linearGradient5337"
       gradientUnits="userSpaceOnUse"
       gradientTransform="translate(-12612.645,-2196.2317)"
       x1="-1"
       y1="5917.5"
       x2="11984"
       y2="5917.5" />
    <linearGradient
       inkscape:collect="always"
       xlink:href="#linearGradient3541"
       id="linearGradient5339"
       gradientUnits="userSpaceOnUse"
       gradientTransform="translate(-12612.645,-2196.2317)"
       x1="-1"
       y1="5917.5"
       x2="11984"
       y2="5917.5" />
    <linearGradient
       inkscape:collect="always"
       xlink:href="#linearGradient3541"
       id="linearGradient5341"
       gradientUnits="userSpaceOnUse"
       gradientTransform="translate(-12612.645,-2196.2317)"
       x1="-1"
       y1="5917.5"
       x2="11984"
       y2="5917.5" />
    <linearGradient
       inkscape:collect="always"
       xlink:href="#linearGradient3541"
       id="linearGradient5343"
       gradientUnits="userSpaceOnUse"
       gradientTransform="translate(-12612.645,-2196.2317)"
       x1="-1"
       y1="5917.5"
       x2="11984"
       y2="5917.5" />
    <linearGradient
       inkscape:collect="always"
       xlink:href="#linearGradient3541"
       id="linearGradient5345"
       gradientUnits="userSpaceOnUse"
       gradientTransform="translate(-12612.645,-2196.2317)"
       x1="-1"
       y1="5917.5"
       x2="11984"
       y2="5917.5" />
    <linearGradient
       inkscape:collect="always"
       xlink:href="#linearGradient3541"
       id="linearGradient5347"
       gradientUnits="userSpaceOnUse"
       gradientTransform="translate(-12612.645,-2196.2317)"
       x1="-1"
       y1="5917.5"
       x2="11984"
       y2="5917.5" />
    <linearGradient
       inkscape:collect="always"
       xlink:href="#linearGradient3541"
       id="linearGradient5349"
       gradientUnits="userSpaceOnUse"
       gradientTransform="translate(-12612.645,-2196.2317)"
       x1="-1"
       y1="5917.5"
       x2="11984"
       y2="5917.5" />
    <linearGradient
       inkscape:collect="always"
       xlink:href="#linearGradient3541"
       id="linearGradient5351"
       gradientUnits="userSpaceOnUse"
       gradientTransform="translate(-12612.645,-2196.2317)"
       x1="-1"
       y1="5917.5"
       x2="11984"
       y2="5917.5" />
    <linearGradient
       inkscape:collect="always"
       xlink:href="#linearGradient3541"
       id="linearGradient5353"
       gradientUnits="userSpaceOnUse"
       gradientTransform="translate(-12612.645,-2196.2317)"
       x1="-1"
       y1="5917.5"
       x2="11984"
       y2="5917.5" />
  </defs>
  <sodipodi:namedview
     id="base"
     pagecolor="#ffffff"
     bordercolor="#666666"
     borderopacity="1.0"
     inkscape:pageopacity="0.0"
     inkscape:pageshadow="2"
     inkscape:zoom="0.35"
     inkscape:cx="400"
     inkscape:cy="560"
     inkscape:document-units="mm"
     inkscape:current-layer="layer1"
     showgrid="false"
     inkscape:window-width="958"
     inkscape:window-height="991"
     inkscape:window-x="952"
     inkscape:window-y="0"
     inkscape:window-maximized="0" />
  <metadata
     id="metadata5">
    <rdf:RDF>
      <cc:Work
         rdf:about="">
        <dc:format>image/svg+xml</dc:format>
        <dc:type
           rdf:resource="http://purl.org/dc/dcmitype/StillImage" />
        <dc:title></dc:title>
      </cc:Work>
    </rdf:RDF>
  </metadata>
  <g
     inkscape:label="Capa 1"
     inkscape:groupmode="layer"
     id="layer1">
    <g
       transform="matrix(0.20259592,0,0,0.20259592,702.56615,-1385.7789)"
       style="clip-rule:evenodd;fill-rule:evenodd;image-rendering:optimizeQuality;shape-rendering:geometricPrecision;text-rendering:geometricPrecision"
       id="g6102">
      <path
         class="fil0"
         d="m -2438.645,7595.7683 h -8 c 0,12 -10,22 -22,22 -12,0 -22,-10 -22,-22 0,-12 10,-22 22,-22 12,0 22,10 22,22 h 16 c 0,-21 -17,-38 -39,-39 -21,0 -39,17 -39,39 0,21 17,39 39,39 21,0 39,-17 39,-39 z"
         id="path1221"
         style="fill:url(#linearGradient5331);fill-opacity:1;fill-rule:nonzero"
         inkscape:connector-curvature="0" />
      <path
         class="fil0"
         d="m -2839.645,6959.7683 h -8 c 0,11 -9,21 -21,21 -11,0 -21,-9 -21,-21 0,-11 9,-21 21,-21 11,0 21,9 21,21 h 16 c 0,-20 -16,-37 -37,-37 -20,0 -37,16 -37,37 0,20 16,37 37,37 20,0 37,-16 37,-37 z"
         id="path1223"
         style="fill:url(#linearGradient5333);fill-opacity:1;fill-rule:nonzero"
         inkscape:connector-curvature="0" />
      <path
         class="fil0"
         d="m -2855.645,7717.7683 h -8 c 0,3 -3,6 -6,6 -3,0 -6,-3 -6,-6 0,-3 3,-6 6,-6 3,0 6,3 6,6 h 16 c 0,-12 -10,-22 -22,-22 -12,0 -22,10 -22,22 0,12 10,22 22,22 12,0 22,-10 22,-22 z"
         id="path1225"
         style="fill:url(#linearGradient5335);fill-opacity:1;fill-rule:nonzero"
         inkscape:connector-curvature="0" />
      <path
         class="fil0"
         d="m -3116.645,6853.7683 -5,6 38,32 c 2,2 5,2 7,2 l 32,-9 -12,31 c -1,2 -1,5 1,7 l 18,28 -33,-2 c -3,0 -5,1 -7,3 l -21,26 -8,-32 c -1,-3 -3,-5 -5,-6 l -31,-12 28,-18 c 2,-1 4,-4 4,-6 l 2,-49 h -8 l -5,6 5,-6 h -8 l -2,45 -38,24 c -3,2 -4,5 -4,8 0,3 2,6 5,7 l 42,16 11,44 c 1,3 3,5 6,6 3,1 6,0 8,-3 l 28,-35 45,3 c 3,0 6,-1 8,-4 2,-3 1,-6 0,-9 l -25,-38 17,-42 c 1,-3 1,-6 -1,-8 -2,-2 -5,-3 -8,-2 l -44,12 -35,-29 c -2,-2 -6,-2 -8,-1 -3,1 -5,4 -5,7 h 8 z"
         id="path1227"
         style="fill:url(#linearGradient5337);fill-opacity:1;fill-rule:nonzero"
         inkscape:connector-curvature="0" />
      <path
         class="fil0"
         d="m -2688.645,7693.7683 -8,2 14,48 c 1,3 3,5 5,5 l 31,11 -27,19 c -2,2 -4,4 -4,7 v 33 l -26,-20 c -2,-2 -5,-2 -7,-1 l -32,10 11,-31 c 1,-2 1,-5 -1,-7 l -19,-27 33,1 c 3,0 5,-1 7,-3 l 29,-40 -7,-5 -8,2 8,-2 -6,-5 -27,36 -45,-1 c -3,0 -6,2 -7,4 -1,3 -1,6 1,9 l 26,37 -15,43 c -1,3 0,6 2,8 2,2 5,3 8,2 l 43,-14 36,28 c 2,2 6,2 8,1 3,-1 5,-4 5,-7 v -45 l 37,-25 c 3,-2 4,-5 3,-8 0,-3 -3,-6 -5,-7 l -43,-14 -13,-43 c -1,-3 -3,-5 -6,-6 -3,-1 -6,1 -8,3 l 6,5 z"
         id="path1229"
         style="fill:url(#linearGradient5339);fill-opacity:1;fill-rule:nonzero"
         inkscape:connector-curvature="0" />
      <path
         class="fil0"
         d="m -2912.645,7560.7683 c -46,-34 -81,-82 -98,-140 -7,-25 -11,-51 -11,-76 0,-116 76,-223 193,-258 25,-7 51,-11 76,-11 116,0 223,76 258,193 7,25 11,51 11,76 0,116 -76,223 -193,258 -25,7 -51,11 -76,11 -33,0 -65,-6 -95,-17 l -11,30 c 34,13 70,20 106,20 28,0 57,-4 85,-12 131,-39 216,-159 216,-289 0,-28 -4,-57 -12,-85 -39,-131 -159,-216 -289,-216 -28,0 -57,4 -85,12 -131,39 -216,159 -216,289 0,28 4,57 12,85 19,65 59,119 110,157 l 19,-26 z"
         id="path1231"
         style="fill:url(#linearGradient5341);fill-opacity:1;fill-rule:nonzero"
         inkscape:connector-curvature="0" />
      <path
         class="fil0"
         d="m -2877.645,7510.7683 c -35,-26 -61,-63 -75,-108 -6,-20 -9,-39 -9,-59 0,-90 59,-173 149,-199 20,-6 39,-9 59,-9 90,0 173,59 199,149 6,20 9,39 9,59 0,90 -59,173 -149,199 -20,6 -39,9 -59,9 -21,0 -42,-3 -62,-9 l -10,31 c 23,7 47,11 71,11 22,0 45,-3 68,-10 105,-31 172,-126 172,-230 0,-22 -3,-45 -10,-68 -31,-105 -126,-172 -230,-172 -22,0 -45,3 -68,10 -105,31 -172,126 -172,230 0,22 3,45 10,68 15,52 46,94 86,124 l 19,-26 z"
         id="path1233"
         style="fill:url(#linearGradient5343);fill-opacity:1;fill-rule:nonzero"
         inkscape:connector-curvature="0" />
      <path
         class="fil0"
         d="m -2901.645,7182.7683 c 39,36 69,83 85,138 9,29 13,59 13,88 0,134 -87,257 -222,297 -29,9 -59,13 -88,13 -134,0 -257,-87 -297,-222 -9,-29 -13,-59 -13,-88 0,-134 87,-257 222,-297 29,-9 59,-13 88,-13 56,0 111,16 158,44 l 16,-28 c -52,-31 -113,-48 -175,-48 -32,0 -65,5 -97,14 -149,44 -246,180 -246,328 0,32 5,65 14,97 44,149 180,246 328,246 32,0 65,-5 97,-14 149,-44 246,-180 246,-328 0,-32 -5,-65 -14,-97 -18,-60 -51,-112 -94,-152 l -22,23 z"
         id="path1235"
         style="fill:url(#linearGradient5345);fill-opacity:1;fill-rule:nonzero"
         inkscape:connector-curvature="0" />
      <path
         class="fil0"
         d="m -2943.645,7238.7683 c 27,27 48,62 60,102 7,23 10,46 10,68 0,104 -68,200 -172,230 -23,7 -46,10 -68,10 -104,0 -200,-68 -230,-172 -7,-23 -10,-46 -10,-68 0,-104 68,-200 172,-230 23,-7 46,-10 68,-10 41,0 80,10 115,29 l 15,-28 c -39,-22 -84,-33 -130,-33 -25,0 -51,4 -77,11 -119,35 -196,143 -196,261 0,26 4,51 11,77 35,119 143,196 261,196 25,0 51,-4 77,-11 119,-35 196,-143 196,-261 0,-26 -4,-51 -11,-77 -13,-45 -37,-84 -68,-115 l -23,23 z"
         id="path1237"
         style="fill:url(#linearGradient5347);fill-opacity:1;fill-rule:nonzero"
         inkscape:connector-curvature="0" />
      <path
         class="fil0"
         d="m -2571.645,7107.7683 31,-57 c 4,-8 1,-18 -6,-22 -8,-4 -18,-1 -22,6 l -31,57 c -4,8 -1,18 6,22 8,4 18,1 22,-6 z"
         id="path1239"
         style="fill:url(#linearGradient5349);fill-opacity:1;fill-rule:nonzero"
         inkscape:connector-curvature="0" />
      <path
         class="fil0"
         d="m -2575.645,7105.7683 -21,-113 107,58 -106,44 c -8,3 -12,13 -9,21 3,8 13,12 21,9 l 138,-56 c 6,-2 10,-8 10,-14 0,-6 -3,-12 -8,-15 l -166,-91 c -5,-3 -12,-3 -17,1 -5,4 -8,10 -6,16 l 27,146 c 2,9 10,15 19,13 9,-2 15,-10 13,-19 z"
         id="path1241"
         style="fill:url(#linearGradient5351);fill-opacity:1;fill-rule:nonzero"
         inkscape:connector-curvature="0" />
      <path
         class="fil0"
         d="m -2608.645,6973.7683 29,-24 54,30 c 8,4 18,1 22,-6 4,-8 1,-18 -6,-22 l -64,-35 c -6,-3 -13,-2 -18,2 l -37,31 c -7,6 -8,16 -2,23 6,7 16,8 23,2 z"
         id="path1243"
         style="fill:url(#linearGradient5353);fill-opacity:1;fill-rule:nonzero"
         inkscape:connector-curvature="0" />
      <path
         class="fil0"
         d="m -2435.645,7054.7683 6,-48 c 1,-7 -3,-13 -8,-16 l -73,-40 c -8,-4 -18,-1 -22,6 -4,8 -1,18 6,22 l 64,35 -4,37 c -1,9 5,17 14,18 9,1 17,-5 18,-14 z"
         id="path1245"
         style="fill:url(#linearGradient4783);fill-opacity:1;fill-rule:nonzero"
         inkscape:connector-curvature="0" />
    </g>
  </g>
</svg>
