<?xml version="1.0" encoding="UTF-8" standalone="no"?>
<!-- Created with Inkscape (http://www.inkscape.org/) -->

<svg
   xmlns:osb="http://www.openswatchbook.org/uri/2009/osb"
   xmlns:dc="http://purl.org/dc/elements/1.1/"
   xmlns:cc="http://creativecommons.org/ns#"
   xmlns:rdf="http://www.w3.org/1999/02/22-rdf-syntax-ns#"
   xmlns:svg="http://www.w3.org/2000/svg"
   xmlns="http://www.w3.org/2000/svg"
   xmlns:xlink="http://www.w3.org/1999/xlink"
   xmlns:sodipodi="http://sodipodi.sourceforge.net/DTD/sodipodi-0.dtd"
   xmlns:inkscape="http://www.inkscape.org/namespaces/inkscape"
   width="210mm"
   height="297mm"
   viewBox="0 0 210 297"
   version="1.1"
   id="svg8"
   inkscape:version="0.92.4 (5da689c313, 2019-01-14)"
   sodipodi:docname="7.svg">
  <defs
     id="defs2">
    <linearGradient
       id="linearGradient3541"
       osb:paint="solid">
      <stop
         style="stop-color:#000000;stop-opacity:1;"
         offset="0"
         id="stop3539" />
    </linearGradient>
    <linearGradient
       inkscape:collect="always"
       xlink:href="#linearGradient3541"
       id="linearGradient4809"
       gradientUnits="userSpaceOnUse"
       x1="-1"
       y1="5917.5"
       x2="11984"
       y2="5917.5"
       gradientTransform="translate(-12612.645,-2196.2317)" />
    <linearGradient
       inkscape:collect="always"
       xlink:href="#linearGradient3541"
       id="linearGradient5377"
       gradientUnits="userSpaceOnUse"
       gradientTransform="translate(-12612.645,-2196.2317)"
       x1="-1"
       y1="5917.5"
       x2="11984"
       y2="5917.5" />
    <linearGradient
       inkscape:collect="always"
       xlink:href="#linearGradient3541"
       id="linearGradient5379"
       gradientUnits="userSpaceOnUse"
       gradientTransform="translate(-12612.645,-2196.2317)"
       x1="-1"
       y1="5917.5"
       x2="11984"
       y2="5917.5" />
  </defs>
  <sodipodi:namedview
     id="base"
     pagecolor="#ffffff"
     bordercolor="#666666"
     borderopacity="1.0"
     inkscape:pageopacity="0.0"
     inkscape:pageshadow="2"
     inkscape:zoom="0.35"
     inkscape:cx="400"
     inkscape:cy="560"
     inkscape:document-units="mm"
     inkscape:current-layer="layer1"
     showgrid="false"
     inkscape:window-width="958"
     inkscape:window-height="991"
     inkscape:window-x="952"
     inkscape:window-y="0"
     inkscape:window-maximized="0" />
  <metadata
     id="metadata5">
    <rdf:RDF>
      <cc:Work
         rdf:about="">
        <dc:format>image/svg+xml</dc:format>
        <dc:type
           rdf:resource="http://purl.org/dc/dcmitype/StillImage" />
        <dc:title></dc:title>
      </cc:Work>
    </rdf:RDF>
  </metadata>
  <g
     inkscape:label="Capa 1"
     inkscape:groupmode="layer"
     id="layer1">
    <g
       transform="matrix(0.19037479,0,0,0.19037479,1352.6136,-1646.0435)"
       style="clip-rule:evenodd;fill-rule:evenodd;image-rendering:optimizeQuality;shape-rendering:geometricPrecision;text-rendering:geometricPrecision"
       id="g6125">
      <path
         class="fil0"
         d="m -6693.645,9082.7683 c 0,28 4,57 12,85 18,60 53,111 98,148 -28,28 -62,49 -102,61 -23,7 -46,10 -68,10 -104,0 -200,-68 -230,-172 -7,-23 -10,-46 -10,-68 0,-104 68,-200 172,-230 23,-7 46,-10 68,-10 36,0 71,8 102,23 -27,46 -43,99 -43,154 z m 188,249 c -39,52 -94,92 -160,111 -29,9 -59,13 -88,13 -134,0 -257,-87 -297,-222 -9,-29 -13,-59 -13,-88 0,-134 87,-257 222,-297 29,-9 59,-13 88,-13 51,0 101,13 145,36 -9,9 -17,19 -25,29 -37,-18 -78,-28 -120,-28 -25,0 -51,4 -77,11 -119,35 -196,143 -196,261 0,25 4,51 11,77 35,119 143,196 261,196 25,0 51,-4 77,-11 71,-21 127,-68 160,-128 l -11,-54 c -1,4 -3,9 -5,13 -28,-25 -49,-58 -61,-96 -6,-20 -9,-39 -9,-59 0,-35 9,-69 25,-98 l 1,1 -9,-47 c -31,41 -49,92 -49,145 0,22 3,45 10,68 14,47 41,87 77,117 -5,8 -10,16 -16,24 -41,-33 -72,-78 -88,-133 -8,-25 -11,-51 -11,-76 0,-67 26,-132 70,-181 l -13,-64 c -46,-22 -97,-34 -149,-34 -32,0 -65,5 -97,14 -149,44 -246,180 -246,328 0,32 5,65 14,97 44,149 180,246 328,246 32,0 65,-5 97,-14 64,-19 118,-55 159,-102 l -8,-41 z"
         id="path1247"
         style="fill:url(#linearGradient5377);fill-opacity:1;fill-rule:nonzero"
         inkscape:connector-curvature="0" />
      <path
         class="fil0"
         d="m -6441.645,8908.7683 c 17,-11 35,-20 55,-26 20,-6 39,-9 59,-9 90,0 173,59 199,149 6,20 9,39 9,59 0,90 -59,173 -149,199 -20,6 -39,9 -59,9 -16,0 -32,-2 -48,-6 19,-43 30,-90 30,-139 0,-32 -5,-65 -14,-97 -16,-55 -45,-102 -81,-140 z m 298,-135 -14,26 -13,-70 107,58 -65,27 14,-25 c 4,-8 1,-18 -6,-22 -8,-4 -18,-1 -22,6 z m -10,-86 52,29 v 0 l 64,35 -2,14 -125,-68 11,-9 z m -89,683 c 131,-39 216,-158 216,-289 0,-28 -4,-57 -12,-85 -17,-59 -52,-109 -96,-146 l 112,-46 c 7,-1 12,-7 13,-14 l 6,-48 c 1,-7 -3,-13 -8,-16 l -71,-39 v 0 l -64,-35 c -6,-3 -13,-2 -18,2 l -37,31 v 1 c -1,1 -2,2 -3,4 l -1,1 c -1,3 -2,6 -1,10 l 21,114 c -43,-22 -90,-35 -140,-35 -28,0 -57,4 -85,12 -40,12 -75,31 -105,55 -7,-4 -14,-8 -22,-11 l 13,64 c 32,-35 74,-63 123,-77 25,-7 51,-11 76,-11 116,0 223,76 258,193 7,25 11,51 11,76 0,116 -76,223 -193,258 -25,7 -51,11 -76,11 -27,0 -53,-4 -79,-12 6,-8 11,-17 16,-25 20,6 41,9 63,9 22,0 45,-3 68,-10 105,-31 172,-126 172,-230 0,-22 -3,-45 -10,-68 -31,-105 -126,-172 -230,-172 -22,0 -45,3 -68,10 -51,15 -94,46 -124,86 l 9,47 c 23,26 41,57 52,93 7,23 10,45 10,68 0,27 -5,54 -14,79 l 11,54 c 23,-40 35,-86 35,-133 0,-26 -4,-51 -11,-77 -13,-44 -36,-82 -66,-113 8,-10 16,-19 25,-28 35,35 61,79 76,130 9,29 13,59 13,88 0,68 -22,133 -62,186 l 8,41 c 2,-2 4,-4 5,-6 32,11 65,17 99,17 28,0 57,-4 85,-12 z"
         id="path1249"
         style="fill:url(#linearGradient5379);fill-opacity:1;fill-rule:nonzero"
         inkscape:connector-curvature="0" />
      <path
         class="fil0"
         d="m -6601.645,8744.7683 8,41 c 1,4 4,6 8,5 4,-1 6,-4 5,-8 l -8,-41 c -1,-4 -4,-6 -8,-5 -4,1 -6,4 -5,8 z m 16,82 8,41 c 1,4 4,6 8,5 4,-1 6,-4 5,-8 l -8,-41 c -1,-4 -4,-6 -8,-5 -4,1 -6,4 -5,8 z m 16,82 8,41 c 1,4 4,6 8,5 4,-1 6,-4 5,-8 l -8,-41 c -1,-4 -4,-6 -8,-5 -4,1 -6,4 -5,8 z m 16,82 8,41 c 1,4 4,6 8,5 4,-1 6,-4 5,-8 l -8,-41 c -1,-4 -4,-6 -8,-5 -4,1 -6,4 -5,8 z m 16,82 8,41 c 1,4 4,6 8,5 4,-1 6,-4 5,-8 l -8,-41 c -1,-4 -4,-6 -8,-5 -4,1 -6,4 -5,8 z m 16,82 8,41 c 1,4 4,6 8,5 4,-1 6,-4 5,-8 l -8,-41 c -1,-4 -4,-6 -8,-5 -4,1 -6,4 -5,8 z m 16,82 8,41 c 1,4 4,6 8,5 4,-1 6,-4 5,-8 l -8,-41 c -1,-4 -4,-6 -8,-5 -4,1 -6,4 -5,8 z m 16,82 8,41 c 1,4 4,6 8,5 4,-1 6,-4 5,-8 l -8,-41 c -1,-4 -4,-6 -8,-5 -4,1 -6,4 -5,8 z m 16,82 8,41 c 1,4 4,6 8,5 4,-1 6,-4 5,-8 l -8,-41 c -1,-4 -4,-6 -8,-5 -4,1 -6,4 -5,8 z m 16,82 8,38 c 1,4 4,6 8,5 4,-1 6,-4 5,-8 l -8,-38 c -1,-4 -4,-6 -8,-5 -4,1 -6,4 -5,8 z"
         id="path1251"
         style="fill:url(#linearGradient4809);fill-opacity:1;fill-rule:nonzero"
         inkscape:connector-curvature="0" />
    </g>
  </g>
</svg>
