<?xml version="1.0" encoding="UTF-8" standalone="no"?>
<!-- Created with Inkscape (http://www.inkscape.org/) -->

<svg
   xmlns:osb="http://www.openswatchbook.org/uri/2009/osb"
   xmlns:dc="http://purl.org/dc/elements/1.1/"
   xmlns:cc="http://creativecommons.org/ns#"
   xmlns:rdf="http://www.w3.org/1999/02/22-rdf-syntax-ns#"
   xmlns:svg="http://www.w3.org/2000/svg"
   xmlns="http://www.w3.org/2000/svg"
   xmlns:xlink="http://www.w3.org/1999/xlink"
   xmlns:sodipodi="http://sodipodi.sourceforge.net/DTD/sodipodi-0.dtd"
   xmlns:inkscape="http://www.inkscape.org/namespaces/inkscape"
   width="210mm"
   height="297mm"
   viewBox="0 0 210 297"
   version="1.1"
   id="svg8"
   inkscape:version="0.92.4 (5da689c313, 2019-01-14)"
   sodipodi:docname="8.svg">
  <defs
     id="defs2">
    <linearGradient
       id="linearGradient3541"
       osb:paint="solid">
      <stop
         style="stop-color:#000000;stop-opacity:1;"
         offset="0"
         id="stop3539" />
    </linearGradient>
    <linearGradient
       inkscape:collect="always"
       xlink:href="#linearGradient3541"
       id="linearGradient4517"
       gradientUnits="userSpaceOnUse"
       x1="-1"
       y1="5917.5"
       x2="11984"
       y2="5917.5"
       gradientTransform="translate(-12612.645,-2196.2317)" />
    <linearGradient
       inkscape:collect="always"
       xlink:href="#linearGradient3541"
       id="linearGradient5438"
       gradientUnits="userSpaceOnUse"
       gradientTransform="translate(-12612.645,-2196.2317)"
       x1="-1"
       y1="5917.5"
       x2="11984"
       y2="5917.5" />
    <linearGradient
       inkscape:collect="always"
       xlink:href="#linearGradient3541"
       id="linearGradient5440"
       gradientUnits="userSpaceOnUse"
       gradientTransform="translate(-12612.645,-2196.2317)"
       x1="-1"
       y1="5917.5"
       x2="11984"
       y2="5917.5" />
    <linearGradient
       inkscape:collect="always"
       xlink:href="#linearGradient3541"
       id="linearGradient5442"
       gradientUnits="userSpaceOnUse"
       gradientTransform="translate(-12612.645,-2196.2317)"
       x1="-1"
       y1="5917.5"
       x2="11984"
       y2="5917.5" />
    <linearGradient
       inkscape:collect="always"
       xlink:href="#linearGradient3541"
       id="linearGradient5444"
       gradientUnits="userSpaceOnUse"
       gradientTransform="translate(-12612.645,-2196.2317)"
       x1="-1"
       y1="5917.5"
       x2="11984"
       y2="5917.5" />
    <linearGradient
       inkscape:collect="always"
       xlink:href="#linearGradient3541"
       id="linearGradient5446"
       gradientUnits="userSpaceOnUse"
       gradientTransform="translate(-12612.645,-2196.2317)"
       x1="-1"
       y1="5917.5"
       x2="11984"
       y2="5917.5" />
    <linearGradient
       inkscape:collect="always"
       xlink:href="#linearGradient3541"
       id="linearGradient5448"
       gradientUnits="userSpaceOnUse"
       gradientTransform="translate(-12612.645,-2196.2317)"
       x1="-1"
       y1="5917.5"
       x2="11984"
       y2="5917.5" />
    <linearGradient
       inkscape:collect="always"
       xlink:href="#linearGradient3541"
       id="linearGradient5450"
       gradientUnits="userSpaceOnUse"
       gradientTransform="translate(-12612.645,-2196.2317)"
       x1="-1"
       y1="5917.5"
       x2="11984"
       y2="5917.5" />
    <linearGradient
       inkscape:collect="always"
       xlink:href="#linearGradient3541"
       id="linearGradient5452"
       gradientUnits="userSpaceOnUse"
       gradientTransform="translate(-12612.645,-2196.2317)"
       x1="-1"
       y1="5917.5"
       x2="11984"
       y2="5917.5" />
    <linearGradient
       inkscape:collect="always"
       xlink:href="#linearGradient3541"
       id="linearGradient5454"
       gradientUnits="userSpaceOnUse"
       gradientTransform="translate(-12612.645,-2196.2317)"
       x1="-1"
       y1="5917.5"
       x2="11984"
       y2="5917.5" />
  </defs>
  <sodipodi:namedview
     id="base"
     pagecolor="#ffffff"
     bordercolor="#666666"
     borderopacity="1.0"
     inkscape:pageopacity="0.0"
     inkscape:pageshadow="2"
     inkscape:zoom="0.35"
     inkscape:cx="400"
     inkscape:cy="560"
     inkscape:document-units="mm"
     inkscape:current-layer="layer1"
     showgrid="false"
     inkscape:window-width="958"
     inkscape:window-height="991"
     inkscape:window-x="952"
     inkscape:window-y="0"
     inkscape:window-maximized="0" />
  <metadata
     id="metadata5">
    <rdf:RDF>
      <cc:Work
         rdf:about="">
        <dc:format>image/svg+xml</dc:format>
        <dc:type
           rdf:resource="http://purl.org/dc/dcmitype/StillImage" />
        <dc:title></dc:title>
      </cc:Work>
    </rdf:RDF>
  </metadata>
  <g
     inkscape:label="Capa 1"
     inkscape:groupmode="layer"
     id="layer1">
    <g
       transform="matrix(0.18612522,0,0,0.18612522,652.96396,-970.79526)"
       style="clip-rule:evenodd;fill-rule:evenodd;image-rendering:optimizeQuality;shape-rendering:geometricPrecision;text-rendering:geometricPrecision"
       id="g6060">
      <path
         class="fil0"
         d="m -3166.645,5866.7683 h -16 c 0,29 -12,55 -31,74 -19,19 -45,31 -74,31 -29,0 -55,-12 -74,-31 -19,-19 -31,-45 -31,-74 0,-29 12,-55 31,-74 19,-19 45,-31 74,-31 29,0 55,12 74,31 19,19 31,45 31,74 h 32 c 0,-75 -61,-136 -136,-136 -75,0 -136,61 -136,136 0,75 61,136 136,136 75,0 136,-61 136,-136 z"
         id="path955"
         style="fill:url(#linearGradient5438);fill-opacity:1;fill-rule:nonzero"
         inkscape:connector-curvature="0" />
      <path
         class="fil0"
         d="m -2849.645,5339.7683 h -17 c 0,22 -9,41 -23,56 -14,14 -34,23 -56,23 -22,0 -41,-9 -56,-23 -14,-14 -23,-34 -23,-56 0,-22 9,-41 23,-56 14,-14 34,-23 56,-23 22,0 41,9 56,23 14,14 23,34 23,56 h 35 c 0,-63 -51,-113 -113,-113 -63,0 -113,51 -113,113 0,63 51,113 113,113 63,0 113,-51 113,-113 h -17 z"
         id="path957"
         style="fill:url(#linearGradient5440);fill-opacity:1;fill-rule:nonzero"
         inkscape:connector-curvature="0" />
      <path
         class="fil0"
         d="m -3015.645,5792.7683 c 19,-19 45,-31 74,-31 29,0 55,12 74,31 19,19 31,45 31,74 0,29 -12,55 -31,74 -19,19 -45,31 -74,31 -29,0 -55,-12 -74,-31 -19,-19 -31,-45 -31,-74 0,-29 12,-55 31,-74 z m 74,210 c 75,0 136,-61 136,-136 0,-75 -61,-136 -136,-136 -75,0 -136,61 -136,136 0,75 61,136 136,136 z"
         id="path959"
         style="fill:url(#linearGradient5442);fill-opacity:1;fill-rule:nonzero"
         inkscape:connector-curvature="0" />
      <path
         class="fil0"
         d="m -2735.645,6264.7683 -95,-213 c -9,-20 -29,-32 -50,-32 -4,0 -8,1 -12,1 -15,-7 -32,-12 -49,-12 -18,0 -34,4 -49,12 -4,-1 -8,-1 -12,-1 -21,0 -41,12 -50,32 l -95,213 c -3,7 -5,15 -5,22 0,21 12,41 32,50 7,3 15,5 22,5 17,0 33,-8 44,-22 v 47 h 32 v -117 c 0,-7 -5,-14 -12,-15 -7,-2 -15,2 -18,9 l -24,54 c -4,9 -12,14 -21,14 -3,0 -6,-1 -9,-2 -9,-4 -14,-12 -14,-21 0,-3 1,-6 2,-9 l 95,-213 c 4,-9 12,-14 21,-14 3,0 5,0 8,1 4,2 9,1 13,-1 12,-7 25,-11 40,-11 14,0 28,4 40,11 4,2 9,3 13,1 3,-1 5,-1 8,-1 9,0 17,5 21,14 l 95,213 14,-6 -14,6 c 1,3 2,6 2,9 0,9 -5,17 -14,21 -3,1 -6,2 -9,2 -9,0 -17,-5 -21,-14 l -24,-54 c -3,-7 -10,-11 -18,-9 -7,2 -12,8 -12,15 v 117 h 32 v -47 c 10,14 27,22 44,22 7,0 15,-2 22,-5 20,-9 32,-29 32,-50 0,-7 -2,-15 -5,-22 z"
         id="path961"
         style="fill:url(#linearGradient5444);fill-opacity:1;fill-rule:nonzero"
         inkscape:connector-curvature="0" />
      <path
         class="fil0"
         d="m -2478.645,5866.7683 h -16 c 0,29 -12,55 -31,74 -19,19 -45,31 -74,31 -29,0 -55,-12 -74,-31 -19,-19 -31,-45 -31,-74 0,-29 12,-55 31,-74 19,-19 45,-31 74,-31 29,0 55,12 74,31 19,19 31,45 31,74 h 32 c 0,-75 -61,-136 -136,-136 -75,0 -136,61 -136,136 0,75 61,136 136,136 75,0 136,-61 136,-136 z"
         id="path963"
         style="fill:url(#linearGradient5446);fill-opacity:1;fill-rule:nonzero"
         inkscape:connector-curvature="0" />
      <path
         class="fil0"
         d="m -2393.645,6264.7683 -95,-213 c -9,-20 -29,-32 -50,-32 -4,0 -8,1 -12,1 -15,-7 -32,-12 -49,-12 -18,0 -34,4 -49,12 -4,-1 -8,-1 -12,-1 -21,0 -41,12 -50,32 l -49,110 17,39 61,-136 c 4,-9 12,-14 21,-14 3,0 5,0 8,1 4,2 9,1 13,-1 12,-7 25,-11 40,-11 14,0 28,4 40,11 4,2 9,3 13,1 3,-1 5,-1 8,-1 9,0 17,5 21,14 l 95,213 14,-6 -14,6 c 1,3 2,6 2,9 0,9 -5,17 -14,21 -3,1 -6,2 -9,2 -9,0 -17,-5 -21,-14 l -24,-54 c -3,-7 -10,-11 -18,-9 -7,2 -12,8 -12,15 v 117 h 32 v -47 c 10,14 27,22 44,22 7,0 15,-2 22,-5 20,-9 32,-29 32,-50 0,-7 -2,-15 -5,-22 z"
         id="path965"
         style="fill:url(#linearGradient5448);fill-opacity:1;fill-rule:nonzero"
         inkscape:connector-curvature="0" />
      <path
         class="fil0"
         d="m -2692.645,6234.7683 c -7,-2 -15,2 -18,9 l -7,15 c 4,9 6,19 6,29 v 0 3 1 c -1,15 -6,30 -16,43 6,-4 11,-8 15,-13 v 47 h 32 v -117 c 0,-7 -5,-14 -12,-15 z"
         id="path967"
         style="fill:url(#linearGradient5450);fill-opacity:1;fill-rule:nonzero"
         inkscape:connector-curvature="0" />
      <path
         class="fil0"
         d="m -3172.645,6287.7683 v 0 -1 0 c 0,-9 2,-17 5,-26 l -8,-18 c -3,-7 -10,-11 -18,-9 -7,2 -12,8 -12,15 v 117 h 32 v -47 c 5,7 12,13 20,16 -12,-14 -18,-31 -18,-49 z"
         id="path969"
         style="fill:url(#linearGradient5452);fill-opacity:1;fill-rule:nonzero"
         inkscape:connector-curvature="0" />
      <path
         class="fil0"
         d="m -3142.645,6203.7683 17,-39 -51,-113 c -9,-20 -29,-32 -50,-32 -4,0 -8,1 -12,1 -15,-7 -32,-12 -49,-12 -18,0 -34,4 -49,12 -4,-1 -8,-1 -12,-1 -21,0 -41,12 -50,32 l -95,213 c -3,7 -5,15 -5,22 0,21 12,41 32,50 7,3 15,5 22,5 17,0 33,-8 44,-22 v 47 h 32 v -117 c 0,-7 -5,-14 -12,-15 -7,-2 -15,2 -18,9 l -24,54 c -4,9 -12,14 -21,14 -3,0 -6,-1 -9,-2 -9,-4 -14,-12 -14,-21 0,-3 1,-6 2,-9 l 95,-213 c 4,-9 12,-14 21,-14 3,0 5,0 8,1 4,2 9,1 13,-1 12,-7 25,-11 40,-11 14,0 28,4 40,11 4,2 9,3 13,1 3,-1 5,-1 8,-1 9,0 17,5 21,14 l 62,139 z"
         id="path971"
         style="fill:url(#linearGradient5454);fill-opacity:1;fill-rule:nonzero"
         inkscape:connector-curvature="0" />
      <path
         class="fil0"
         d="m -3070.645,5776.7683 c 13,-19 30,-34 50,-46 v -157 c 0,-10 -8,-17 -17,-17 -10,0 -17,8 -17,17 v 167 c -8,-11 -17,-23 -25,-37 -20,-33 -35,-72 -35,-115 0,-18 5,-30 13,-40 11,-15 32,-25 55,-31 23,-6 48,-8 67,-8 10,0 18,0 24,1 3,0 5,0 7,1 h 2 v 0 c 3,0 6,0 8,-1 3,1 5,2 8,1 v 0 c 3,0 15,-2 32,-2 26,0 62,3 89,15 14,6 25,14 33,24 8,10 12,22 13,40 0,42 -16,82 -35,114 -9,16 -20,30 -29,41 v -171 c 0,-10 -8,-17 -17,-17 -10,0 -17,8 -17,17 v 157 c 21,12 38,28 52,48 13,-15 28,-34 42,-58 22,-36 40,-81 40,-132 0,-25 -7,-46 -20,-61 -19,-24 -46,-37 -73,-44 -27,-7 -55,-9 -76,-9 -21,0 -36,2 -37,2 -2,0 -3,1 -4,1 -1,-1 -3,-1 -4,-1 0,0 -15,-2 -37,-2 -28,0 -68,3 -103,18 -18,8 -34,19 -47,35 -12,16 -20,37 -20,61 0,51 19,96 40,133 13,22 27,40 40,55 z"
         id="path973"
         style="fill:url(#linearGradient4517);fill-opacity:1;fill-rule:nonzero"
         inkscape:connector-curvature="0" />
    </g>
  </g>
</svg>
