<?xml version="1.0" encoding="UTF-8" standalone="no"?>
<!-- Created with Inkscape (http://www.inkscape.org/) -->

<svg
   xmlns:osb="http://www.openswatchbook.org/uri/2009/osb"
   xmlns:dc="http://purl.org/dc/elements/1.1/"
   xmlns:cc="http://creativecommons.org/ns#"
   xmlns:rdf="http://www.w3.org/1999/02/22-rdf-syntax-ns#"
   xmlns:svg="http://www.w3.org/2000/svg"
   xmlns="http://www.w3.org/2000/svg"
   xmlns:xlink="http://www.w3.org/1999/xlink"
   xmlns:sodipodi="http://sodipodi.sourceforge.net/DTD/sodipodi-0.dtd"
   xmlns:inkscape="http://www.inkscape.org/namespaces/inkscape"
   width="210mm"
   height="297mm"
   viewBox="0 0 210 297"
   version="1.1"
   id="svg8"
   inkscape:version="0.92.4 (5da689c313, 2019-01-14)"
   sodipodi:docname="9.svg">
  <defs
     id="defs2">
    <linearGradient
       id="linearGradient3541"
       osb:paint="solid">
      <stop
         style="stop-color:#000000;stop-opacity:1;"
         offset="0"
         id="stop3539" />
    </linearGradient>
    <linearGradient
       inkscape:collect="always"
       xlink:href="#linearGradient3541"
       id="linearGradient4023"
       gradientUnits="userSpaceOnUse"
       x1="-1"
       y1="5917.5"
       x2="11984"
       y2="5917.5"
       gradientTransform="translate(-12612.645,-2196.2317)" />
    <linearGradient
       inkscape:collect="always"
       xlink:href="#linearGradient3541"
       id="linearGradient5528"
       gradientUnits="userSpaceOnUse"
       gradientTransform="translate(-12612.645,-2196.2317)"
       x1="-1"
       y1="5917.5"
       x2="11984"
       y2="5917.5" />
    <linearGradient
       inkscape:collect="always"
       xlink:href="#linearGradient3541"
       id="linearGradient5530"
       gradientUnits="userSpaceOnUse"
       gradientTransform="translate(-12612.645,-2196.2317)"
       x1="-1"
       y1="5917.5"
       x2="11984"
       y2="5917.5" />
    <linearGradient
       inkscape:collect="always"
       xlink:href="#linearGradient3541"
       id="linearGradient5532"
       gradientUnits="userSpaceOnUse"
       gradientTransform="translate(-12612.645,-2196.2317)"
       x1="-1"
       y1="5917.5"
       x2="11984"
       y2="5917.5" />
    <linearGradient
       inkscape:collect="always"
       xlink:href="#linearGradient3541"
       id="linearGradient5534"
       gradientUnits="userSpaceOnUse"
       gradientTransform="translate(-12612.645,-2196.2317)"
       x1="-1"
       y1="5917.5"
       x2="11984"
       y2="5917.5" />
    <linearGradient
       inkscape:collect="always"
       xlink:href="#linearGradient3541"
       id="linearGradient5536"
       gradientUnits="userSpaceOnUse"
       gradientTransform="translate(-12612.645,-2196.2317)"
       x1="-1"
       y1="5917.5"
       x2="11984"
       y2="5917.5" />
    <linearGradient
       inkscape:collect="always"
       xlink:href="#linearGradient3541"
       id="linearGradient5538"
       gradientUnits="userSpaceOnUse"
       gradientTransform="translate(-12612.645,-2196.2317)"
       x1="-1"
       y1="5917.5"
       x2="11984"
       y2="5917.5" />
    <linearGradient
       inkscape:collect="always"
       xlink:href="#linearGradient3541"
       id="linearGradient5540"
       gradientUnits="userSpaceOnUse"
       gradientTransform="translate(-12612.645,-2196.2317)"
       x1="-1"
       y1="5917.5"
       x2="11984"
       y2="5917.5" />
    <linearGradient
       inkscape:collect="always"
       xlink:href="#linearGradient3541"
       id="linearGradient5542"
       gradientUnits="userSpaceOnUse"
       gradientTransform="translate(-12612.645,-2196.2317)"
       x1="-1"
       y1="5917.5"
       x2="11984"
       y2="5917.5" />
    <linearGradient
       inkscape:collect="always"
       xlink:href="#linearGradient3541"
       id="linearGradient5544"
       gradientUnits="userSpaceOnUse"
       gradientTransform="translate(-12612.645,-2196.2317)"
       x1="-1"
       y1="5917.5"
       x2="11984"
       y2="5917.5" />
    <linearGradient
       inkscape:collect="always"
       xlink:href="#linearGradient3541"
       id="linearGradient5546"
       gradientUnits="userSpaceOnUse"
       gradientTransform="translate(-12612.645,-2196.2317)"
       x1="-1"
       y1="5917.5"
       x2="11984"
       y2="5917.5" />
    <linearGradient
       inkscape:collect="always"
       xlink:href="#linearGradient3541"
       id="linearGradient5548"
       gradientUnits="userSpaceOnUse"
       gradientTransform="translate(-12612.645,-2196.2317)"
       x1="-1"
       y1="5917.5"
       x2="11984"
       y2="5917.5" />
    <linearGradient
       inkscape:collect="always"
       xlink:href="#linearGradient3541"
       id="linearGradient5550"
       gradientUnits="userSpaceOnUse"
       gradientTransform="translate(-12612.645,-2196.2317)"
       x1="-1"
       y1="5917.5"
       x2="11984"
       y2="5917.5" />
  </defs>
  <sodipodi:namedview
     id="base"
     pagecolor="#ffffff"
     bordercolor="#666666"
     borderopacity="1.0"
     inkscape:pageopacity="0.0"
     inkscape:pageshadow="2"
     inkscape:zoom="0.35"
     inkscape:cx="400"
     inkscape:cy="560"
     inkscape:document-units="mm"
     inkscape:current-layer="layer1"
     showgrid="false"
     inkscape:window-width="958"
     inkscape:window-height="991"
     inkscape:window-x="952"
     inkscape:window-y="0"
     inkscape:window-maximized="0" />
  <metadata
     id="metadata5">
    <rdf:RDF>
      <cc:Work
         rdf:about="">
        <dc:format>image/svg+xml</dc:format>
        <dc:type
           rdf:resource="http://purl.org/dc/dcmitype/StillImage" />
        <dc:title></dc:title>
      </cc:Work>
    </rdf:RDF>
  </metadata>
  <g
     inkscape:label="Capa 1"
     inkscape:groupmode="layer"
     id="layer1">
    <g
       transform="matrix(0.17543035,0,0,0.17543035,1255.114,-590.38863)"
       style="clip-rule:evenodd;fill-rule:evenodd;image-rendering:optimizeQuality;shape-rendering:geometricPrecision;text-rendering:geometricPrecision"
       id="g5943">
      <path
         class="fil0"
         d="m -6476.645,4100.7683 -15,3 c 6,33 35,56 67,56 4,0 9,0 13,-1 33,-6 56,-35 56,-67 0,-4 0,-9 -1,-13 -6,-33 -35,-56 -67,-56 -4,0 -9,0 -13,1 -33,6 -56,35 -56,67 0,4 0,9 1,13 l 15,-3 15,-3 c 0,-2 -1,-5 -1,-7 0,-17 12,-33 30,-36 2,0 5,-1 7,-1 17,0 33,12 36,30 0,2 1,5 1,7 0,17 -12,33 -30,36 -2,0 -5,1 -7,1 -17,0 -33,-12 -36,-30 z"
         id="path461"
         style="fill:url(#linearGradient5528);fill-opacity:1;fill-rule:nonzero"
         inkscape:connector-curvature="0" />
      <path
         class="fil0"
         d="m -6400.645,4130.7683 13,67 -11,-2 c -9,-2 -17,4 -19,12 -2,9 4,17 12,19 l 34,7 c 5,1 10,-1 14,-4 4,-4 5,-9 4,-14 l -17,-90 c -2,-9 -10,-14 -18,-12 -9,2 -14,10 -12,18 z"
         id="path463"
         style="fill:url(#linearGradient5530);fill-opacity:1;fill-rule:nonzero"
         inkscape:connector-curvature="0" />
      <path
         class="fil0"
         d="m -6463.645,4142.7683 17,90 c 1,5 4,9 9,12 5,2 10,2 15,-1 l 29,-19 c 7,-5 9,-15 5,-22 -5,-7 -15,-9 -22,-5 l -10,6 -13,-67 c -2,-9 -10,-14 -18,-13 -9,2 -14,10 -12,18 z"
         id="path465"
         style="fill:url(#linearGradient5532);fill-opacity:1;fill-rule:nonzero"
         inkscape:connector-curvature="0" />
      <path
         class="fil0"
         d="m -6813.645,3785.7683 91,-379 c 1,-4 4,-6 8,-6 h 2 l 719,172 c 4,1 6,4 6,8 v 2 l -111,464 c -1,4 -4,6 -8,6 h -2 l -192,-46 c -8,-2 -17,3 -19,12 -2,8 3,17 12,19 l 192,46 c 3,1 6,1 9,1 18,0 34,-12 38,-30 l 111,-464 c 1,-3 1,-6 1,-9 0,-18 -12,-34 -30,-38 l -719,-172 c -3,-1 -6,-1 -9,-1 -18,0 -34,12 -38,30 l -91,379 c -2,8 3,17 12,19 8,2 17,-3 19,-12 z"
         id="path467"
         style="fill:url(#linearGradient5534);fill-opacity:1;fill-rule:nonzero"
         inkscape:connector-curvature="0" />
      <path
         class="fil0"
         d="m -6564.645,3726.7683 -169,-276 c -5,-7 -14,-10 -22,-5 -7,5 -10,14 -5,22 l 169,276 c 5,7 14,10 22,5 7,-5 10,-14 5,-22 z"
         id="path469"
         style="fill:url(#linearGradient5536);fill-opacity:1;fill-rule:nonzero"
         inkscape:connector-curvature="0" />
      <path
         class="fil0"
         d="m -5998.645,3630.7683 -340,209 c -7,5 -10,14 -5,22 5,7 14,10 22,5 l 340,-209 c 7,-5 10,-14 5,-22 -5,-7 -14,-10 -22,-5 z"
         id="path471"
         style="fill:url(#linearGradient5538);fill-opacity:1;fill-rule:nonzero"
         inkscape:connector-curvature="0" />
      <path
         class="fil0"
         d="m -6285.645,3826.7683 149,244 c 5,7 14,10 22,5 7,-5 10,-14 5,-22 l -149,-243 c -5,-7 -14,-10 -22,-5 -7,5 -10,14 -5,22 z"
         id="path473"
         style="fill:url(#linearGradient5540);fill-opacity:1;fill-rule:nonzero"
         inkscape:connector-curvature="0" />
      <path
         class="fil0"
         d="m -6260.645,4258.7683 -3,-15 -744,143 -102,-533 728,-140 105,548 15,-3 -3,-15 3,15 15,-3 -108,-564 c -1,-4 -3,-8 -7,-10 -3,-2 -8,-3 -12,-2 l -759,146 c -9,2 -14,10 -13,18 l 108,564 c 1,4 3,8 7,10 3,2 8,3 12,2 l 759,-146 c 9,-2 14,-10 12,-18 l -15,3 z"
         id="path475"
         style="fill:url(#linearGradient5542);fill-opacity:1;fill-rule:nonzero"
         inkscape:connector-curvature="0" />
      <path
         class="fil0"
         d="m -7000.645,3945.7683 555,-107 c 9,-2 14,-10 13,-18 -2,-9 -10,-14 -18,-13 l -555,107 c -9,2 -14,10 -12,18 2,9 10,14 18,12 z"
         id="path477"
         style="fill:url(#linearGradient5544);fill-opacity:1;fill-rule:nonzero"
         inkscape:connector-curvature="0" />
      <path
         class="fil0"
         d="m -6984.645,4033.7683 555,-107 c 9,-2 14,-10 13,-18 -2,-9 -10,-14 -18,-12 l -555,107 c -9,2 -14,10 -13,18 2,9 10,14 18,12 z"
         id="path479"
         style="fill:url(#linearGradient5546);fill-opacity:1;fill-rule:nonzero"
         inkscape:connector-curvature="0" />
      <path
         class="fil0"
         d="m -6967.645,4121.7683 451,-87 c 9,-2 14,-10 13,-18 -2,-9 -10,-14 -18,-13 l -451,87 c -9,2 -14,10 -12,18 2,9 10,14 18,12 z"
         id="path481"
         style="fill:url(#linearGradient5548);fill-opacity:1;fill-rule:nonzero"
         inkscape:connector-curvature="0" />
      <path
         class="fil0"
         d="m -6950.645,4209.7683 386,-74 c 9,-2 14,-10 13,-18 -2,-9 -10,-14 -18,-13 l -386,74 c -9,2 -14,10 -12,18 2,9 10,14 18,12 z"
         id="path483"
         style="fill:url(#linearGradient5550);fill-opacity:1;fill-rule:nonzero"
         inkscape:connector-curvature="0" />
      <path
         class="fil0"
         d="m -6933.645,4297.7683 386,-74 c 9,-2 14,-10 13,-18 -2,-9 -10,-14 -18,-12 l -386,74 c -9,2 -14,10 -13,18 2,9 10,14 18,13 z"
         id="path485"
         style="fill:url(#linearGradient4023);fill-opacity:1;fill-rule:nonzero"
         inkscape:connector-curvature="0" />
    </g>
  </g>
</svg>
